G04 #@! TF.GenerationSoftware,KiCad,Pcbnew,5.0.0-fee4fd1~66~ubuntu16.04.1*
G04 #@! TF.CreationDate,2018-08-17T12:07:40+02:00*
G04 #@! TF.ProjectId,Garden_Guardian,47617264656E5F477561726469616E2E,rev?*
G04 #@! TF.SameCoordinates,Original*
G04 #@! TF.FileFunction,Legend,Bot*
G04 #@! TF.FilePolarity,Positive*
%FSLAX46Y46*%
G04 Gerber Fmt 4.6, Leading zero omitted, Abs format (unit mm)*
G04 Created by KiCad (PCBNEW 5.0.0-fee4fd1~66~ubuntu16.04.1) date Fri Aug 17 12:07:40 2018*
%MOMM*%
%LPD*%
G01*
G04 APERTURE LIST*
%ADD10C,0.250000*%
%ADD11C,0.300000*%
%ADD12C,0.010000*%
G04 APERTURE END LIST*
D10*
X145548571Y-85083333D02*
X145596190Y-85226190D01*
X145643809Y-85273809D01*
X145739047Y-85321428D01*
X145881904Y-85321428D01*
X145977142Y-85273809D01*
X146024761Y-85226190D01*
X146072380Y-85130952D01*
X146072380Y-84750000D01*
X145072380Y-84750000D01*
X145072380Y-85083333D01*
X145120000Y-85178571D01*
X145167619Y-85226190D01*
X145262857Y-85273809D01*
X145358095Y-85273809D01*
X145453333Y-85226190D01*
X145500952Y-85178571D01*
X145548571Y-85083333D01*
X145548571Y-84750000D01*
X145405714Y-85654761D02*
X146072380Y-85892857D01*
X145405714Y-86130952D02*
X146072380Y-85892857D01*
X146310476Y-85797619D01*
X146358095Y-85750000D01*
X146405714Y-85654761D01*
X145977142Y-87845238D02*
X146024761Y-87797619D01*
X146072380Y-87654761D01*
X146072380Y-87559523D01*
X146024761Y-87416666D01*
X145929523Y-87321428D01*
X145834285Y-87273809D01*
X145643809Y-87226190D01*
X145500952Y-87226190D01*
X145310476Y-87273809D01*
X145215238Y-87321428D01*
X145120000Y-87416666D01*
X145072380Y-87559523D01*
X145072380Y-87654761D01*
X145120000Y-87797619D01*
X145167619Y-87845238D01*
X146072380Y-88273809D02*
X145405714Y-88273809D01*
X145596190Y-88273809D02*
X145500952Y-88321428D01*
X145453333Y-88369047D01*
X145405714Y-88464285D01*
X145405714Y-88559523D01*
X146072380Y-89321428D02*
X145548571Y-89321428D01*
X145453333Y-89273809D01*
X145405714Y-89178571D01*
X145405714Y-88988095D01*
X145453333Y-88892857D01*
X146024761Y-89321428D02*
X146072380Y-89226190D01*
X146072380Y-88988095D01*
X146024761Y-88892857D01*
X145929523Y-88845238D01*
X145834285Y-88845238D01*
X145739047Y-88892857D01*
X145691428Y-88988095D01*
X145691428Y-89226190D01*
X145643809Y-89321428D01*
X146072380Y-89797619D02*
X145072380Y-89797619D01*
X145691428Y-89892857D02*
X146072380Y-90178571D01*
X145405714Y-90178571D02*
X145786666Y-89797619D01*
X146024761Y-90988095D02*
X146072380Y-90892857D01*
X146072380Y-90702380D01*
X146024761Y-90607142D01*
X145929523Y-90559523D01*
X145548571Y-90559523D01*
X145453333Y-90607142D01*
X145405714Y-90702380D01*
X145405714Y-90892857D01*
X145453333Y-90988095D01*
X145548571Y-91035714D01*
X145643809Y-91035714D01*
X145739047Y-90559523D01*
X146072380Y-91464285D02*
X145405714Y-91464285D01*
X145596190Y-91464285D02*
X145500952Y-91511904D01*
X145453333Y-91559523D01*
X145405714Y-91654761D01*
X145405714Y-91749999D01*
X146072380Y-92083333D02*
X145072380Y-92083333D01*
X146072380Y-92654761D01*
X145072380Y-92654761D01*
X146072380Y-93559523D02*
X145548571Y-93559523D01*
X145453333Y-93511904D01*
X145405714Y-93416666D01*
X145405714Y-93226190D01*
X145453333Y-93130952D01*
X146024761Y-93559523D02*
X146072380Y-93464285D01*
X146072380Y-93226190D01*
X146024761Y-93130952D01*
X145929523Y-93083333D01*
X145834285Y-93083333D01*
X145739047Y-93130952D01*
X145691428Y-93226190D01*
X145691428Y-93464285D01*
X145643809Y-93559523D01*
X145405714Y-94035714D02*
X146072380Y-94035714D01*
X145500952Y-94035714D02*
X145453333Y-94083333D01*
X145405714Y-94178571D01*
X145405714Y-94321428D01*
X145453333Y-94416666D01*
X145548571Y-94464285D01*
X146072380Y-94464285D01*
X146072380Y-95083333D02*
X146024761Y-94988095D01*
X145977142Y-94940476D01*
X145881904Y-94892857D01*
X145596190Y-94892857D01*
X145500952Y-94940476D01*
X145453333Y-94988095D01*
X145405714Y-95083333D01*
X145405714Y-95226190D01*
X145453333Y-95321428D01*
X145500952Y-95369047D01*
X145596190Y-95416666D01*
X145881904Y-95416666D01*
X145977142Y-95369047D01*
X146024761Y-95321428D01*
X146072380Y-95226190D01*
X146072380Y-95083333D01*
X145405714Y-96273809D02*
X146072380Y-96273809D01*
X145024761Y-96035714D02*
X145739047Y-95797619D01*
X145739047Y-96416666D01*
X145072380Y-96654761D02*
X145072380Y-97226190D01*
X146072380Y-96940476D02*
X145072380Y-96940476D01*
X146072380Y-97559523D02*
X145405714Y-97559523D01*
X145596190Y-97559523D02*
X145500952Y-97607142D01*
X145453333Y-97654761D01*
X145405714Y-97749999D01*
X145405714Y-97845238D01*
X146072380Y-98607142D02*
X145548571Y-98607142D01*
X145453333Y-98559523D01*
X145405714Y-98464285D01*
X145405714Y-98273809D01*
X145453333Y-98178571D01*
X146024761Y-98607142D02*
X146072380Y-98511904D01*
X146072380Y-98273809D01*
X146024761Y-98178571D01*
X145929523Y-98130952D01*
X145834285Y-98130952D01*
X145739047Y-98178571D01*
X145691428Y-98273809D01*
X145691428Y-98511904D01*
X145643809Y-98607142D01*
X146024761Y-99035714D02*
X146072380Y-99130952D01*
X146072380Y-99321428D01*
X146024761Y-99416666D01*
X145929523Y-99464285D01*
X145881904Y-99464285D01*
X145786666Y-99416666D01*
X145739047Y-99321428D01*
X145739047Y-99178571D01*
X145691428Y-99083333D01*
X145596190Y-99035714D01*
X145548571Y-99035714D01*
X145453333Y-99083333D01*
X145405714Y-99178571D01*
X145405714Y-99321428D01*
X145453333Y-99416666D01*
X145405714Y-99749999D02*
X145405714Y-100130952D01*
X145072380Y-99892857D02*
X145929523Y-99892857D01*
X146024761Y-99940476D01*
X146072380Y-100035714D01*
X146072380Y-100130952D01*
X146072380Y-100464285D02*
X145405714Y-100464285D01*
X145596190Y-100464285D02*
X145500952Y-100511904D01*
X145453333Y-100559523D01*
X145405714Y-100654761D01*
X145405714Y-100749999D01*
X146024761Y-101464285D02*
X146072380Y-101369047D01*
X146072380Y-101178571D01*
X146024761Y-101083333D01*
X145929523Y-101035714D01*
X145548571Y-101035714D01*
X145453333Y-101083333D01*
X145405714Y-101178571D01*
X145405714Y-101369047D01*
X145453333Y-101464285D01*
X145548571Y-101511904D01*
X145643809Y-101511904D01*
X145739047Y-101035714D01*
X145405714Y-101940476D02*
X146262857Y-101940476D01*
X146358095Y-101892857D01*
X146405714Y-101797619D01*
X146405714Y-101749999D01*
X145072380Y-101940476D02*
X145120000Y-101892857D01*
X145167619Y-101940476D01*
X145120000Y-101988095D01*
X145072380Y-101940476D01*
X145167619Y-101940476D01*
X146072380Y-102845238D02*
X145548571Y-102845238D01*
X145453333Y-102797619D01*
X145405714Y-102702380D01*
X145405714Y-102511904D01*
X145453333Y-102416666D01*
X146024761Y-102845238D02*
X146072380Y-102749999D01*
X146072380Y-102511904D01*
X146024761Y-102416666D01*
X145929523Y-102369047D01*
X145834285Y-102369047D01*
X145739047Y-102416666D01*
X145691428Y-102511904D01*
X145691428Y-102749999D01*
X145643809Y-102845238D01*
X145405714Y-103321428D02*
X146072380Y-103321428D01*
X145500952Y-103321428D02*
X145453333Y-103369047D01*
X145405714Y-103464285D01*
X145405714Y-103607142D01*
X145453333Y-103702380D01*
X145548571Y-103749999D01*
X146072380Y-103749999D01*
D11*
X175768571Y-106598571D02*
X175768571Y-107670000D01*
X175840000Y-107884285D01*
X175982857Y-108027142D01*
X176197142Y-108098571D01*
X176340000Y-108098571D01*
X174411428Y-108098571D02*
X174411428Y-107312857D01*
X174482857Y-107170000D01*
X174625714Y-107098571D01*
X174911428Y-107098571D01*
X175054285Y-107170000D01*
X174411428Y-108027142D02*
X174554285Y-108098571D01*
X174911428Y-108098571D01*
X175054285Y-108027142D01*
X175125714Y-107884285D01*
X175125714Y-107741428D01*
X175054285Y-107598571D01*
X174911428Y-107527142D01*
X174554285Y-107527142D01*
X174411428Y-107455714D01*
X173697142Y-108098571D02*
X173697142Y-107098571D01*
X173697142Y-107384285D02*
X173625714Y-107241428D01*
X173554285Y-107170000D01*
X173411428Y-107098571D01*
X173268571Y-107098571D01*
X172911428Y-107098571D02*
X172625714Y-108098571D01*
X172340000Y-107384285D01*
X172054285Y-108098571D01*
X171768571Y-107098571D01*
X171197142Y-108098571D02*
X171197142Y-107098571D01*
X171197142Y-106598571D02*
X171268571Y-106670000D01*
X171197142Y-106741428D01*
X171125714Y-106670000D01*
X171197142Y-106598571D01*
X171197142Y-106741428D01*
X170554285Y-108027142D02*
X170411428Y-108098571D01*
X170125714Y-108098571D01*
X169982857Y-108027142D01*
X169911428Y-107884285D01*
X169911428Y-107812857D01*
X169982857Y-107670000D01*
X170125714Y-107598571D01*
X170340000Y-107598571D01*
X170482857Y-107527142D01*
X170554285Y-107384285D01*
X170554285Y-107312857D01*
X170482857Y-107170000D01*
X170340000Y-107098571D01*
X170125714Y-107098571D01*
X169982857Y-107170000D01*
X167340000Y-106670000D02*
X167482857Y-106598571D01*
X167697142Y-106598571D01*
X167911428Y-106670000D01*
X168054285Y-106812857D01*
X168125714Y-106955714D01*
X168197142Y-107241428D01*
X168197142Y-107455714D01*
X168125714Y-107741428D01*
X168054285Y-107884285D01*
X167911428Y-108027142D01*
X167697142Y-108098571D01*
X167554285Y-108098571D01*
X167340000Y-108027142D01*
X167268571Y-107955714D01*
X167268571Y-107455714D01*
X167554285Y-107455714D01*
X165982857Y-108098571D02*
X165982857Y-107312857D01*
X166054285Y-107170000D01*
X166197142Y-107098571D01*
X166482857Y-107098571D01*
X166625714Y-107170000D01*
X165982857Y-108027142D02*
X166125714Y-108098571D01*
X166482857Y-108098571D01*
X166625714Y-108027142D01*
X166697142Y-107884285D01*
X166697142Y-107741428D01*
X166625714Y-107598571D01*
X166482857Y-107527142D01*
X166125714Y-107527142D01*
X165982857Y-107455714D01*
X165268571Y-108098571D02*
X165268571Y-107098571D01*
X165268571Y-107384285D02*
X165197142Y-107241428D01*
X165125714Y-107170000D01*
X164982857Y-107098571D01*
X164840000Y-107098571D01*
X163697142Y-108098571D02*
X163697142Y-106598571D01*
X163697142Y-108027142D02*
X163840000Y-108098571D01*
X164125714Y-108098571D01*
X164268571Y-108027142D01*
X164340000Y-107955714D01*
X164411428Y-107812857D01*
X164411428Y-107384285D01*
X164340000Y-107241428D01*
X164268571Y-107170000D01*
X164125714Y-107098571D01*
X163840000Y-107098571D01*
X163697142Y-107170000D01*
X162411428Y-108027142D02*
X162554285Y-108098571D01*
X162840000Y-108098571D01*
X162982857Y-108027142D01*
X163054285Y-107884285D01*
X163054285Y-107312857D01*
X162982857Y-107170000D01*
X162840000Y-107098571D01*
X162554285Y-107098571D01*
X162411428Y-107170000D01*
X162340000Y-107312857D01*
X162340000Y-107455714D01*
X163054285Y-107598571D01*
X161697142Y-107098571D02*
X161697142Y-108098571D01*
X161697142Y-107241428D02*
X161625714Y-107170000D01*
X161482857Y-107098571D01*
X161268571Y-107098571D01*
X161125714Y-107170000D01*
X161054285Y-107312857D01*
X161054285Y-108098571D01*
X158411428Y-106670000D02*
X158554285Y-106598571D01*
X158768571Y-106598571D01*
X158982857Y-106670000D01*
X159125714Y-106812857D01*
X159197142Y-106955714D01*
X159268571Y-107241428D01*
X159268571Y-107455714D01*
X159197142Y-107741428D01*
X159125714Y-107884285D01*
X158982857Y-108027142D01*
X158768571Y-108098571D01*
X158625714Y-108098571D01*
X158411428Y-108027142D01*
X158340000Y-107955714D01*
X158340000Y-107455714D01*
X158625714Y-107455714D01*
X157054285Y-107098571D02*
X157054285Y-108098571D01*
X157697142Y-107098571D02*
X157697142Y-107884285D01*
X157625714Y-108027142D01*
X157482857Y-108098571D01*
X157268571Y-108098571D01*
X157125714Y-108027142D01*
X157054285Y-107955714D01*
X155697142Y-108098571D02*
X155697142Y-107312857D01*
X155768571Y-107170000D01*
X155911428Y-107098571D01*
X156197142Y-107098571D01*
X156340000Y-107170000D01*
X155697142Y-108027142D02*
X155840000Y-108098571D01*
X156197142Y-108098571D01*
X156340000Y-108027142D01*
X156411428Y-107884285D01*
X156411428Y-107741428D01*
X156340000Y-107598571D01*
X156197142Y-107527142D01*
X155840000Y-107527142D01*
X155697142Y-107455714D01*
X154982857Y-108098571D02*
X154982857Y-107098571D01*
X154982857Y-107384285D02*
X154911428Y-107241428D01*
X154840000Y-107170000D01*
X154697142Y-107098571D01*
X154554285Y-107098571D01*
X153411428Y-108098571D02*
X153411428Y-106598571D01*
X153411428Y-108027142D02*
X153554285Y-108098571D01*
X153840000Y-108098571D01*
X153982857Y-108027142D01*
X154054285Y-107955714D01*
X154125714Y-107812857D01*
X154125714Y-107384285D01*
X154054285Y-107241428D01*
X153982857Y-107170000D01*
X153840000Y-107098571D01*
X153554285Y-107098571D01*
X153411428Y-107170000D01*
X152697142Y-108098571D02*
X152697142Y-107098571D01*
X152697142Y-106598571D02*
X152768571Y-106670000D01*
X152697142Y-106741428D01*
X152625714Y-106670000D01*
X152697142Y-106598571D01*
X152697142Y-106741428D01*
X151340000Y-108098571D02*
X151340000Y-107312857D01*
X151411428Y-107170000D01*
X151554285Y-107098571D01*
X151840000Y-107098571D01*
X151982857Y-107170000D01*
X151340000Y-108027142D02*
X151482857Y-108098571D01*
X151840000Y-108098571D01*
X151982857Y-108027142D01*
X152054285Y-107884285D01*
X152054285Y-107741428D01*
X151982857Y-107598571D01*
X151840000Y-107527142D01*
X151482857Y-107527142D01*
X151340000Y-107455714D01*
X150625714Y-107098571D02*
X150625714Y-108098571D01*
X150625714Y-107241428D02*
X150554285Y-107170000D01*
X150411428Y-107098571D01*
X150197142Y-107098571D01*
X150054285Y-107170000D01*
X149982857Y-107312857D01*
X149982857Y-108098571D01*
D12*
G04 #@! TO.C,REF\002A\002A\002A*
G36*
X178520256Y-78869918D02*
X178464799Y-78897568D01*
X178415852Y-78948480D01*
X178402371Y-78967338D01*
X178387686Y-78992015D01*
X178378158Y-79018816D01*
X178372707Y-79054587D01*
X178370253Y-79106169D01*
X178369714Y-79174267D01*
X178372148Y-79267588D01*
X178380606Y-79337657D01*
X178396826Y-79389931D01*
X178422546Y-79429869D01*
X178459503Y-79462929D01*
X178462218Y-79464886D01*
X178498640Y-79484908D01*
X178542498Y-79494815D01*
X178598276Y-79497257D01*
X178688952Y-79497257D01*
X178688990Y-79585283D01*
X178689834Y-79634308D01*
X178694976Y-79663065D01*
X178708413Y-79680311D01*
X178734142Y-79694808D01*
X178740321Y-79697769D01*
X178769236Y-79711648D01*
X178791624Y-79720414D01*
X178808271Y-79721171D01*
X178819964Y-79711023D01*
X178827490Y-79687073D01*
X178831634Y-79646426D01*
X178833185Y-79586186D01*
X178832929Y-79503455D01*
X178831651Y-79395339D01*
X178831252Y-79363000D01*
X178829815Y-79251524D01*
X178828528Y-79178603D01*
X178689029Y-79178603D01*
X178688245Y-79240499D01*
X178684760Y-79280997D01*
X178676876Y-79307708D01*
X178662895Y-79328244D01*
X178653403Y-79338260D01*
X178614596Y-79367567D01*
X178580237Y-79369952D01*
X178544784Y-79345750D01*
X178543886Y-79344857D01*
X178529461Y-79326153D01*
X178520687Y-79300732D01*
X178516261Y-79261584D01*
X178514882Y-79201697D01*
X178514857Y-79188430D01*
X178518188Y-79105901D01*
X178529031Y-79048691D01*
X178548660Y-79013766D01*
X178578350Y-78998094D01*
X178595509Y-78996514D01*
X178636234Y-79003926D01*
X178664168Y-79028330D01*
X178680983Y-79072980D01*
X178688350Y-79141130D01*
X178689029Y-79178603D01*
X178828528Y-79178603D01*
X178828292Y-79165245D01*
X178826323Y-79100333D01*
X178823550Y-79052958D01*
X178819612Y-79019290D01*
X178814151Y-78995498D01*
X178806808Y-78977753D01*
X178797223Y-78962224D01*
X178793113Y-78956381D01*
X178738595Y-78901185D01*
X178669664Y-78869890D01*
X178589928Y-78861165D01*
X178520256Y-78869918D01*
X178520256Y-78869918D01*
G37*
X178520256Y-78869918D02*
X178464799Y-78897568D01*
X178415852Y-78948480D01*
X178402371Y-78967338D01*
X178387686Y-78992015D01*
X178378158Y-79018816D01*
X178372707Y-79054587D01*
X178370253Y-79106169D01*
X178369714Y-79174267D01*
X178372148Y-79267588D01*
X178380606Y-79337657D01*
X178396826Y-79389931D01*
X178422546Y-79429869D01*
X178459503Y-79462929D01*
X178462218Y-79464886D01*
X178498640Y-79484908D01*
X178542498Y-79494815D01*
X178598276Y-79497257D01*
X178688952Y-79497257D01*
X178688990Y-79585283D01*
X178689834Y-79634308D01*
X178694976Y-79663065D01*
X178708413Y-79680311D01*
X178734142Y-79694808D01*
X178740321Y-79697769D01*
X178769236Y-79711648D01*
X178791624Y-79720414D01*
X178808271Y-79721171D01*
X178819964Y-79711023D01*
X178827490Y-79687073D01*
X178831634Y-79646426D01*
X178833185Y-79586186D01*
X178832929Y-79503455D01*
X178831651Y-79395339D01*
X178831252Y-79363000D01*
X178829815Y-79251524D01*
X178828528Y-79178603D01*
X178689029Y-79178603D01*
X178688245Y-79240499D01*
X178684760Y-79280997D01*
X178676876Y-79307708D01*
X178662895Y-79328244D01*
X178653403Y-79338260D01*
X178614596Y-79367567D01*
X178580237Y-79369952D01*
X178544784Y-79345750D01*
X178543886Y-79344857D01*
X178529461Y-79326153D01*
X178520687Y-79300732D01*
X178516261Y-79261584D01*
X178514882Y-79201697D01*
X178514857Y-79188430D01*
X178518188Y-79105901D01*
X178529031Y-79048691D01*
X178548660Y-79013766D01*
X178578350Y-78998094D01*
X178595509Y-78996514D01*
X178636234Y-79003926D01*
X178664168Y-79028330D01*
X178680983Y-79072980D01*
X178688350Y-79141130D01*
X178689029Y-79178603D01*
X178828528Y-79178603D01*
X178828292Y-79165245D01*
X178826323Y-79100333D01*
X178823550Y-79052958D01*
X178819612Y-79019290D01*
X178814151Y-78995498D01*
X178806808Y-78977753D01*
X178797223Y-78962224D01*
X178793113Y-78956381D01*
X178738595Y-78901185D01*
X178669664Y-78869890D01*
X178589928Y-78861165D01*
X178520256Y-78869918D01*
G36*
X177403907Y-78877780D02*
X177357328Y-78904723D01*
X177324943Y-78931466D01*
X177301258Y-78959484D01*
X177284941Y-78993748D01*
X177274661Y-79039227D01*
X177269086Y-79100892D01*
X177266884Y-79183711D01*
X177266629Y-79243246D01*
X177266629Y-79462391D01*
X177328314Y-79490044D01*
X177390000Y-79517697D01*
X177397257Y-79277670D01*
X177400256Y-79188028D01*
X177403402Y-79122962D01*
X177407299Y-79078026D01*
X177412553Y-79048770D01*
X177419769Y-79030748D01*
X177429550Y-79019511D01*
X177432688Y-79017079D01*
X177480239Y-78998083D01*
X177528303Y-79005600D01*
X177556914Y-79025543D01*
X177568553Y-79039675D01*
X177576609Y-79058220D01*
X177581729Y-79086334D01*
X177584559Y-79129173D01*
X177585744Y-79191895D01*
X177585943Y-79257261D01*
X177585982Y-79339268D01*
X177587386Y-79397316D01*
X177592086Y-79436465D01*
X177602013Y-79461780D01*
X177619097Y-79478323D01*
X177645268Y-79491156D01*
X177680225Y-79504491D01*
X177718404Y-79519007D01*
X177713859Y-79261389D01*
X177712029Y-79168519D01*
X177709888Y-79099889D01*
X177706819Y-79050711D01*
X177702206Y-79016198D01*
X177695432Y-78991562D01*
X177685881Y-78972016D01*
X177674366Y-78954770D01*
X177618810Y-78899680D01*
X177551020Y-78867822D01*
X177477287Y-78860191D01*
X177403907Y-78877780D01*
X177403907Y-78877780D01*
G37*
X177403907Y-78877780D02*
X177357328Y-78904723D01*
X177324943Y-78931466D01*
X177301258Y-78959484D01*
X177284941Y-78993748D01*
X177274661Y-79039227D01*
X177269086Y-79100892D01*
X177266884Y-79183711D01*
X177266629Y-79243246D01*
X177266629Y-79462391D01*
X177328314Y-79490044D01*
X177390000Y-79517697D01*
X177397257Y-79277670D01*
X177400256Y-79188028D01*
X177403402Y-79122962D01*
X177407299Y-79078026D01*
X177412553Y-79048770D01*
X177419769Y-79030748D01*
X177429550Y-79019511D01*
X177432688Y-79017079D01*
X177480239Y-78998083D01*
X177528303Y-79005600D01*
X177556914Y-79025543D01*
X177568553Y-79039675D01*
X177576609Y-79058220D01*
X177581729Y-79086334D01*
X177584559Y-79129173D01*
X177585744Y-79191895D01*
X177585943Y-79257261D01*
X177585982Y-79339268D01*
X177587386Y-79397316D01*
X177592086Y-79436465D01*
X177602013Y-79461780D01*
X177619097Y-79478323D01*
X177645268Y-79491156D01*
X177680225Y-79504491D01*
X177718404Y-79519007D01*
X177713859Y-79261389D01*
X177712029Y-79168519D01*
X177709888Y-79099889D01*
X177706819Y-79050711D01*
X177702206Y-79016198D01*
X177695432Y-78991562D01*
X177685881Y-78972016D01*
X177674366Y-78954770D01*
X177618810Y-78899680D01*
X177551020Y-78867822D01*
X177477287Y-78860191D01*
X177403907Y-78877780D01*
G36*
X179078885Y-78871962D02*
X179010855Y-78907733D01*
X178960649Y-78965301D01*
X178942815Y-79002312D01*
X178928937Y-79057882D01*
X178921833Y-79128096D01*
X178921160Y-79204727D01*
X178926573Y-79279552D01*
X178937730Y-79344342D01*
X178954286Y-79390873D01*
X178959374Y-79398887D01*
X179019645Y-79458707D01*
X179091231Y-79494535D01*
X179168908Y-79505020D01*
X179247452Y-79488810D01*
X179269311Y-79479092D01*
X179311878Y-79449143D01*
X179349237Y-79409433D01*
X179352768Y-79404397D01*
X179367119Y-79380124D01*
X179376606Y-79354178D01*
X179382210Y-79320022D01*
X179384914Y-79271119D01*
X179385701Y-79200935D01*
X179385714Y-79185200D01*
X179385678Y-79180192D01*
X179240571Y-79180192D01*
X179239727Y-79246430D01*
X179236404Y-79290386D01*
X179229417Y-79318779D01*
X179217584Y-79338325D01*
X179211543Y-79344857D01*
X179176814Y-79369680D01*
X179143097Y-79368548D01*
X179109005Y-79347016D01*
X179088671Y-79324029D01*
X179076629Y-79290478D01*
X179069866Y-79237569D01*
X179069402Y-79231399D01*
X179068248Y-79135513D01*
X179080312Y-79064299D01*
X179105430Y-79018194D01*
X179143440Y-78997635D01*
X179157008Y-78996514D01*
X179192636Y-79002152D01*
X179217006Y-79021686D01*
X179231907Y-79059042D01*
X179239125Y-79118150D01*
X179240571Y-79180192D01*
X179385678Y-79180192D01*
X179385174Y-79110413D01*
X179382904Y-79058159D01*
X179377932Y-79021949D01*
X179369287Y-78995299D01*
X179355995Y-78971722D01*
X179353057Y-78967338D01*
X179303687Y-78908249D01*
X179249891Y-78873947D01*
X179184398Y-78860331D01*
X179162158Y-78859665D01*
X179078885Y-78871962D01*
X179078885Y-78871962D01*
G37*
X179078885Y-78871962D02*
X179010855Y-78907733D01*
X178960649Y-78965301D01*
X178942815Y-79002312D01*
X178928937Y-79057882D01*
X178921833Y-79128096D01*
X178921160Y-79204727D01*
X178926573Y-79279552D01*
X178937730Y-79344342D01*
X178954286Y-79390873D01*
X178959374Y-79398887D01*
X179019645Y-79458707D01*
X179091231Y-79494535D01*
X179168908Y-79505020D01*
X179247452Y-79488810D01*
X179269311Y-79479092D01*
X179311878Y-79449143D01*
X179349237Y-79409433D01*
X179352768Y-79404397D01*
X179367119Y-79380124D01*
X179376606Y-79354178D01*
X179382210Y-79320022D01*
X179384914Y-79271119D01*
X179385701Y-79200935D01*
X179385714Y-79185200D01*
X179385678Y-79180192D01*
X179240571Y-79180192D01*
X179239727Y-79246430D01*
X179236404Y-79290386D01*
X179229417Y-79318779D01*
X179217584Y-79338325D01*
X179211543Y-79344857D01*
X179176814Y-79369680D01*
X179143097Y-79368548D01*
X179109005Y-79347016D01*
X179088671Y-79324029D01*
X179076629Y-79290478D01*
X179069866Y-79237569D01*
X179069402Y-79231399D01*
X179068248Y-79135513D01*
X179080312Y-79064299D01*
X179105430Y-79018194D01*
X179143440Y-78997635D01*
X179157008Y-78996514D01*
X179192636Y-79002152D01*
X179217006Y-79021686D01*
X179231907Y-79059042D01*
X179239125Y-79118150D01*
X179240571Y-79180192D01*
X179385678Y-79180192D01*
X179385174Y-79110413D01*
X179382904Y-79058159D01*
X179377932Y-79021949D01*
X179369287Y-78995299D01*
X179355995Y-78971722D01*
X179353057Y-78967338D01*
X179303687Y-78908249D01*
X179249891Y-78873947D01*
X179184398Y-78860331D01*
X179162158Y-78859665D01*
X179078885Y-78871962D01*
G36*
X177951697Y-78881239D02*
X177894473Y-78919735D01*
X177850251Y-78975335D01*
X177823833Y-79046086D01*
X177818490Y-79098162D01*
X177819097Y-79119893D01*
X177824178Y-79136531D01*
X177838145Y-79151437D01*
X177865411Y-79167973D01*
X177910388Y-79189498D01*
X177977489Y-79219374D01*
X177977829Y-79219524D01*
X178039593Y-79247813D01*
X178090241Y-79272933D01*
X178124596Y-79292179D01*
X178137482Y-79302848D01*
X178137486Y-79302934D01*
X178126128Y-79326166D01*
X178099569Y-79351774D01*
X178069077Y-79370221D01*
X178053630Y-79373886D01*
X178011485Y-79361212D01*
X177975192Y-79329471D01*
X177957483Y-79294572D01*
X177940448Y-79268845D01*
X177907078Y-79239546D01*
X177867851Y-79214235D01*
X177833244Y-79200471D01*
X177826007Y-79199714D01*
X177817861Y-79212160D01*
X177817370Y-79243972D01*
X177823357Y-79286866D01*
X177834643Y-79332558D01*
X177850050Y-79372761D01*
X177850829Y-79374322D01*
X177897196Y-79439062D01*
X177957289Y-79483097D01*
X178025535Y-79504711D01*
X178096362Y-79502185D01*
X178164196Y-79473804D01*
X178167212Y-79471808D01*
X178220573Y-79423448D01*
X178255660Y-79360352D01*
X178275078Y-79277387D01*
X178277684Y-79254078D01*
X178282299Y-79144055D01*
X178276767Y-79092748D01*
X178137486Y-79092748D01*
X178135676Y-79124753D01*
X178125778Y-79134093D01*
X178101102Y-79127105D01*
X178062205Y-79110587D01*
X178018725Y-79089881D01*
X178017644Y-79089333D01*
X177980791Y-79069949D01*
X177966000Y-79057013D01*
X177969647Y-79043451D01*
X177985005Y-79025632D01*
X178024077Y-78999845D01*
X178066154Y-78997950D01*
X178103897Y-79016717D01*
X178129966Y-79052915D01*
X178137486Y-79092748D01*
X178276767Y-79092748D01*
X178272806Y-79056027D01*
X178248450Y-78986212D01*
X178214544Y-78937302D01*
X178153347Y-78887878D01*
X178085937Y-78863359D01*
X178017120Y-78861797D01*
X177951697Y-78881239D01*
X177951697Y-78881239D01*
G37*
X177951697Y-78881239D02*
X177894473Y-78919735D01*
X177850251Y-78975335D01*
X177823833Y-79046086D01*
X177818490Y-79098162D01*
X177819097Y-79119893D01*
X177824178Y-79136531D01*
X177838145Y-79151437D01*
X177865411Y-79167973D01*
X177910388Y-79189498D01*
X177977489Y-79219374D01*
X177977829Y-79219524D01*
X178039593Y-79247813D01*
X178090241Y-79272933D01*
X178124596Y-79292179D01*
X178137482Y-79302848D01*
X178137486Y-79302934D01*
X178126128Y-79326166D01*
X178099569Y-79351774D01*
X178069077Y-79370221D01*
X178053630Y-79373886D01*
X178011485Y-79361212D01*
X177975192Y-79329471D01*
X177957483Y-79294572D01*
X177940448Y-79268845D01*
X177907078Y-79239546D01*
X177867851Y-79214235D01*
X177833244Y-79200471D01*
X177826007Y-79199714D01*
X177817861Y-79212160D01*
X177817370Y-79243972D01*
X177823357Y-79286866D01*
X177834643Y-79332558D01*
X177850050Y-79372761D01*
X177850829Y-79374322D01*
X177897196Y-79439062D01*
X177957289Y-79483097D01*
X178025535Y-79504711D01*
X178096362Y-79502185D01*
X178164196Y-79473804D01*
X178167212Y-79471808D01*
X178220573Y-79423448D01*
X178255660Y-79360352D01*
X178275078Y-79277387D01*
X178277684Y-79254078D01*
X178282299Y-79144055D01*
X178276767Y-79092748D01*
X178137486Y-79092748D01*
X178135676Y-79124753D01*
X178125778Y-79134093D01*
X178101102Y-79127105D01*
X178062205Y-79110587D01*
X178018725Y-79089881D01*
X178017644Y-79089333D01*
X177980791Y-79069949D01*
X177966000Y-79057013D01*
X177969647Y-79043451D01*
X177985005Y-79025632D01*
X178024077Y-78999845D01*
X178066154Y-78997950D01*
X178103897Y-79016717D01*
X178129966Y-79052915D01*
X178137486Y-79092748D01*
X178276767Y-79092748D01*
X178272806Y-79056027D01*
X178248450Y-78986212D01*
X178214544Y-78937302D01*
X178153347Y-78887878D01*
X178085937Y-78863359D01*
X178017120Y-78861797D01*
X177951697Y-78881239D01*
G36*
X176744114Y-78801289D02*
X176739861Y-78860613D01*
X176734975Y-78895572D01*
X176728205Y-78910820D01*
X176718298Y-78911015D01*
X176715086Y-78909195D01*
X176672356Y-78896015D01*
X176616773Y-78896785D01*
X176560263Y-78910333D01*
X176524918Y-78927861D01*
X176488679Y-78955861D01*
X176462187Y-78987549D01*
X176444001Y-79027813D01*
X176432678Y-79081543D01*
X176426778Y-79153626D01*
X176424857Y-79248951D01*
X176424823Y-79267237D01*
X176424800Y-79472646D01*
X176470509Y-79488580D01*
X176502973Y-79499420D01*
X176520785Y-79504468D01*
X176521309Y-79504514D01*
X176523063Y-79490828D01*
X176524556Y-79453076D01*
X176525674Y-79396224D01*
X176526303Y-79325234D01*
X176526400Y-79282073D01*
X176526602Y-79196973D01*
X176527642Y-79135981D01*
X176530169Y-79094177D01*
X176534836Y-79066642D01*
X176542293Y-79048456D01*
X176553189Y-79034698D01*
X176559993Y-79028073D01*
X176606728Y-79001375D01*
X176657728Y-78999375D01*
X176703999Y-79021955D01*
X176712556Y-79030107D01*
X176725107Y-79045436D01*
X176733812Y-79063618D01*
X176739369Y-79089909D01*
X176742474Y-79129562D01*
X176743824Y-79187832D01*
X176744114Y-79268173D01*
X176744114Y-79472646D01*
X176789823Y-79488580D01*
X176822287Y-79499420D01*
X176840099Y-79504468D01*
X176840623Y-79504514D01*
X176841963Y-79490623D01*
X176843172Y-79451439D01*
X176844199Y-79390700D01*
X176844998Y-79312141D01*
X176845519Y-79219498D01*
X176845714Y-79116509D01*
X176845714Y-78719342D01*
X176798543Y-78699444D01*
X176751371Y-78679547D01*
X176744114Y-78801289D01*
X176744114Y-78801289D01*
G37*
X176744114Y-78801289D02*
X176739861Y-78860613D01*
X176734975Y-78895572D01*
X176728205Y-78910820D01*
X176718298Y-78911015D01*
X176715086Y-78909195D01*
X176672356Y-78896015D01*
X176616773Y-78896785D01*
X176560263Y-78910333D01*
X176524918Y-78927861D01*
X176488679Y-78955861D01*
X176462187Y-78987549D01*
X176444001Y-79027813D01*
X176432678Y-79081543D01*
X176426778Y-79153626D01*
X176424857Y-79248951D01*
X176424823Y-79267237D01*
X176424800Y-79472646D01*
X176470509Y-79488580D01*
X176502973Y-79499420D01*
X176520785Y-79504468D01*
X176521309Y-79504514D01*
X176523063Y-79490828D01*
X176524556Y-79453076D01*
X176525674Y-79396224D01*
X176526303Y-79325234D01*
X176526400Y-79282073D01*
X176526602Y-79196973D01*
X176527642Y-79135981D01*
X176530169Y-79094177D01*
X176534836Y-79066642D01*
X176542293Y-79048456D01*
X176553189Y-79034698D01*
X176559993Y-79028073D01*
X176606728Y-79001375D01*
X176657728Y-78999375D01*
X176703999Y-79021955D01*
X176712556Y-79030107D01*
X176725107Y-79045436D01*
X176733812Y-79063618D01*
X176739369Y-79089909D01*
X176742474Y-79129562D01*
X176743824Y-79187832D01*
X176744114Y-79268173D01*
X176744114Y-79472646D01*
X176789823Y-79488580D01*
X176822287Y-79499420D01*
X176840099Y-79504468D01*
X176840623Y-79504514D01*
X176841963Y-79490623D01*
X176843172Y-79451439D01*
X176844199Y-79390700D01*
X176844998Y-79312141D01*
X176845519Y-79219498D01*
X176845714Y-79116509D01*
X176845714Y-78719342D01*
X176798543Y-78699444D01*
X176751371Y-78679547D01*
X176744114Y-78801289D01*
G36*
X176080256Y-78900968D02*
X176023384Y-78922087D01*
X176022733Y-78922493D01*
X175987560Y-78948380D01*
X175961593Y-78978633D01*
X175943330Y-79018058D01*
X175931268Y-79071462D01*
X175923904Y-79143651D01*
X175919736Y-79239432D01*
X175919371Y-79253078D01*
X175914124Y-79458842D01*
X175958284Y-79481678D01*
X175990237Y-79497110D01*
X176009530Y-79504423D01*
X176010422Y-79504514D01*
X176013761Y-79491022D01*
X176016413Y-79454626D01*
X176018044Y-79401452D01*
X176018400Y-79358393D01*
X176018408Y-79288641D01*
X176021597Y-79244837D01*
X176032712Y-79223944D01*
X176056499Y-79222925D01*
X176097704Y-79238741D01*
X176159914Y-79267815D01*
X176205659Y-79291963D01*
X176229187Y-79312913D01*
X176236104Y-79335747D01*
X176236114Y-79336877D01*
X176224701Y-79376212D01*
X176190908Y-79397462D01*
X176139191Y-79400539D01*
X176101939Y-79400006D01*
X176082297Y-79410735D01*
X176070048Y-79436505D01*
X176062998Y-79469337D01*
X176073158Y-79487966D01*
X176076983Y-79490632D01*
X176112999Y-79501340D01*
X176163434Y-79502856D01*
X176215374Y-79495759D01*
X176252178Y-79482788D01*
X176303062Y-79439585D01*
X176331986Y-79379446D01*
X176337714Y-79332462D01*
X176333343Y-79290082D01*
X176317525Y-79255488D01*
X176286203Y-79224763D01*
X176235322Y-79193990D01*
X176160824Y-79159252D01*
X176156286Y-79157288D01*
X176089179Y-79126287D01*
X176047768Y-79100862D01*
X176030019Y-79078014D01*
X176033893Y-79054745D01*
X176057357Y-79028056D01*
X176064373Y-79021914D01*
X176111370Y-78998100D01*
X176160067Y-78999103D01*
X176202478Y-79022451D01*
X176230616Y-79065675D01*
X176233231Y-79074160D01*
X176258692Y-79115308D01*
X176290999Y-79135128D01*
X176337714Y-79154770D01*
X176337714Y-79103950D01*
X176323504Y-79030082D01*
X176281325Y-78962327D01*
X176259376Y-78939661D01*
X176209483Y-78910569D01*
X176146033Y-78897400D01*
X176080256Y-78900968D01*
X176080256Y-78900968D01*
G37*
X176080256Y-78900968D02*
X176023384Y-78922087D01*
X176022733Y-78922493D01*
X175987560Y-78948380D01*
X175961593Y-78978633D01*
X175943330Y-79018058D01*
X175931268Y-79071462D01*
X175923904Y-79143651D01*
X175919736Y-79239432D01*
X175919371Y-79253078D01*
X175914124Y-79458842D01*
X175958284Y-79481678D01*
X175990237Y-79497110D01*
X176009530Y-79504423D01*
X176010422Y-79504514D01*
X176013761Y-79491022D01*
X176016413Y-79454626D01*
X176018044Y-79401452D01*
X176018400Y-79358393D01*
X176018408Y-79288641D01*
X176021597Y-79244837D01*
X176032712Y-79223944D01*
X176056499Y-79222925D01*
X176097704Y-79238741D01*
X176159914Y-79267815D01*
X176205659Y-79291963D01*
X176229187Y-79312913D01*
X176236104Y-79335747D01*
X176236114Y-79336877D01*
X176224701Y-79376212D01*
X176190908Y-79397462D01*
X176139191Y-79400539D01*
X176101939Y-79400006D01*
X176082297Y-79410735D01*
X176070048Y-79436505D01*
X176062998Y-79469337D01*
X176073158Y-79487966D01*
X176076983Y-79490632D01*
X176112999Y-79501340D01*
X176163434Y-79502856D01*
X176215374Y-79495759D01*
X176252178Y-79482788D01*
X176303062Y-79439585D01*
X176331986Y-79379446D01*
X176337714Y-79332462D01*
X176333343Y-79290082D01*
X176317525Y-79255488D01*
X176286203Y-79224763D01*
X176235322Y-79193990D01*
X176160824Y-79159252D01*
X176156286Y-79157288D01*
X176089179Y-79126287D01*
X176047768Y-79100862D01*
X176030019Y-79078014D01*
X176033893Y-79054745D01*
X176057357Y-79028056D01*
X176064373Y-79021914D01*
X176111370Y-78998100D01*
X176160067Y-78999103D01*
X176202478Y-79022451D01*
X176230616Y-79065675D01*
X176233231Y-79074160D01*
X176258692Y-79115308D01*
X176290999Y-79135128D01*
X176337714Y-79154770D01*
X176337714Y-79103950D01*
X176323504Y-79030082D01*
X176281325Y-78962327D01*
X176259376Y-78939661D01*
X176209483Y-78910569D01*
X176146033Y-78897400D01*
X176080256Y-78900968D01*
G36*
X175590074Y-78899755D02*
X175524142Y-78924084D01*
X175470727Y-78967117D01*
X175449836Y-78997409D01*
X175427061Y-79052994D01*
X175427534Y-79093186D01*
X175451438Y-79120217D01*
X175460283Y-79124813D01*
X175498470Y-79139144D01*
X175517972Y-79135472D01*
X175524578Y-79111407D01*
X175524914Y-79098114D01*
X175537008Y-79049210D01*
X175568529Y-79014999D01*
X175612341Y-78998476D01*
X175661305Y-79002634D01*
X175701106Y-79024227D01*
X175714550Y-79036544D01*
X175724079Y-79051487D01*
X175730515Y-79074075D01*
X175734683Y-79109328D01*
X175737403Y-79162266D01*
X175739498Y-79237907D01*
X175740040Y-79261857D01*
X175742019Y-79343790D01*
X175744269Y-79401455D01*
X175747643Y-79439608D01*
X175752994Y-79463004D01*
X175761176Y-79476398D01*
X175773041Y-79484545D01*
X175780638Y-79488144D01*
X175812898Y-79500452D01*
X175831889Y-79504514D01*
X175838164Y-79490948D01*
X175841994Y-79449934D01*
X175843400Y-79380999D01*
X175842402Y-79283669D01*
X175842092Y-79268657D01*
X175839899Y-79179859D01*
X175837307Y-79115019D01*
X175833618Y-79069067D01*
X175828136Y-79036935D01*
X175820165Y-79013553D01*
X175809007Y-78993852D01*
X175803170Y-78985410D01*
X175769704Y-78948057D01*
X175732273Y-78919003D01*
X175727691Y-78916467D01*
X175660574Y-78896443D01*
X175590074Y-78899755D01*
X175590074Y-78899755D01*
G37*
X175590074Y-78899755D02*
X175524142Y-78924084D01*
X175470727Y-78967117D01*
X175449836Y-78997409D01*
X175427061Y-79052994D01*
X175427534Y-79093186D01*
X175451438Y-79120217D01*
X175460283Y-79124813D01*
X175498470Y-79139144D01*
X175517972Y-79135472D01*
X175524578Y-79111407D01*
X175524914Y-79098114D01*
X175537008Y-79049210D01*
X175568529Y-79014999D01*
X175612341Y-78998476D01*
X175661305Y-79002634D01*
X175701106Y-79024227D01*
X175714550Y-79036544D01*
X175724079Y-79051487D01*
X175730515Y-79074075D01*
X175734683Y-79109328D01*
X175737403Y-79162266D01*
X175739498Y-79237907D01*
X175740040Y-79261857D01*
X175742019Y-79343790D01*
X175744269Y-79401455D01*
X175747643Y-79439608D01*
X175752994Y-79463004D01*
X175761176Y-79476398D01*
X175773041Y-79484545D01*
X175780638Y-79488144D01*
X175812898Y-79500452D01*
X175831889Y-79504514D01*
X175838164Y-79490948D01*
X175841994Y-79449934D01*
X175843400Y-79380999D01*
X175842402Y-79283669D01*
X175842092Y-79268657D01*
X175839899Y-79179859D01*
X175837307Y-79115019D01*
X175833618Y-79069067D01*
X175828136Y-79036935D01*
X175820165Y-79013553D01*
X175809007Y-78993852D01*
X175803170Y-78985410D01*
X175769704Y-78948057D01*
X175732273Y-78919003D01*
X175727691Y-78916467D01*
X175660574Y-78896443D01*
X175590074Y-78899755D01*
G36*
X174929883Y-79015358D02*
X174930067Y-79123837D01*
X174930781Y-79207287D01*
X174932325Y-79269704D01*
X174934999Y-79315085D01*
X174939106Y-79347429D01*
X174944945Y-79370733D01*
X174952818Y-79388995D01*
X174958779Y-79399418D01*
X175008145Y-79455945D01*
X175070736Y-79491377D01*
X175139987Y-79504090D01*
X175209332Y-79492463D01*
X175250625Y-79471568D01*
X175293975Y-79435422D01*
X175323519Y-79391276D01*
X175341345Y-79333462D01*
X175349537Y-79256313D01*
X175350698Y-79199714D01*
X175350542Y-79195647D01*
X175249143Y-79195647D01*
X175248524Y-79260550D01*
X175245686Y-79303514D01*
X175239160Y-79331622D01*
X175227477Y-79351953D01*
X175213517Y-79367288D01*
X175166635Y-79396890D01*
X175116299Y-79399419D01*
X175068724Y-79374705D01*
X175065021Y-79371356D01*
X175049217Y-79353935D01*
X175039307Y-79333209D01*
X175033942Y-79302362D01*
X175031772Y-79254577D01*
X175031429Y-79201748D01*
X175032173Y-79135381D01*
X175035252Y-79091106D01*
X175041939Y-79062009D01*
X175053504Y-79041173D01*
X175062987Y-79030107D01*
X175107040Y-79002198D01*
X175157776Y-78998843D01*
X175206204Y-79020159D01*
X175215550Y-79028073D01*
X175231460Y-79045647D01*
X175241390Y-79066587D01*
X175246722Y-79097782D01*
X175248837Y-79146122D01*
X175249143Y-79195647D01*
X175350542Y-79195647D01*
X175347190Y-79108568D01*
X175335274Y-79040086D01*
X175312865Y-78988600D01*
X175277876Y-78948443D01*
X175250625Y-78927861D01*
X175201093Y-78905625D01*
X175143684Y-78895304D01*
X175090318Y-78898067D01*
X175060457Y-78909212D01*
X175048739Y-78912383D01*
X175040963Y-78900557D01*
X175035535Y-78868866D01*
X175031429Y-78820593D01*
X175026933Y-78766829D01*
X175020687Y-78734482D01*
X175009324Y-78715985D01*
X174989472Y-78703770D01*
X174977000Y-78698362D01*
X174929829Y-78678601D01*
X174929883Y-79015358D01*
X174929883Y-79015358D01*
G37*
X174929883Y-79015358D02*
X174930067Y-79123837D01*
X174930781Y-79207287D01*
X174932325Y-79269704D01*
X174934999Y-79315085D01*
X174939106Y-79347429D01*
X174944945Y-79370733D01*
X174952818Y-79388995D01*
X174958779Y-79399418D01*
X175008145Y-79455945D01*
X175070736Y-79491377D01*
X175139987Y-79504090D01*
X175209332Y-79492463D01*
X175250625Y-79471568D01*
X175293975Y-79435422D01*
X175323519Y-79391276D01*
X175341345Y-79333462D01*
X175349537Y-79256313D01*
X175350698Y-79199714D01*
X175350542Y-79195647D01*
X175249143Y-79195647D01*
X175248524Y-79260550D01*
X175245686Y-79303514D01*
X175239160Y-79331622D01*
X175227477Y-79351953D01*
X175213517Y-79367288D01*
X175166635Y-79396890D01*
X175116299Y-79399419D01*
X175068724Y-79374705D01*
X175065021Y-79371356D01*
X175049217Y-79353935D01*
X175039307Y-79333209D01*
X175033942Y-79302362D01*
X175031772Y-79254577D01*
X175031429Y-79201748D01*
X175032173Y-79135381D01*
X175035252Y-79091106D01*
X175041939Y-79062009D01*
X175053504Y-79041173D01*
X175062987Y-79030107D01*
X175107040Y-79002198D01*
X175157776Y-78998843D01*
X175206204Y-79020159D01*
X175215550Y-79028073D01*
X175231460Y-79045647D01*
X175241390Y-79066587D01*
X175246722Y-79097782D01*
X175248837Y-79146122D01*
X175249143Y-79195647D01*
X175350542Y-79195647D01*
X175347190Y-79108568D01*
X175335274Y-79040086D01*
X175312865Y-78988600D01*
X175277876Y-78948443D01*
X175250625Y-78927861D01*
X175201093Y-78905625D01*
X175143684Y-78895304D01*
X175090318Y-78898067D01*
X175060457Y-78909212D01*
X175048739Y-78912383D01*
X175040963Y-78900557D01*
X175035535Y-78868866D01*
X175031429Y-78820593D01*
X175026933Y-78766829D01*
X175020687Y-78734482D01*
X175009324Y-78715985D01*
X174989472Y-78703770D01*
X174977000Y-78698362D01*
X174929829Y-78678601D01*
X174929883Y-79015358D01*
G36*
X174340167Y-78908663D02*
X174337952Y-78946850D01*
X174336216Y-79004886D01*
X174335101Y-79078180D01*
X174334743Y-79155055D01*
X174334743Y-79415196D01*
X174380674Y-79461127D01*
X174412325Y-79489429D01*
X174440110Y-79500893D01*
X174478085Y-79500168D01*
X174493160Y-79498321D01*
X174540274Y-79492948D01*
X174579244Y-79489869D01*
X174588743Y-79489585D01*
X174620767Y-79491445D01*
X174666568Y-79496114D01*
X174684326Y-79498321D01*
X174727943Y-79501735D01*
X174757255Y-79494320D01*
X174786320Y-79471427D01*
X174796812Y-79461127D01*
X174842743Y-79415196D01*
X174842743Y-78928602D01*
X174805774Y-78911758D01*
X174773941Y-78899282D01*
X174755317Y-78894914D01*
X174750542Y-78908718D01*
X174746079Y-78947286D01*
X174742225Y-79006356D01*
X174739278Y-79081663D01*
X174737857Y-79145286D01*
X174733886Y-79395657D01*
X174699241Y-79400556D01*
X174667732Y-79397131D01*
X174652292Y-79386041D01*
X174647977Y-79365308D01*
X174644292Y-79321145D01*
X174641531Y-79259146D01*
X174639988Y-79184909D01*
X174639765Y-79146706D01*
X174639543Y-78926783D01*
X174593834Y-78910849D01*
X174561482Y-78900015D01*
X174543885Y-78894962D01*
X174543377Y-78894914D01*
X174541612Y-78908648D01*
X174539671Y-78946730D01*
X174537718Y-79004482D01*
X174535916Y-79077227D01*
X174534657Y-79145286D01*
X174530686Y-79395657D01*
X174443600Y-79395657D01*
X174439604Y-79167240D01*
X174435608Y-78938822D01*
X174393153Y-78916868D01*
X174361808Y-78901793D01*
X174343256Y-78894951D01*
X174342721Y-78894914D01*
X174340167Y-78908663D01*
X174340167Y-78908663D01*
G37*
X174340167Y-78908663D02*
X174337952Y-78946850D01*
X174336216Y-79004886D01*
X174335101Y-79078180D01*
X174334743Y-79155055D01*
X174334743Y-79415196D01*
X174380674Y-79461127D01*
X174412325Y-79489429D01*
X174440110Y-79500893D01*
X174478085Y-79500168D01*
X174493160Y-79498321D01*
X174540274Y-79492948D01*
X174579244Y-79489869D01*
X174588743Y-79489585D01*
X174620767Y-79491445D01*
X174666568Y-79496114D01*
X174684326Y-79498321D01*
X174727943Y-79501735D01*
X174757255Y-79494320D01*
X174786320Y-79471427D01*
X174796812Y-79461127D01*
X174842743Y-79415196D01*
X174842743Y-78928602D01*
X174805774Y-78911758D01*
X174773941Y-78899282D01*
X174755317Y-78894914D01*
X174750542Y-78908718D01*
X174746079Y-78947286D01*
X174742225Y-79006356D01*
X174739278Y-79081663D01*
X174737857Y-79145286D01*
X174733886Y-79395657D01*
X174699241Y-79400556D01*
X174667732Y-79397131D01*
X174652292Y-79386041D01*
X174647977Y-79365308D01*
X174644292Y-79321145D01*
X174641531Y-79259146D01*
X174639988Y-79184909D01*
X174639765Y-79146706D01*
X174639543Y-78926783D01*
X174593834Y-78910849D01*
X174561482Y-78900015D01*
X174543885Y-78894962D01*
X174543377Y-78894914D01*
X174541612Y-78908648D01*
X174539671Y-78946730D01*
X174537718Y-79004482D01*
X174535916Y-79077227D01*
X174534657Y-79145286D01*
X174530686Y-79395657D01*
X174443600Y-79395657D01*
X174439604Y-79167240D01*
X174435608Y-78938822D01*
X174393153Y-78916868D01*
X174361808Y-78901793D01*
X174343256Y-78894951D01*
X174342721Y-78894914D01*
X174340167Y-78908663D01*
G36*
X173975124Y-78906335D02*
X173933333Y-78925344D01*
X173900531Y-78948378D01*
X173876497Y-78974133D01*
X173859903Y-79007358D01*
X173849423Y-79052800D01*
X173843729Y-79115207D01*
X173841493Y-79199327D01*
X173841257Y-79254721D01*
X173841257Y-79470826D01*
X173878226Y-79487670D01*
X173907344Y-79499981D01*
X173921769Y-79504514D01*
X173924528Y-79491025D01*
X173926718Y-79454653D01*
X173928058Y-79401542D01*
X173928343Y-79359372D01*
X173929566Y-79298447D01*
X173932864Y-79250115D01*
X173937679Y-79220518D01*
X173941504Y-79214229D01*
X173967217Y-79220652D01*
X174007582Y-79237125D01*
X174054321Y-79259458D01*
X174099155Y-79283457D01*
X174133807Y-79304930D01*
X174149998Y-79319685D01*
X174150062Y-79319845D01*
X174148670Y-79347152D01*
X174136182Y-79373219D01*
X174114257Y-79394392D01*
X174082257Y-79401474D01*
X174054908Y-79400649D01*
X174016174Y-79400042D01*
X173995842Y-79409116D01*
X173983631Y-79433092D01*
X173982091Y-79437613D01*
X173976797Y-79471806D01*
X173990953Y-79492568D01*
X174027852Y-79502462D01*
X174067711Y-79504292D01*
X174139438Y-79490727D01*
X174176568Y-79471355D01*
X174222424Y-79425845D01*
X174246744Y-79369983D01*
X174248927Y-79310957D01*
X174228371Y-79255953D01*
X174197451Y-79221486D01*
X174166580Y-79202189D01*
X174118058Y-79177759D01*
X174061515Y-79152985D01*
X174052090Y-79149199D01*
X173989981Y-79121791D01*
X173954178Y-79097634D01*
X173942663Y-79073619D01*
X173953420Y-79046635D01*
X173971886Y-79025543D01*
X174015531Y-78999572D01*
X174063554Y-78997624D01*
X174107594Y-79017637D01*
X174139291Y-79057551D01*
X174143451Y-79067848D01*
X174167673Y-79105724D01*
X174203035Y-79133842D01*
X174247657Y-79156917D01*
X174247657Y-79091485D01*
X174245031Y-79051506D01*
X174233770Y-79019997D01*
X174208801Y-78986378D01*
X174184831Y-78960484D01*
X174147559Y-78923817D01*
X174118599Y-78904121D01*
X174087495Y-78896220D01*
X174052287Y-78894914D01*
X173975124Y-78906335D01*
X173975124Y-78906335D01*
G37*
X173975124Y-78906335D02*
X173933333Y-78925344D01*
X173900531Y-78948378D01*
X173876497Y-78974133D01*
X173859903Y-79007358D01*
X173849423Y-79052800D01*
X173843729Y-79115207D01*
X173841493Y-79199327D01*
X173841257Y-79254721D01*
X173841257Y-79470826D01*
X173878226Y-79487670D01*
X173907344Y-79499981D01*
X173921769Y-79504514D01*
X173924528Y-79491025D01*
X173926718Y-79454653D01*
X173928058Y-79401542D01*
X173928343Y-79359372D01*
X173929566Y-79298447D01*
X173932864Y-79250115D01*
X173937679Y-79220518D01*
X173941504Y-79214229D01*
X173967217Y-79220652D01*
X174007582Y-79237125D01*
X174054321Y-79259458D01*
X174099155Y-79283457D01*
X174133807Y-79304930D01*
X174149998Y-79319685D01*
X174150062Y-79319845D01*
X174148670Y-79347152D01*
X174136182Y-79373219D01*
X174114257Y-79394392D01*
X174082257Y-79401474D01*
X174054908Y-79400649D01*
X174016174Y-79400042D01*
X173995842Y-79409116D01*
X173983631Y-79433092D01*
X173982091Y-79437613D01*
X173976797Y-79471806D01*
X173990953Y-79492568D01*
X174027852Y-79502462D01*
X174067711Y-79504292D01*
X174139438Y-79490727D01*
X174176568Y-79471355D01*
X174222424Y-79425845D01*
X174246744Y-79369983D01*
X174248927Y-79310957D01*
X174228371Y-79255953D01*
X174197451Y-79221486D01*
X174166580Y-79202189D01*
X174118058Y-79177759D01*
X174061515Y-79152985D01*
X174052090Y-79149199D01*
X173989981Y-79121791D01*
X173954178Y-79097634D01*
X173942663Y-79073619D01*
X173953420Y-79046635D01*
X173971886Y-79025543D01*
X174015531Y-78999572D01*
X174063554Y-78997624D01*
X174107594Y-79017637D01*
X174139291Y-79057551D01*
X174143451Y-79067848D01*
X174167673Y-79105724D01*
X174203035Y-79133842D01*
X174247657Y-79156917D01*
X174247657Y-79091485D01*
X174245031Y-79051506D01*
X174233770Y-79019997D01*
X174208801Y-78986378D01*
X174184831Y-78960484D01*
X174147559Y-78923817D01*
X174118599Y-78904121D01*
X174087495Y-78896220D01*
X174052287Y-78894914D01*
X173975124Y-78906335D01*
G36*
X173467400Y-78908752D02*
X173450052Y-78916334D01*
X173408644Y-78949128D01*
X173373235Y-78996547D01*
X173351336Y-79047151D01*
X173347771Y-79072098D01*
X173359721Y-79106927D01*
X173385933Y-79125357D01*
X173414036Y-79136516D01*
X173426905Y-79138572D01*
X173433171Y-79123649D01*
X173445544Y-79091175D01*
X173450972Y-79076502D01*
X173481410Y-79025744D01*
X173525480Y-79000427D01*
X173581990Y-79001206D01*
X173586175Y-79002203D01*
X173616345Y-79016507D01*
X173638524Y-79044393D01*
X173653673Y-79089287D01*
X173662750Y-79154615D01*
X173666714Y-79243804D01*
X173667086Y-79291261D01*
X173667270Y-79366071D01*
X173668478Y-79417069D01*
X173671691Y-79449471D01*
X173677891Y-79468495D01*
X173688060Y-79479356D01*
X173703181Y-79487272D01*
X173704054Y-79487670D01*
X173733172Y-79499981D01*
X173747597Y-79504514D01*
X173749814Y-79490809D01*
X173751711Y-79452925D01*
X173753153Y-79395715D01*
X173754002Y-79324027D01*
X173754171Y-79271565D01*
X173753308Y-79170047D01*
X173749930Y-79093032D01*
X173742858Y-79036023D01*
X173730912Y-78994526D01*
X173712910Y-78964043D01*
X173687673Y-78940080D01*
X173662753Y-78923355D01*
X173602829Y-78901097D01*
X173533089Y-78896076D01*
X173467400Y-78908752D01*
X173467400Y-78908752D01*
G37*
X173467400Y-78908752D02*
X173450052Y-78916334D01*
X173408644Y-78949128D01*
X173373235Y-78996547D01*
X173351336Y-79047151D01*
X173347771Y-79072098D01*
X173359721Y-79106927D01*
X173385933Y-79125357D01*
X173414036Y-79136516D01*
X173426905Y-79138572D01*
X173433171Y-79123649D01*
X173445544Y-79091175D01*
X173450972Y-79076502D01*
X173481410Y-79025744D01*
X173525480Y-79000427D01*
X173581990Y-79001206D01*
X173586175Y-79002203D01*
X173616345Y-79016507D01*
X173638524Y-79044393D01*
X173653673Y-79089287D01*
X173662750Y-79154615D01*
X173666714Y-79243804D01*
X173667086Y-79291261D01*
X173667270Y-79366071D01*
X173668478Y-79417069D01*
X173671691Y-79449471D01*
X173677891Y-79468495D01*
X173688060Y-79479356D01*
X173703181Y-79487272D01*
X173704054Y-79487670D01*
X173733172Y-79499981D01*
X173747597Y-79504514D01*
X173749814Y-79490809D01*
X173751711Y-79452925D01*
X173753153Y-79395715D01*
X173754002Y-79324027D01*
X173754171Y-79271565D01*
X173753308Y-79170047D01*
X173749930Y-79093032D01*
X173742858Y-79036023D01*
X173730912Y-78994526D01*
X173712910Y-78964043D01*
X173687673Y-78940080D01*
X173662753Y-78923355D01*
X173602829Y-78901097D01*
X173533089Y-78896076D01*
X173467400Y-78908752D01*
G36*
X172966405Y-78916966D02*
X172908979Y-78954497D01*
X172881281Y-78988096D01*
X172859338Y-79049064D01*
X172857595Y-79097308D01*
X172861543Y-79161816D01*
X173010314Y-79226934D01*
X173082651Y-79260202D01*
X173129916Y-79286964D01*
X173154493Y-79310144D01*
X173158763Y-79332667D01*
X173145111Y-79357455D01*
X173130057Y-79373886D01*
X173086254Y-79400235D01*
X173038611Y-79402081D01*
X172994855Y-79381546D01*
X172962711Y-79340752D01*
X172956962Y-79326347D01*
X172929424Y-79281356D01*
X172897742Y-79262182D01*
X172854286Y-79245779D01*
X172854286Y-79307966D01*
X172858128Y-79350283D01*
X172873177Y-79385969D01*
X172904720Y-79426943D01*
X172909408Y-79432267D01*
X172944494Y-79468720D01*
X172974653Y-79488283D01*
X173012385Y-79497283D01*
X173043665Y-79500230D01*
X173099615Y-79500965D01*
X173139445Y-79491660D01*
X173164292Y-79477846D01*
X173203344Y-79447467D01*
X173230375Y-79414613D01*
X173247483Y-79373294D01*
X173256762Y-79317521D01*
X173260307Y-79241305D01*
X173260590Y-79202622D01*
X173259628Y-79156247D01*
X173171993Y-79156247D01*
X173170977Y-79181126D01*
X173168444Y-79185200D01*
X173151726Y-79179665D01*
X173115751Y-79165017D01*
X173067669Y-79144190D01*
X173057614Y-79139714D01*
X172996848Y-79108814D01*
X172963368Y-79081657D01*
X172956010Y-79056220D01*
X172973609Y-79030481D01*
X172988144Y-79019109D01*
X173040590Y-78996364D01*
X173089678Y-79000122D01*
X173130773Y-79027884D01*
X173159242Y-79077152D01*
X173168369Y-79116257D01*
X173171993Y-79156247D01*
X173259628Y-79156247D01*
X173258715Y-79112249D01*
X173251804Y-79045384D01*
X173238116Y-78996695D01*
X173215904Y-78960849D01*
X173183426Y-78932513D01*
X173169267Y-78923355D01*
X173104947Y-78899507D01*
X173034527Y-78898006D01*
X172966405Y-78916966D01*
X172966405Y-78916966D01*
G37*
X172966405Y-78916966D02*
X172908979Y-78954497D01*
X172881281Y-78988096D01*
X172859338Y-79049064D01*
X172857595Y-79097308D01*
X172861543Y-79161816D01*
X173010314Y-79226934D01*
X173082651Y-79260202D01*
X173129916Y-79286964D01*
X173154493Y-79310144D01*
X173158763Y-79332667D01*
X173145111Y-79357455D01*
X173130057Y-79373886D01*
X173086254Y-79400235D01*
X173038611Y-79402081D01*
X172994855Y-79381546D01*
X172962711Y-79340752D01*
X172956962Y-79326347D01*
X172929424Y-79281356D01*
X172897742Y-79262182D01*
X172854286Y-79245779D01*
X172854286Y-79307966D01*
X172858128Y-79350283D01*
X172873177Y-79385969D01*
X172904720Y-79426943D01*
X172909408Y-79432267D01*
X172944494Y-79468720D01*
X172974653Y-79488283D01*
X173012385Y-79497283D01*
X173043665Y-79500230D01*
X173099615Y-79500965D01*
X173139445Y-79491660D01*
X173164292Y-79477846D01*
X173203344Y-79447467D01*
X173230375Y-79414613D01*
X173247483Y-79373294D01*
X173256762Y-79317521D01*
X173260307Y-79241305D01*
X173260590Y-79202622D01*
X173259628Y-79156247D01*
X173171993Y-79156247D01*
X173170977Y-79181126D01*
X173168444Y-79185200D01*
X173151726Y-79179665D01*
X173115751Y-79165017D01*
X173067669Y-79144190D01*
X173057614Y-79139714D01*
X172996848Y-79108814D01*
X172963368Y-79081657D01*
X172956010Y-79056220D01*
X172973609Y-79030481D01*
X172988144Y-79019109D01*
X173040590Y-78996364D01*
X173089678Y-79000122D01*
X173130773Y-79027884D01*
X173159242Y-79077152D01*
X173168369Y-79116257D01*
X173171993Y-79156247D01*
X173259628Y-79156247D01*
X173258715Y-79112249D01*
X173251804Y-79045384D01*
X173238116Y-78996695D01*
X173215904Y-78960849D01*
X173183426Y-78932513D01*
X173169267Y-78923355D01*
X173104947Y-78899507D01*
X173034527Y-78898006D01*
X172966405Y-78916966D01*
G36*
X176016090Y-74192348D02*
X175937546Y-74192778D01*
X175880702Y-74193942D01*
X175841895Y-74196207D01*
X175817462Y-74199940D01*
X175803738Y-74205506D01*
X175797060Y-74213273D01*
X175793764Y-74223605D01*
X175793444Y-74224943D01*
X175788438Y-74249079D01*
X175779171Y-74296701D01*
X175766608Y-74362741D01*
X175751713Y-74442128D01*
X175735449Y-74529796D01*
X175734881Y-74532875D01*
X175718590Y-74618789D01*
X175703348Y-74694696D01*
X175690139Y-74756045D01*
X175679946Y-74798282D01*
X175673752Y-74816855D01*
X175673457Y-74817184D01*
X175655212Y-74826253D01*
X175617595Y-74841367D01*
X175568729Y-74859262D01*
X175568457Y-74859358D01*
X175506907Y-74882493D01*
X175434343Y-74911965D01*
X175365943Y-74941597D01*
X175362706Y-74943062D01*
X175251298Y-74993626D01*
X175004601Y-74825160D01*
X174928923Y-74773803D01*
X174860369Y-74727889D01*
X174802912Y-74690030D01*
X174760524Y-74662837D01*
X174737175Y-74648921D01*
X174734958Y-74647889D01*
X174717990Y-74652484D01*
X174686299Y-74674655D01*
X174638648Y-74715447D01*
X174573802Y-74775905D01*
X174507603Y-74840227D01*
X174443786Y-74903612D01*
X174386671Y-74961451D01*
X174339695Y-75010175D01*
X174306297Y-75046210D01*
X174289915Y-75065984D01*
X174289306Y-75067002D01*
X174287495Y-75080572D01*
X174294317Y-75102733D01*
X174311460Y-75136478D01*
X174340607Y-75184800D01*
X174383445Y-75250692D01*
X174440552Y-75335517D01*
X174491234Y-75410177D01*
X174536539Y-75477140D01*
X174573850Y-75532516D01*
X174600548Y-75572420D01*
X174614015Y-75592962D01*
X174614863Y-75594356D01*
X174613219Y-75614038D01*
X174600755Y-75652293D01*
X174579952Y-75701889D01*
X174572538Y-75717728D01*
X174540186Y-75788290D01*
X174505672Y-75868353D01*
X174477635Y-75937629D01*
X174457432Y-75989045D01*
X174441385Y-76028119D01*
X174432112Y-76048541D01*
X174430959Y-76050114D01*
X174413904Y-76052721D01*
X174373702Y-76059863D01*
X174315698Y-76070523D01*
X174245237Y-76083685D01*
X174167665Y-76098333D01*
X174088328Y-76113449D01*
X174012569Y-76128018D01*
X173945736Y-76141022D01*
X173893172Y-76151445D01*
X173860224Y-76158270D01*
X173852143Y-76160199D01*
X173843795Y-76164962D01*
X173837494Y-76175718D01*
X173832955Y-76196098D01*
X173829896Y-76229734D01*
X173828033Y-76280255D01*
X173827082Y-76351292D01*
X173826760Y-76446476D01*
X173826743Y-76485492D01*
X173826743Y-76802799D01*
X173902943Y-76817839D01*
X173945337Y-76825995D01*
X174008600Y-76837899D01*
X174085038Y-76852116D01*
X174166957Y-76867210D01*
X174189600Y-76871355D01*
X174265194Y-76886053D01*
X174331047Y-76900505D01*
X174381634Y-76913375D01*
X174411426Y-76923322D01*
X174416388Y-76926287D01*
X174428574Y-76947283D01*
X174446047Y-76987967D01*
X174465423Y-77040322D01*
X174469266Y-77051600D01*
X174494661Y-77121523D01*
X174526183Y-77200418D01*
X174557031Y-77271266D01*
X174557183Y-77271595D01*
X174608553Y-77382733D01*
X174439601Y-77631253D01*
X174270648Y-77879772D01*
X174487571Y-78097058D01*
X174553181Y-78161726D01*
X174613021Y-78218733D01*
X174663733Y-78265033D01*
X174701954Y-78297584D01*
X174724325Y-78313343D01*
X174727534Y-78314343D01*
X174746374Y-78306469D01*
X174784820Y-78284578D01*
X174838670Y-78251267D01*
X174903724Y-78209131D01*
X174974060Y-78161943D01*
X175045445Y-78113810D01*
X175109092Y-78071928D01*
X175160959Y-78038871D01*
X175197005Y-78017218D01*
X175213133Y-78009543D01*
X175232811Y-78016037D01*
X175270125Y-78033150D01*
X175317379Y-78057326D01*
X175322388Y-78060013D01*
X175386023Y-78091927D01*
X175429659Y-78107579D01*
X175456798Y-78107745D01*
X175470943Y-78093204D01*
X175471025Y-78093000D01*
X175478095Y-78075779D01*
X175494958Y-78034899D01*
X175520305Y-77973525D01*
X175552829Y-77894819D01*
X175591222Y-77801947D01*
X175634178Y-77698072D01*
X175675778Y-77597502D01*
X175721496Y-77486516D01*
X175763474Y-77383703D01*
X175800452Y-77292215D01*
X175831173Y-77215201D01*
X175854378Y-77155815D01*
X175868810Y-77117209D01*
X175873257Y-77102800D01*
X175862104Y-77086272D01*
X175832931Y-77059930D01*
X175794029Y-77030887D01*
X175683243Y-76939039D01*
X175596649Y-76833759D01*
X175535284Y-76717266D01*
X175500185Y-76591776D01*
X175492392Y-76459507D01*
X175498057Y-76398457D01*
X175528922Y-76271795D01*
X175582080Y-76159941D01*
X175654233Y-76064001D01*
X175742083Y-75985076D01*
X175842335Y-75924270D01*
X175951690Y-75882687D01*
X176066853Y-75861428D01*
X176184525Y-75861599D01*
X176301410Y-75884301D01*
X176414211Y-75930638D01*
X176519631Y-76001713D01*
X176563632Y-76041911D01*
X176648021Y-76145129D01*
X176706778Y-76257925D01*
X176740296Y-76377010D01*
X176748965Y-76499095D01*
X176733177Y-76620893D01*
X176693322Y-76739116D01*
X176629793Y-76850475D01*
X176542979Y-76951684D01*
X176445971Y-77030887D01*
X176405563Y-77061162D01*
X176377018Y-77087219D01*
X176366743Y-77102825D01*
X176372123Y-77119843D01*
X176387425Y-77160500D01*
X176411388Y-77221642D01*
X176442756Y-77300119D01*
X176480268Y-77392780D01*
X176522667Y-77496472D01*
X176564337Y-77597526D01*
X176610310Y-77708607D01*
X176652893Y-77811541D01*
X176690779Y-77903165D01*
X176722660Y-77980316D01*
X176747229Y-78039831D01*
X176763180Y-78078544D01*
X176769090Y-78093000D01*
X176783052Y-78107685D01*
X176810060Y-78107642D01*
X176853587Y-78092099D01*
X176917110Y-78060284D01*
X176917612Y-78060013D01*
X176965440Y-78035323D01*
X177004103Y-78017338D01*
X177025905Y-78009614D01*
X177026867Y-78009543D01*
X177043279Y-78017378D01*
X177079513Y-78039165D01*
X177131526Y-78072328D01*
X177195275Y-78114291D01*
X177265940Y-78161943D01*
X177337884Y-78210191D01*
X177402726Y-78252151D01*
X177456265Y-78285227D01*
X177494303Y-78306821D01*
X177512467Y-78314343D01*
X177529192Y-78304457D01*
X177562820Y-78276826D01*
X177609990Y-78234495D01*
X177667342Y-78180505D01*
X177731516Y-78117899D01*
X177752503Y-78096983D01*
X177969501Y-77879623D01*
X177804332Y-77637220D01*
X177754136Y-77562781D01*
X177710081Y-77495972D01*
X177674638Y-77440665D01*
X177650281Y-77400729D01*
X177639478Y-77380036D01*
X177639162Y-77378563D01*
X177644857Y-77359058D01*
X177660174Y-77319822D01*
X177682463Y-77267430D01*
X177698107Y-77232355D01*
X177727359Y-77165201D01*
X177754906Y-77097358D01*
X177776263Y-77040034D01*
X177782065Y-77022572D01*
X177798548Y-76975938D01*
X177814660Y-76939905D01*
X177823510Y-76926287D01*
X177843040Y-76917952D01*
X177885666Y-76906137D01*
X177945855Y-76892181D01*
X178018078Y-76877422D01*
X178050400Y-76871355D01*
X178132478Y-76856273D01*
X178211205Y-76841669D01*
X178278891Y-76828980D01*
X178327840Y-76819642D01*
X178337057Y-76817839D01*
X178413257Y-76802799D01*
X178413257Y-76485492D01*
X178413086Y-76381154D01*
X178412384Y-76302213D01*
X178410866Y-76245038D01*
X178408251Y-76205999D01*
X178404254Y-76181465D01*
X178398591Y-76167805D01*
X178390980Y-76161389D01*
X178387857Y-76160199D01*
X178369022Y-76155980D01*
X178327412Y-76147562D01*
X178268370Y-76135961D01*
X178197243Y-76122195D01*
X178119375Y-76107280D01*
X178040113Y-76092232D01*
X177964802Y-76078069D01*
X177898787Y-76065806D01*
X177847413Y-76056461D01*
X177816025Y-76051050D01*
X177809041Y-76050114D01*
X177802715Y-76037596D01*
X177788710Y-76004246D01*
X177769645Y-75956377D01*
X177762366Y-75937629D01*
X177733004Y-75865195D01*
X177698429Y-75785170D01*
X177667463Y-75717728D01*
X177644677Y-75666159D01*
X177629518Y-75623785D01*
X177624458Y-75597834D01*
X177625264Y-75594356D01*
X177635959Y-75577936D01*
X177660380Y-75541417D01*
X177695905Y-75488687D01*
X177739913Y-75423635D01*
X177789783Y-75350151D01*
X177799644Y-75335645D01*
X177857508Y-75249704D01*
X177900044Y-75184261D01*
X177928946Y-75136304D01*
X177945910Y-75102820D01*
X177952633Y-75080795D01*
X177950810Y-75067217D01*
X177950764Y-75067131D01*
X177936414Y-75049297D01*
X177904677Y-75014817D01*
X177858990Y-74967268D01*
X177802796Y-74910222D01*
X177739532Y-74847255D01*
X177732398Y-74840227D01*
X177652670Y-74763020D01*
X177591143Y-74706330D01*
X177546579Y-74669110D01*
X177517743Y-74650315D01*
X177505042Y-74647889D01*
X177486506Y-74658471D01*
X177448039Y-74682916D01*
X177393614Y-74718612D01*
X177327202Y-74762947D01*
X177252775Y-74813311D01*
X177235399Y-74825160D01*
X176988703Y-74993626D01*
X176877294Y-74943062D01*
X176809543Y-74913595D01*
X176736817Y-74883959D01*
X176674297Y-74860330D01*
X176671543Y-74859358D01*
X176622640Y-74841457D01*
X176584943Y-74826320D01*
X176566575Y-74817210D01*
X176566544Y-74817184D01*
X176560715Y-74800717D01*
X176550808Y-74760219D01*
X176537805Y-74700242D01*
X176522691Y-74625340D01*
X176506448Y-74540064D01*
X176505119Y-74532875D01*
X176488825Y-74445014D01*
X176473867Y-74365260D01*
X176461209Y-74298681D01*
X176451814Y-74250347D01*
X176446646Y-74225325D01*
X176446556Y-74224943D01*
X176443411Y-74214299D01*
X176437296Y-74206262D01*
X176424547Y-74200467D01*
X176401500Y-74196547D01*
X176364491Y-74194135D01*
X176309856Y-74192865D01*
X176233933Y-74192371D01*
X176133056Y-74192286D01*
X176120000Y-74192286D01*
X176016090Y-74192348D01*
X176016090Y-74192348D01*
G37*
X176016090Y-74192348D02*
X175937546Y-74192778D01*
X175880702Y-74193942D01*
X175841895Y-74196207D01*
X175817462Y-74199940D01*
X175803738Y-74205506D01*
X175797060Y-74213273D01*
X175793764Y-74223605D01*
X175793444Y-74224943D01*
X175788438Y-74249079D01*
X175779171Y-74296701D01*
X175766608Y-74362741D01*
X175751713Y-74442128D01*
X175735449Y-74529796D01*
X175734881Y-74532875D01*
X175718590Y-74618789D01*
X175703348Y-74694696D01*
X175690139Y-74756045D01*
X175679946Y-74798282D01*
X175673752Y-74816855D01*
X175673457Y-74817184D01*
X175655212Y-74826253D01*
X175617595Y-74841367D01*
X175568729Y-74859262D01*
X175568457Y-74859358D01*
X175506907Y-74882493D01*
X175434343Y-74911965D01*
X175365943Y-74941597D01*
X175362706Y-74943062D01*
X175251298Y-74993626D01*
X175004601Y-74825160D01*
X174928923Y-74773803D01*
X174860369Y-74727889D01*
X174802912Y-74690030D01*
X174760524Y-74662837D01*
X174737175Y-74648921D01*
X174734958Y-74647889D01*
X174717990Y-74652484D01*
X174686299Y-74674655D01*
X174638648Y-74715447D01*
X174573802Y-74775905D01*
X174507603Y-74840227D01*
X174443786Y-74903612D01*
X174386671Y-74961451D01*
X174339695Y-75010175D01*
X174306297Y-75046210D01*
X174289915Y-75065984D01*
X174289306Y-75067002D01*
X174287495Y-75080572D01*
X174294317Y-75102733D01*
X174311460Y-75136478D01*
X174340607Y-75184800D01*
X174383445Y-75250692D01*
X174440552Y-75335517D01*
X174491234Y-75410177D01*
X174536539Y-75477140D01*
X174573850Y-75532516D01*
X174600548Y-75572420D01*
X174614015Y-75592962D01*
X174614863Y-75594356D01*
X174613219Y-75614038D01*
X174600755Y-75652293D01*
X174579952Y-75701889D01*
X174572538Y-75717728D01*
X174540186Y-75788290D01*
X174505672Y-75868353D01*
X174477635Y-75937629D01*
X174457432Y-75989045D01*
X174441385Y-76028119D01*
X174432112Y-76048541D01*
X174430959Y-76050114D01*
X174413904Y-76052721D01*
X174373702Y-76059863D01*
X174315698Y-76070523D01*
X174245237Y-76083685D01*
X174167665Y-76098333D01*
X174088328Y-76113449D01*
X174012569Y-76128018D01*
X173945736Y-76141022D01*
X173893172Y-76151445D01*
X173860224Y-76158270D01*
X173852143Y-76160199D01*
X173843795Y-76164962D01*
X173837494Y-76175718D01*
X173832955Y-76196098D01*
X173829896Y-76229734D01*
X173828033Y-76280255D01*
X173827082Y-76351292D01*
X173826760Y-76446476D01*
X173826743Y-76485492D01*
X173826743Y-76802799D01*
X173902943Y-76817839D01*
X173945337Y-76825995D01*
X174008600Y-76837899D01*
X174085038Y-76852116D01*
X174166957Y-76867210D01*
X174189600Y-76871355D01*
X174265194Y-76886053D01*
X174331047Y-76900505D01*
X174381634Y-76913375D01*
X174411426Y-76923322D01*
X174416388Y-76926287D01*
X174428574Y-76947283D01*
X174446047Y-76987967D01*
X174465423Y-77040322D01*
X174469266Y-77051600D01*
X174494661Y-77121523D01*
X174526183Y-77200418D01*
X174557031Y-77271266D01*
X174557183Y-77271595D01*
X174608553Y-77382733D01*
X174439601Y-77631253D01*
X174270648Y-77879772D01*
X174487571Y-78097058D01*
X174553181Y-78161726D01*
X174613021Y-78218733D01*
X174663733Y-78265033D01*
X174701954Y-78297584D01*
X174724325Y-78313343D01*
X174727534Y-78314343D01*
X174746374Y-78306469D01*
X174784820Y-78284578D01*
X174838670Y-78251267D01*
X174903724Y-78209131D01*
X174974060Y-78161943D01*
X175045445Y-78113810D01*
X175109092Y-78071928D01*
X175160959Y-78038871D01*
X175197005Y-78017218D01*
X175213133Y-78009543D01*
X175232811Y-78016037D01*
X175270125Y-78033150D01*
X175317379Y-78057326D01*
X175322388Y-78060013D01*
X175386023Y-78091927D01*
X175429659Y-78107579D01*
X175456798Y-78107745D01*
X175470943Y-78093204D01*
X175471025Y-78093000D01*
X175478095Y-78075779D01*
X175494958Y-78034899D01*
X175520305Y-77973525D01*
X175552829Y-77894819D01*
X175591222Y-77801947D01*
X175634178Y-77698072D01*
X175675778Y-77597502D01*
X175721496Y-77486516D01*
X175763474Y-77383703D01*
X175800452Y-77292215D01*
X175831173Y-77215201D01*
X175854378Y-77155815D01*
X175868810Y-77117209D01*
X175873257Y-77102800D01*
X175862104Y-77086272D01*
X175832931Y-77059930D01*
X175794029Y-77030887D01*
X175683243Y-76939039D01*
X175596649Y-76833759D01*
X175535284Y-76717266D01*
X175500185Y-76591776D01*
X175492392Y-76459507D01*
X175498057Y-76398457D01*
X175528922Y-76271795D01*
X175582080Y-76159941D01*
X175654233Y-76064001D01*
X175742083Y-75985076D01*
X175842335Y-75924270D01*
X175951690Y-75882687D01*
X176066853Y-75861428D01*
X176184525Y-75861599D01*
X176301410Y-75884301D01*
X176414211Y-75930638D01*
X176519631Y-76001713D01*
X176563632Y-76041911D01*
X176648021Y-76145129D01*
X176706778Y-76257925D01*
X176740296Y-76377010D01*
X176748965Y-76499095D01*
X176733177Y-76620893D01*
X176693322Y-76739116D01*
X176629793Y-76850475D01*
X176542979Y-76951684D01*
X176445971Y-77030887D01*
X176405563Y-77061162D01*
X176377018Y-77087219D01*
X176366743Y-77102825D01*
X176372123Y-77119843D01*
X176387425Y-77160500D01*
X176411388Y-77221642D01*
X176442756Y-77300119D01*
X176480268Y-77392780D01*
X176522667Y-77496472D01*
X176564337Y-77597526D01*
X176610310Y-77708607D01*
X176652893Y-77811541D01*
X176690779Y-77903165D01*
X176722660Y-77980316D01*
X176747229Y-78039831D01*
X176763180Y-78078544D01*
X176769090Y-78093000D01*
X176783052Y-78107685D01*
X176810060Y-78107642D01*
X176853587Y-78092099D01*
X176917110Y-78060284D01*
X176917612Y-78060013D01*
X176965440Y-78035323D01*
X177004103Y-78017338D01*
X177025905Y-78009614D01*
X177026867Y-78009543D01*
X177043279Y-78017378D01*
X177079513Y-78039165D01*
X177131526Y-78072328D01*
X177195275Y-78114291D01*
X177265940Y-78161943D01*
X177337884Y-78210191D01*
X177402726Y-78252151D01*
X177456265Y-78285227D01*
X177494303Y-78306821D01*
X177512467Y-78314343D01*
X177529192Y-78304457D01*
X177562820Y-78276826D01*
X177609990Y-78234495D01*
X177667342Y-78180505D01*
X177731516Y-78117899D01*
X177752503Y-78096983D01*
X177969501Y-77879623D01*
X177804332Y-77637220D01*
X177754136Y-77562781D01*
X177710081Y-77495972D01*
X177674638Y-77440665D01*
X177650281Y-77400729D01*
X177639478Y-77380036D01*
X177639162Y-77378563D01*
X177644857Y-77359058D01*
X177660174Y-77319822D01*
X177682463Y-77267430D01*
X177698107Y-77232355D01*
X177727359Y-77165201D01*
X177754906Y-77097358D01*
X177776263Y-77040034D01*
X177782065Y-77022572D01*
X177798548Y-76975938D01*
X177814660Y-76939905D01*
X177823510Y-76926287D01*
X177843040Y-76917952D01*
X177885666Y-76906137D01*
X177945855Y-76892181D01*
X178018078Y-76877422D01*
X178050400Y-76871355D01*
X178132478Y-76856273D01*
X178211205Y-76841669D01*
X178278891Y-76828980D01*
X178327840Y-76819642D01*
X178337057Y-76817839D01*
X178413257Y-76802799D01*
X178413257Y-76485492D01*
X178413086Y-76381154D01*
X178412384Y-76302213D01*
X178410866Y-76245038D01*
X178408251Y-76205999D01*
X178404254Y-76181465D01*
X178398591Y-76167805D01*
X178390980Y-76161389D01*
X178387857Y-76160199D01*
X178369022Y-76155980D01*
X178327412Y-76147562D01*
X178268370Y-76135961D01*
X178197243Y-76122195D01*
X178119375Y-76107280D01*
X178040113Y-76092232D01*
X177964802Y-76078069D01*
X177898787Y-76065806D01*
X177847413Y-76056461D01*
X177816025Y-76051050D01*
X177809041Y-76050114D01*
X177802715Y-76037596D01*
X177788710Y-76004246D01*
X177769645Y-75956377D01*
X177762366Y-75937629D01*
X177733004Y-75865195D01*
X177698429Y-75785170D01*
X177667463Y-75717728D01*
X177644677Y-75666159D01*
X177629518Y-75623785D01*
X177624458Y-75597834D01*
X177625264Y-75594356D01*
X177635959Y-75577936D01*
X177660380Y-75541417D01*
X177695905Y-75488687D01*
X177739913Y-75423635D01*
X177789783Y-75350151D01*
X177799644Y-75335645D01*
X177857508Y-75249704D01*
X177900044Y-75184261D01*
X177928946Y-75136304D01*
X177945910Y-75102820D01*
X177952633Y-75080795D01*
X177950810Y-75067217D01*
X177950764Y-75067131D01*
X177936414Y-75049297D01*
X177904677Y-75014817D01*
X177858990Y-74967268D01*
X177802796Y-74910222D01*
X177739532Y-74847255D01*
X177732398Y-74840227D01*
X177652670Y-74763020D01*
X177591143Y-74706330D01*
X177546579Y-74669110D01*
X177517743Y-74650315D01*
X177505042Y-74647889D01*
X177486506Y-74658471D01*
X177448039Y-74682916D01*
X177393614Y-74718612D01*
X177327202Y-74762947D01*
X177252775Y-74813311D01*
X177235399Y-74825160D01*
X176988703Y-74993626D01*
X176877294Y-74943062D01*
X176809543Y-74913595D01*
X176736817Y-74883959D01*
X176674297Y-74860330D01*
X176671543Y-74859358D01*
X176622640Y-74841457D01*
X176584943Y-74826320D01*
X176566575Y-74817210D01*
X176566544Y-74817184D01*
X176560715Y-74800717D01*
X176550808Y-74760219D01*
X176537805Y-74700242D01*
X176522691Y-74625340D01*
X176506448Y-74540064D01*
X176505119Y-74532875D01*
X176488825Y-74445014D01*
X176473867Y-74365260D01*
X176461209Y-74298681D01*
X176451814Y-74250347D01*
X176446646Y-74225325D01*
X176446556Y-74224943D01*
X176443411Y-74214299D01*
X176437296Y-74206262D01*
X176424547Y-74200467D01*
X176401500Y-74196547D01*
X176364491Y-74194135D01*
X176309856Y-74192865D01*
X176233933Y-74192371D01*
X176133056Y-74192286D01*
X176120000Y-74192286D01*
X176016090Y-74192348D01*
G04 #@! TD*
M02*
