G04 #@! TF.GenerationSoftware,KiCad,Pcbnew,5.0.0-fee4fd1~66~ubuntu16.04.1*
G04 #@! TF.CreationDate,2018-08-17T12:07:40+02:00*
G04 #@! TF.ProjectId,Garden_Guardian,47617264656E5F477561726469616E2E,rev?*
G04 #@! TF.SameCoordinates,Original*
G04 #@! TF.FileFunction,Soldermask,Top*
G04 #@! TF.FilePolarity,Negative*
%FSLAX46Y46*%
G04 Gerber Fmt 4.6, Leading zero omitted, Abs format (unit mm)*
G04 Created by KiCad (PCBNEW 5.0.0-fee4fd1~66~ubuntu16.04.1) date Fri Aug 17 12:07:40 2018*
%MOMM*%
%LPD*%
G01*
G04 APERTURE LIST*
%ADD10C,1.524000*%
%ADD11R,1.524000X1.524000*%
%ADD12O,1.600000X1.600000*%
%ADD13C,1.600000*%
%ADD14O,1.700000X1.700000*%
%ADD15R,1.700000X1.700000*%
%ADD16R,1.000000X1.000000*%
%ADD17C,1.000000*%
%ADD18C,2.000000*%
%ADD19C,1.727200*%
%ADD20R,1.727200X1.727200*%
%ADD21O,1.727200X1.727200*%
%ADD22R,1.600000X1.600000*%
%ADD23R,1.800000X1.400000*%
%ADD24C,1.400000*%
%ADD25O,1.400000X1.400000*%
%ADD26R,1.300000X1.500000*%
%ADD27R,1.500000X1.300000*%
G04 APERTURE END LIST*
D10*
G04 #@! TO.C,U103*
X150320000Y-75696000D03*
X152860000Y-75696000D03*
D11*
X155400000Y-75696000D03*
D10*
X157940000Y-75696000D03*
G04 #@! TD*
G04 #@! TO.C,U104*
X150882000Y-109975000D03*
X148342000Y-109975000D03*
D11*
X145802000Y-109975000D03*
G04 #@! TD*
D12*
G04 #@! TO.C,C101*
X159310000Y-101070000D03*
D13*
X166810000Y-101070000D03*
G04 #@! TD*
D14*
G04 #@! TO.C,J101*
X167750000Y-75210000D03*
D15*
X165210000Y-75210000D03*
G04 #@! TD*
G04 #@! TO.C,J102*
X173410000Y-81480000D03*
D14*
X173410000Y-84020000D03*
X173410000Y-86560000D03*
X173410000Y-89100000D03*
G04 #@! TD*
G04 #@! TO.C,J103*
X150680000Y-97250000D03*
X150680000Y-94710000D03*
X150680000Y-92170000D03*
D15*
X150680000Y-89630000D03*
G04 #@! TD*
D14*
G04 #@! TO.C,JP101*
X177540000Y-83860000D03*
D15*
X177540000Y-86400000D03*
G04 #@! TD*
D16*
G04 #@! TO.C,Q101*
X150580000Y-83610000D03*
D17*
X150580000Y-81070000D03*
X149310000Y-82340000D03*
G04 #@! TD*
D18*
G04 #@! TO.C,SW101*
X173230000Y-104160000D03*
X177730000Y-104160000D03*
X173230000Y-110660000D03*
X177730000Y-110660000D03*
G04 #@! TD*
G04 #@! TO.C,SW102*
X177920000Y-100050000D03*
X173420000Y-100050000D03*
X177920000Y-93550000D03*
X173420000Y-93550000D03*
G04 #@! TD*
D19*
G04 #@! TO.C,U101*
X166630000Y-81010000D03*
D20*
X166630000Y-83550000D03*
D21*
X164090000Y-81010000D03*
X164090000Y-83550000D03*
X161550000Y-81010000D03*
X161550000Y-83550000D03*
X159010000Y-81010000D03*
X159010000Y-83550000D03*
G04 #@! TD*
D12*
G04 #@! TO.C,U102*
X159300000Y-96970000D03*
X166920000Y-89350000D03*
X159300000Y-94430000D03*
X166920000Y-91890000D03*
X159300000Y-91890000D03*
X166920000Y-94430000D03*
X159300000Y-89350000D03*
D22*
X166920000Y-96970000D03*
G04 #@! TD*
D23*
G04 #@! TO.C,U105*
X165920000Y-108760000D03*
X165920000Y-105460000D03*
X161120000Y-105460000D03*
X161120000Y-108760000D03*
G04 #@! TD*
D24*
G04 #@! TO.C,R109*
X154180000Y-83000000D03*
D25*
X154180000Y-90620000D03*
G04 #@! TD*
D26*
G04 #@! TO.C,D101*
X146050000Y-99510000D03*
X146050000Y-102210000D03*
G04 #@! TD*
G04 #@! TO.C,D102*
X146010000Y-87520000D03*
X146010000Y-90220000D03*
G04 #@! TD*
G04 #@! TO.C,R101*
X172880000Y-75330000D03*
X172880000Y-78030000D03*
G04 #@! TD*
D13*
G04 #@! TO.C,R102*
X151730000Y-103850000D03*
X151730000Y-101310000D03*
G04 #@! TD*
D26*
G04 #@! TO.C,R103*
X147490000Y-107110000D03*
X147490000Y-104410000D03*
G04 #@! TD*
G04 #@! TO.C,R104*
X175510000Y-78070000D03*
X175510000Y-75370000D03*
G04 #@! TD*
G04 #@! TO.C,R105*
X146570000Y-96620000D03*
X146570000Y-93920000D03*
G04 #@! TD*
G04 #@! TO.C,R106*
X145990000Y-82050000D03*
X145990000Y-84750000D03*
G04 #@! TD*
G04 #@! TO.C,R107*
X169970000Y-100070000D03*
X169970000Y-102770000D03*
G04 #@! TD*
D27*
G04 #@! TO.C,R108*
X158190000Y-105910000D03*
X155490000Y-105910000D03*
G04 #@! TD*
D10*
G04 #@! TO.C,U106*
X163799000Y-110908000D03*
X162021000Y-110908000D03*
G04 #@! TD*
M02*
