M48
;DRILL file {KiCad 5.0.0-fee4fd1~66~ubuntu16.04.1} date Fri Aug 17 12:08:02 2018
;FORMAT={-:-/ absolute / metric / decimal}
FMAT,2
METRIC,TZ
T1C0.400
T2C0.600
T3C0.700
T4C0.762
T5C0.800
T6C1.000
T7C1.016
T8C1.100
%
G90
G05
M71
T1
X146.94Y-92.71
X160.53Y-87.
X170.67Y-76.46
X171.93Y-107.09
X178.46Y-76.48
T2
X149.31Y-82.34
X150.58Y-81.07
X150.58Y-83.61
T3
X154.18Y-83.
X154.18Y-90.62
T4
X150.32Y-75.696
X152.86Y-75.696
X155.4Y-75.696
X157.94Y-75.696
X162.021Y-110.908
X163.799Y-110.908
X145.802Y-109.975
X148.342Y-109.975
X150.882Y-109.975
T5
X159.3Y-89.35
X159.3Y-91.89
X159.3Y-94.43
X159.3Y-96.97
X166.92Y-89.35
X166.92Y-91.89
X166.92Y-94.43
X166.92Y-96.97
X159.31Y-101.07
X166.81Y-101.07
X151.73Y-101.31
X151.73Y-103.85
T6
X150.68Y-89.63
X150.68Y-92.17
X150.68Y-94.71
X150.68Y-97.25
X177.54Y-83.86
X177.54Y-86.4
X165.21Y-75.21
X167.75Y-75.21
X173.41Y-81.48
X173.41Y-84.02
X173.41Y-86.56
X173.41Y-89.1
T7
X159.01Y-81.01
X159.01Y-83.55
X161.55Y-81.01
X161.55Y-83.55
X164.09Y-81.01
X164.09Y-83.55
X166.63Y-81.01
X166.63Y-83.55
T8
X173.23Y-104.16
X173.23Y-110.66
X177.73Y-104.16
X177.73Y-110.66
X173.42Y-93.55
X173.42Y-100.05
X177.92Y-93.55
X177.92Y-100.05
T0
M30
