G04 #@! TF.GenerationSoftware,KiCad,Pcbnew,5.0.0-fee4fd1~66~ubuntu16.04.1*
G04 #@! TF.CreationDate,2018-08-17T12:37:55+02:00*
G04 #@! TF.ProjectId,Garden_Guardian,47617264656E5F477561726469616E2E,rev?*
G04 #@! TF.SameCoordinates,Original*
G04 #@! TF.FileFunction,Copper,L1,Top,Signal*
G04 #@! TF.FilePolarity,Positive*
%FSLAX46Y46*%
G04 Gerber Fmt 4.6, Leading zero omitted, Abs format (unit mm)*
G04 Created by KiCad (PCBNEW 5.0.0-fee4fd1~66~ubuntu16.04.1) date Fri Aug 17 12:37:55 2018*
%MOMM*%
%LPD*%
G01*
G04 APERTURE LIST*
G04 #@! TA.AperFunction,ComponentPad*
%ADD10C,1.524000*%
G04 #@! TD*
G04 #@! TA.AperFunction,ComponentPad*
%ADD11R,1.524000X1.524000*%
G04 #@! TD*
G04 #@! TA.AperFunction,ComponentPad*
%ADD12O,1.600000X1.600000*%
G04 #@! TD*
G04 #@! TA.AperFunction,ComponentPad*
%ADD13C,1.600000*%
G04 #@! TD*
G04 #@! TA.AperFunction,ComponentPad*
%ADD14O,1.700000X1.700000*%
G04 #@! TD*
G04 #@! TA.AperFunction,ComponentPad*
%ADD15R,1.700000X1.700000*%
G04 #@! TD*
G04 #@! TA.AperFunction,ComponentPad*
%ADD16R,1.000000X1.000000*%
G04 #@! TD*
G04 #@! TA.AperFunction,ComponentPad*
%ADD17C,1.000000*%
G04 #@! TD*
G04 #@! TA.AperFunction,ComponentPad*
%ADD18C,2.000000*%
G04 #@! TD*
G04 #@! TA.AperFunction,ComponentPad*
%ADD19C,1.727200*%
G04 #@! TD*
G04 #@! TA.AperFunction,ComponentPad*
%ADD20R,1.727200X1.727200*%
G04 #@! TD*
G04 #@! TA.AperFunction,ComponentPad*
%ADD21O,1.727200X1.727200*%
G04 #@! TD*
G04 #@! TA.AperFunction,ComponentPad*
%ADD22R,1.600000X1.600000*%
G04 #@! TD*
G04 #@! TA.AperFunction,SMDPad,CuDef*
%ADD23R,1.800000X1.400000*%
G04 #@! TD*
G04 #@! TA.AperFunction,ComponentPad*
%ADD24C,1.400000*%
G04 #@! TD*
G04 #@! TA.AperFunction,ComponentPad*
%ADD25O,1.400000X1.400000*%
G04 #@! TD*
G04 #@! TA.AperFunction,SMDPad,CuDef*
%ADD26R,1.300000X1.500000*%
G04 #@! TD*
G04 #@! TA.AperFunction,SMDPad,CuDef*
%ADD27R,1.500000X1.300000*%
G04 #@! TD*
G04 #@! TA.AperFunction,ViaPad*
%ADD28C,0.800000*%
G04 #@! TD*
G04 #@! TA.AperFunction,Conductor*
%ADD29C,0.250000*%
G04 #@! TD*
G04 #@! TA.AperFunction,Conductor*
%ADD30C,0.500000*%
G04 #@! TD*
G04 #@! TA.AperFunction,Conductor*
%ADD31C,0.254000*%
G04 #@! TD*
G04 APERTURE END LIST*
D10*
G04 #@! TO.P,U103,1*
G04 #@! TO.N,/PWR_ON*
X150320000Y-75696000D03*
G04 #@! TO.P,U103,2*
G04 #@! TO.N,/SDA*
X152860000Y-75696000D03*
D11*
G04 #@! TO.P,U103,3*
G04 #@! TO.N,GND*
X155400000Y-75696000D03*
D10*
G04 #@! TO.P,U103,4*
G04 #@! TO.N,/SCL*
X157940000Y-75696000D03*
G04 #@! TD*
G04 #@! TO.P,U104,1*
G04 #@! TO.N,/RADIO*
X150882000Y-109975000D03*
G04 #@! TO.P,U104,2*
G04 #@! TO.N,/PWR_ON*
X148342000Y-109975000D03*
D11*
G04 #@! TO.P,U104,3*
G04 #@! TO.N,GND*
X145802000Y-109975000D03*
G04 #@! TD*
D12*
G04 #@! TO.P,C101,2*
G04 #@! TO.N,GND*
X159310000Y-101070000D03*
D13*
G04 #@! TO.P,C101,1*
G04 #@! TO.N,/RST*
X166810000Y-101070000D03*
G04 #@! TD*
D14*
G04 #@! TO.P,J101,2*
G04 #@! TO.N,GND*
X167750000Y-75210000D03*
D15*
G04 #@! TO.P,J101,1*
G04 #@! TO.N,VCC*
X165210000Y-75210000D03*
G04 #@! TD*
G04 #@! TO.P,J102,1*
G04 #@! TO.N,/ACTIVADOR*
X173410000Y-81480000D03*
D14*
G04 #@! TO.P,J102,2*
G04 #@! TO.N,/STATUS_LED*
X173410000Y-84020000D03*
G04 #@! TO.P,J102,3*
G04 #@! TO.N,GND*
X173410000Y-86560000D03*
G04 #@! TO.P,J102,4*
G04 #@! TO.N,VCC*
X173410000Y-89100000D03*
G04 #@! TD*
G04 #@! TO.P,J103,4*
G04 #@! TO.N,/SCL*
X150680000Y-97250000D03*
G04 #@! TO.P,J103,3*
G04 #@! TO.N,/RADIO*
X150680000Y-94710000D03*
G04 #@! TO.P,J103,2*
G04 #@! TO.N,/SDA*
X150680000Y-92170000D03*
D15*
G04 #@! TO.P,J103,1*
G04 #@! TO.N,/RST*
X150680000Y-89630000D03*
G04 #@! TD*
D14*
G04 #@! TO.P,JP101,2*
G04 #@! TO.N,/ACTIVADOR*
X177540000Y-83860000D03*
D15*
G04 #@! TO.P,JP101,1*
G04 #@! TO.N,VCC*
X177540000Y-86400000D03*
G04 #@! TD*
D16*
G04 #@! TO.P,Q101,1*
G04 #@! TO.N,/PWR_ON*
X150580000Y-83610000D03*
D17*
G04 #@! TO.P,Q101,3*
G04 #@! TO.N,VCC*
X150580000Y-81070000D03*
G04 #@! TO.P,Q101,2*
G04 #@! TO.N,Net-(Q101-Pad2)*
X149310000Y-82340000D03*
G04 #@! TD*
D18*
G04 #@! TO.P,SW101,1*
G04 #@! TO.N,GND*
X173230000Y-104160000D03*
G04 #@! TO.P,SW101,2*
G04 #@! TO.N,Net-(R101-Pad2)*
X177730000Y-104160000D03*
G04 #@! TO.P,SW101,1*
G04 #@! TO.N,GND*
X173230000Y-110660000D03*
G04 #@! TO.P,SW101,2*
G04 #@! TO.N,Net-(R101-Pad2)*
X177730000Y-110660000D03*
G04 #@! TD*
G04 #@! TO.P,SW102,2*
G04 #@! TO.N,/SCL*
X177920000Y-100050000D03*
G04 #@! TO.P,SW102,1*
G04 #@! TO.N,GND*
X173420000Y-100050000D03*
G04 #@! TO.P,SW102,2*
G04 #@! TO.N,/SCL*
X177920000Y-93550000D03*
G04 #@! TO.P,SW102,1*
G04 #@! TO.N,GND*
X173420000Y-93550000D03*
G04 #@! TD*
D19*
G04 #@! TO.P,U101,5*
G04 #@! TO.N,/STATUS_LED*
X166630000Y-81010000D03*
D20*
G04 #@! TO.P,U101,1*
G04 #@! TO.N,GND*
X166630000Y-83550000D03*
D21*
G04 #@! TO.P,U101,6*
G04 #@! TO.N,Net-(R104-Pad1)*
X164090000Y-81010000D03*
G04 #@! TO.P,U101,2*
G04 #@! TO.N,/SDA*
X164090000Y-83550000D03*
G04 #@! TO.P,U101,7*
G04 #@! TO.N,Net-(R101-Pad1)*
X161550000Y-81010000D03*
G04 #@! TO.P,U101,3*
G04 #@! TO.N,/SCL*
X161550000Y-83550000D03*
G04 #@! TO.P,U101,8*
G04 #@! TO.N,VCC*
X159010000Y-81010000D03*
G04 #@! TO.P,U101,4*
G04 #@! TO.N,/ACTIVADOR*
X159010000Y-83550000D03*
G04 #@! TD*
D12*
G04 #@! TO.P,U102,8*
G04 #@! TO.N,/PWR_ON*
X159300000Y-96970000D03*
G04 #@! TO.P,U102,4*
G04 #@! TO.N,GND*
X166920000Y-89350000D03*
G04 #@! TO.P,U102,7*
G04 #@! TO.N,/SCL*
X159300000Y-94430000D03*
G04 #@! TO.P,U102,3*
G04 #@! TO.N,/LDR*
X166920000Y-91890000D03*
G04 #@! TO.P,U102,6*
G04 #@! TO.N,/RADIO*
X159300000Y-91890000D03*
G04 #@! TO.P,U102,2*
G04 #@! TO.N,/HUMEDAD*
X166920000Y-94430000D03*
G04 #@! TO.P,U102,5*
G04 #@! TO.N,/SDA*
X159300000Y-89350000D03*
D22*
G04 #@! TO.P,U102,1*
G04 #@! TO.N,/RST*
X166920000Y-96970000D03*
G04 #@! TD*
D23*
G04 #@! TO.P,U105,1*
G04 #@! TO.N,VCC*
X165920000Y-108760000D03*
G04 #@! TO.P,U105,2*
G04 #@! TO.N,N/C*
X165920000Y-105460000D03*
G04 #@! TO.P,U105,3*
G04 #@! TO.N,GND*
X161120000Y-105460000D03*
G04 #@! TO.P,U105,4*
G04 #@! TO.N,/STATUS_LED*
X161120000Y-108760000D03*
G04 #@! TD*
D24*
G04 #@! TO.P,R109,1*
G04 #@! TO.N,Net-(Q101-Pad2)*
X154180000Y-83000000D03*
D25*
G04 #@! TO.P,R109,2*
G04 #@! TO.N,/ACTIVADOR*
X154180000Y-90620000D03*
G04 #@! TD*
D26*
G04 #@! TO.P,D101,2*
G04 #@! TO.N,Net-(D101-Pad2)*
X146050000Y-99510000D03*
G04 #@! TO.P,D101,1*
G04 #@! TO.N,GND*
X146050000Y-102210000D03*
G04 #@! TD*
G04 #@! TO.P,D102,1*
G04 #@! TO.N,Net-(D102-Pad1)*
X146010000Y-87520000D03*
G04 #@! TO.P,D102,2*
G04 #@! TO.N,/PWR_ON*
X146010000Y-90220000D03*
G04 #@! TD*
G04 #@! TO.P,R101,2*
G04 #@! TO.N,Net-(R101-Pad2)*
X172880000Y-75330000D03*
G04 #@! TO.P,R101,1*
G04 #@! TO.N,Net-(R101-Pad1)*
X172880000Y-78030000D03*
G04 #@! TD*
D13*
G04 #@! TO.P,R102,2*
G04 #@! TO.N,/LDR*
X151730000Y-103850000D03*
G04 #@! TO.P,R102,1*
G04 #@! TO.N,/PWR_ON*
X151730000Y-101310000D03*
G04 #@! TD*
D26*
G04 #@! TO.P,R103,2*
G04 #@! TO.N,/LDR*
X147490000Y-107110000D03*
G04 #@! TO.P,R103,1*
G04 #@! TO.N,GND*
X147490000Y-104410000D03*
G04 #@! TD*
G04 #@! TO.P,R104,1*
G04 #@! TO.N,Net-(R104-Pad1)*
X175510000Y-78070000D03*
G04 #@! TO.P,R104,2*
G04 #@! TO.N,VCC*
X175510000Y-75370000D03*
G04 #@! TD*
G04 #@! TO.P,R105,1*
G04 #@! TO.N,Net-(D101-Pad2)*
X146570000Y-96620000D03*
G04 #@! TO.P,R105,2*
G04 #@! TO.N,/ACTIVADOR*
X146570000Y-93920000D03*
G04 #@! TD*
G04 #@! TO.P,R106,2*
G04 #@! TO.N,GND*
X145990000Y-82050000D03*
G04 #@! TO.P,R106,1*
G04 #@! TO.N,Net-(D102-Pad1)*
X145990000Y-84750000D03*
G04 #@! TD*
G04 #@! TO.P,R107,2*
G04 #@! TO.N,/RST*
X169970000Y-100070000D03*
G04 #@! TO.P,R107,1*
G04 #@! TO.N,VCC*
X169970000Y-102770000D03*
G04 #@! TD*
D27*
G04 #@! TO.P,R108,1*
G04 #@! TO.N,Net-(R108-Pad1)*
X158190000Y-105910000D03*
G04 #@! TO.P,R108,2*
G04 #@! TO.N,/PWR_ON*
X155490000Y-105910000D03*
G04 #@! TD*
D10*
G04 #@! TO.P,U106,1*
G04 #@! TO.N,/HUMEDAD*
X163799000Y-110908000D03*
G04 #@! TO.P,U106,2*
G04 #@! TO.N,Net-(R108-Pad1)*
X162021000Y-110908000D03*
G04 #@! TD*
D27*
G04 #@! TO.P,R110,2*
G04 #@! TO.N,/PWR_ON*
X161870000Y-94770000D03*
G04 #@! TO.P,R110,1*
G04 #@! TO.N,Net-(R110-Pad1)*
X164570000Y-94770000D03*
G04 #@! TD*
D10*
G04 #@! TO.P,U107,1*
G04 #@! TO.N,/HUMEDAD*
X163322000Y-91819000D03*
G04 #@! TO.P,U107,2*
G04 #@! TO.N,Net-(R110-Pad1)*
X163322000Y-90041000D03*
G04 #@! TD*
D28*
G04 #@! TO.N,/ACTIVADOR*
X146940000Y-92710000D03*
G04 #@! TO.N,/STATUS_LED*
X171930000Y-107090000D03*
G04 #@! TO.N,/SDA*
X160530000Y-87000000D03*
G04 #@! TO.N,Net-(R101-Pad2)*
X170670000Y-76460000D03*
X178460000Y-76480000D03*
G04 #@! TD*
D29*
G04 #@! TO.N,/RST*
X167810000Y-100070000D02*
X169970000Y-100070000D01*
X166810000Y-101070000D02*
X167810000Y-100070000D01*
X168970000Y-100070000D02*
X169070000Y-100070000D01*
X169070000Y-100070000D02*
X169970000Y-100070000D01*
X166920000Y-98020000D02*
X168970000Y-100070000D01*
X166920000Y-96970000D02*
X166920000Y-98020000D01*
X166920000Y-96970000D02*
X162260000Y-96970000D01*
X162260000Y-96970000D02*
X160320000Y-98910000D01*
X160320000Y-98910000D02*
X155190000Y-98910000D01*
X155190000Y-98910000D02*
X152570000Y-96290000D01*
X151780000Y-89630000D02*
X150680000Y-89630000D01*
X152570000Y-90420000D02*
X151780000Y-89630000D01*
X152570000Y-96290000D02*
X152570000Y-90420000D01*
G04 #@! TO.N,Net-(D101-Pad2)*
X146050000Y-96540000D02*
X146030000Y-96520000D01*
X146050000Y-99510000D02*
X146050000Y-96540000D01*
D30*
G04 #@! TO.N,/PWR_ON*
X150580000Y-84610000D02*
X148010000Y-87180000D01*
X150580000Y-83610000D02*
X150580000Y-84610000D01*
X148010000Y-99080000D02*
X148780000Y-99850000D01*
X148010000Y-89370000D02*
X148010000Y-89260000D01*
X147160000Y-90220000D02*
X148010000Y-89370000D01*
X148010000Y-87180000D02*
X148010000Y-89260000D01*
X146010000Y-90220000D02*
X147160000Y-90220000D01*
X148010000Y-89260000D02*
X148010000Y-99080000D01*
X150580000Y-83610000D02*
X148320000Y-83610000D01*
X148320000Y-83610000D02*
X147800000Y-83090000D01*
X147800000Y-78216000D02*
X150320000Y-75696000D01*
X147800000Y-83090000D02*
X147800000Y-78216000D01*
D29*
X159080000Y-97250000D02*
X159140000Y-97310000D01*
D30*
X150270000Y-99850000D02*
X151730000Y-101310000D01*
X148780000Y-99850000D02*
X150270000Y-99850000D01*
X152040000Y-101310000D02*
X151730000Y-101310000D01*
X155490000Y-104760000D02*
X152040000Y-101310000D01*
X155490000Y-105910000D02*
X155490000Y-104760000D01*
X152407000Y-105910000D02*
X155490000Y-105910000D01*
X148342000Y-109975000D02*
X152407000Y-105910000D01*
X159670000Y-96970000D02*
X161870000Y-94770000D01*
X159300000Y-96970000D02*
X159670000Y-96970000D01*
G04 #@! TO.N,VCC*
X176190000Y-89100000D02*
X177540000Y-87750000D01*
X173410000Y-89100000D02*
X176190000Y-89100000D01*
X164810000Y-75210000D02*
X165210000Y-75210000D01*
X159010000Y-81010000D02*
X164810000Y-75210000D01*
X155634000Y-81010000D02*
X159010000Y-81010000D01*
X151287106Y-81070000D02*
X151347106Y-81010000D01*
X151347106Y-81010000D02*
X155634000Y-81010000D01*
X150580000Y-81070000D02*
X151287106Y-81070000D01*
X175470000Y-75330000D02*
X175510000Y-75370000D01*
X165210000Y-75210000D02*
X165210000Y-74990000D01*
X177540000Y-86400000D02*
X177540000Y-87750000D01*
X172560001Y-89949999D02*
X173410000Y-89100000D01*
X169970000Y-102770000D02*
X171120000Y-102770000D01*
X171120000Y-102770000D02*
X171620000Y-102230000D01*
X171620000Y-102230000D02*
X171580000Y-90620000D01*
X171580000Y-90620000D02*
X172560001Y-89949999D01*
X175510000Y-75270000D02*
X173920000Y-73680000D01*
X175510000Y-75370000D02*
X175510000Y-75270000D01*
X165210000Y-73860000D02*
X165210000Y-75210000D01*
X165390000Y-73680000D02*
X165210000Y-73860000D01*
X173920000Y-73680000D02*
X165390000Y-73680000D01*
X177540000Y-86400000D02*
X177540000Y-85955373D01*
X177540000Y-85955373D02*
X178965403Y-84529970D01*
X175510000Y-75470000D02*
X175510000Y-75370000D01*
X178965403Y-78925403D02*
X175510000Y-75470000D01*
X178965403Y-84529970D02*
X178965403Y-78925403D01*
X173890000Y-102230000D02*
X171620000Y-102230000D01*
X175880000Y-104220000D02*
X173890000Y-102230000D01*
X175880000Y-105085998D02*
X175880000Y-104220000D01*
X175910000Y-105115998D02*
X175880000Y-105085998D01*
X165920000Y-108760000D02*
X166120000Y-108760000D01*
X166120000Y-108760000D02*
X170880000Y-108750000D01*
X170880000Y-108750000D02*
X174190000Y-108750000D01*
X175930000Y-107780000D02*
X175910000Y-105115998D01*
X174190000Y-108750000D02*
X175930000Y-107780000D01*
D29*
G04 #@! TO.N,/ACTIVADOR*
X175790000Y-83860000D02*
X173410000Y-81480000D01*
X177540000Y-83860000D02*
X175790000Y-83860000D01*
X154180000Y-88380000D02*
X159010000Y-83550000D01*
X154180000Y-90620000D02*
X154180000Y-88380000D01*
X146620000Y-93230000D02*
X146180000Y-93450000D01*
X146180000Y-93450000D02*
X146030000Y-93820000D01*
X146940000Y-92710000D02*
X146620000Y-93230000D01*
G04 #@! TO.N,/STATUS_LED*
X169240000Y-82240000D02*
X173410000Y-84020000D01*
X166630000Y-81010000D02*
X169240000Y-82240000D01*
X161120000Y-107810000D02*
X161120000Y-108760000D01*
X170660000Y-107130000D02*
X161800000Y-107130000D01*
X161800000Y-107130000D02*
X161120000Y-107810000D01*
X171930000Y-107090000D02*
X170660000Y-107130000D01*
G04 #@! TO.N,/RADIO*
X150740000Y-94770000D02*
X150680000Y-94710000D01*
X159080000Y-92170000D02*
X159140000Y-92230000D01*
G04 #@! TO.N,/SDA*
X162630000Y-86970000D02*
X164090000Y-83550000D01*
X160530000Y-87000000D02*
X162630000Y-86970000D01*
G04 #@! TO.N,Net-(R101-Pad1)*
X162413599Y-80146401D02*
X162413599Y-79416401D01*
X161550000Y-81010000D02*
X162413599Y-80146401D01*
X163800000Y-78030000D02*
X172880000Y-78030000D01*
X162413599Y-79416401D02*
X163800000Y-78030000D01*
G04 #@! TO.N,/LDR*
X148330000Y-107250000D02*
X151730000Y-103850000D01*
X148190000Y-107110000D02*
X148330000Y-107250000D01*
X147490000Y-107110000D02*
X148190000Y-107110000D01*
G04 #@! TO.N,Net-(R104-Pad1)*
X175510000Y-78170000D02*
X175510000Y-78070000D01*
X164090000Y-81010000D02*
X164953599Y-80146401D01*
X164953599Y-80146401D02*
X165570000Y-79230000D01*
X165570000Y-79230000D02*
X174443599Y-79236401D01*
X174443599Y-79236401D02*
X175510000Y-78170000D01*
G04 #@! TO.N,Net-(R108-Pad1)*
X160530000Y-110840000D02*
X162120000Y-110860000D01*
X158190000Y-108587000D02*
X160530000Y-110840000D01*
X158190000Y-105910000D02*
X158190000Y-108587000D01*
G04 #@! TO.N,/HUMEDAD*
X164309000Y-91819000D02*
X163322000Y-91819000D01*
X166920000Y-94430000D02*
X164309000Y-91819000D01*
G04 #@! TO.N,Net-(D102-Pad1)*
X146010000Y-84770000D02*
X145990000Y-84750000D01*
X146010000Y-87520000D02*
X146010000Y-84770000D01*
G04 #@! TO.N,Net-(R101-Pad2)*
X178040000Y-111540000D02*
X178040000Y-105040000D01*
X171980000Y-75330000D02*
X172880000Y-75330000D01*
X171234315Y-75330000D02*
X171980000Y-75330000D01*
X170670000Y-75894315D02*
X171234315Y-75330000D01*
X170670000Y-76460000D02*
X170670000Y-75894315D01*
X179490000Y-101130000D02*
X178040000Y-105040000D01*
X178460000Y-76480000D02*
X180200000Y-78970000D01*
X180200000Y-78970000D02*
X180200000Y-83490000D01*
X180200000Y-83490000D02*
X179490000Y-85320000D01*
X179490000Y-85320000D02*
X179490000Y-101130000D01*
G04 #@! TO.N,Net-(R110-Pad1)*
X162244370Y-90041000D02*
X161460000Y-90825370D01*
X163322000Y-90041000D02*
X162244370Y-90041000D01*
X161460000Y-90825370D02*
X161460000Y-92780000D01*
X161460000Y-92780000D02*
X161950000Y-93270000D01*
X162970000Y-93270000D02*
X164470000Y-94770000D01*
X164470000Y-94770000D02*
X164570000Y-94770000D01*
X161950000Y-93270000D02*
X162970000Y-93270000D01*
G04 #@! TD*
D31*
G04 #@! TO.N,GND*
G36*
X147371952Y-99718049D02*
X147445845Y-99767423D01*
X148092577Y-100414156D01*
X148141951Y-100488049D01*
X148215844Y-100537423D01*
X148215845Y-100537424D01*
X148287838Y-100585528D01*
X148434690Y-100683652D01*
X148692835Y-100735000D01*
X148692839Y-100735000D01*
X148779999Y-100752337D01*
X148867159Y-100735000D01*
X149903422Y-100735000D01*
X150295000Y-101126578D01*
X150295000Y-101595439D01*
X150513466Y-102122862D01*
X150917138Y-102526534D01*
X151046216Y-102580000D01*
X150917138Y-102633466D01*
X150513466Y-103037138D01*
X150295000Y-103564561D01*
X150295000Y-104135439D01*
X150316896Y-104188302D01*
X148599891Y-105905307D01*
X148597809Y-105902191D01*
X148387765Y-105761843D01*
X148359791Y-105756279D01*
X148499699Y-105698327D01*
X148678327Y-105519698D01*
X148775000Y-105286309D01*
X148775000Y-104695750D01*
X148616250Y-104537000D01*
X147617000Y-104537000D01*
X147617000Y-104557000D01*
X147363000Y-104557000D01*
X147363000Y-104537000D01*
X146363750Y-104537000D01*
X146205000Y-104695750D01*
X146205000Y-105286309D01*
X146301673Y-105519698D01*
X146480301Y-105698327D01*
X146620209Y-105756279D01*
X146592235Y-105761843D01*
X146382191Y-105902191D01*
X146241843Y-106112235D01*
X146192560Y-106360000D01*
X146192560Y-107860000D01*
X146241843Y-108107765D01*
X146382191Y-108317809D01*
X146592235Y-108458157D01*
X146840000Y-108507440D01*
X148140000Y-108507440D01*
X148387765Y-108458157D01*
X148597809Y-108317809D01*
X148738157Y-108107765D01*
X148787440Y-107860000D01*
X148787440Y-107858392D01*
X148877929Y-107797929D01*
X148920330Y-107734471D01*
X151391698Y-105263104D01*
X151444561Y-105285000D01*
X151760232Y-105285000D01*
X151719577Y-105345844D01*
X148487422Y-108578000D01*
X148064119Y-108578000D01*
X147550663Y-108790680D01*
X147199000Y-109142343D01*
X147199000Y-109086690D01*
X147102327Y-108853301D01*
X146923698Y-108674673D01*
X146690309Y-108578000D01*
X146087750Y-108578000D01*
X145929000Y-108736750D01*
X145929000Y-109848000D01*
X145949000Y-109848000D01*
X145949000Y-110102000D01*
X145929000Y-110102000D01*
X145929000Y-111213250D01*
X146087750Y-111372000D01*
X146690309Y-111372000D01*
X146923698Y-111275327D01*
X147102327Y-111096699D01*
X147199000Y-110863310D01*
X147199000Y-110807657D01*
X147550663Y-111159320D01*
X148064119Y-111372000D01*
X148619881Y-111372000D01*
X149133337Y-111159320D01*
X149526320Y-110766337D01*
X149612000Y-110559487D01*
X149697680Y-110766337D01*
X150090663Y-111159320D01*
X150604119Y-111372000D01*
X151159881Y-111372000D01*
X151673337Y-111159320D01*
X152066320Y-110766337D01*
X152279000Y-110252881D01*
X152279000Y-109697119D01*
X152066320Y-109183663D01*
X151673337Y-108790680D01*
X151159881Y-108578000D01*
X150990578Y-108578000D01*
X152773579Y-106795000D01*
X154139304Y-106795000D01*
X154141843Y-106807765D01*
X154282191Y-107017809D01*
X154492235Y-107158157D01*
X154740000Y-107207440D01*
X156240000Y-107207440D01*
X156487765Y-107158157D01*
X156697809Y-107017809D01*
X156838157Y-106807765D01*
X156840000Y-106798500D01*
X156841843Y-106807765D01*
X156982191Y-107017809D01*
X157192235Y-107158157D01*
X157430000Y-107205451D01*
X157430001Y-108519408D01*
X157415251Y-108601675D01*
X157446010Y-108742334D01*
X157474097Y-108883537D01*
X157478245Y-108889746D01*
X157479841Y-108897042D01*
X157562092Y-109015230D01*
X157642072Y-109134929D01*
X157711565Y-109181363D01*
X159940226Y-111327164D01*
X159975223Y-111380994D01*
X160048095Y-111431022D01*
X160056794Y-111439398D01*
X160109735Y-111473340D01*
X160224483Y-111552117D01*
X160236624Y-111554691D01*
X160247074Y-111561391D01*
X160384079Y-111585955D01*
X160445595Y-111598998D01*
X160457672Y-111599150D01*
X160544675Y-111614749D01*
X160607396Y-111601033D01*
X160796949Y-111603418D01*
X160836680Y-111699337D01*
X160897855Y-111760512D01*
X145114482Y-111764814D01*
X145114185Y-111372000D01*
X145516250Y-111372000D01*
X145675000Y-111213250D01*
X145675000Y-110102000D01*
X145655000Y-110102000D01*
X145655000Y-109848000D01*
X145675000Y-109848000D01*
X145675000Y-108736750D01*
X145516250Y-108578000D01*
X145112075Y-108578000D01*
X145108260Y-103526476D01*
X145273690Y-103595000D01*
X145764250Y-103595000D01*
X145923000Y-103436250D01*
X145923000Y-102337000D01*
X146177000Y-102337000D01*
X146177000Y-103436250D01*
X146225339Y-103484589D01*
X146205000Y-103533691D01*
X146205000Y-104124250D01*
X146363750Y-104283000D01*
X147363000Y-104283000D01*
X147363000Y-103183750D01*
X147617000Y-103183750D01*
X147617000Y-104283000D01*
X148616250Y-104283000D01*
X148775000Y-104124250D01*
X148775000Y-103533691D01*
X148678327Y-103300302D01*
X148499699Y-103121673D01*
X148266310Y-103025000D01*
X147775750Y-103025000D01*
X147617000Y-103183750D01*
X147363000Y-103183750D01*
X147314661Y-103135411D01*
X147335000Y-103086309D01*
X147335000Y-102495750D01*
X147176250Y-102337000D01*
X146177000Y-102337000D01*
X145923000Y-102337000D01*
X145903000Y-102337000D01*
X145903000Y-102083000D01*
X145923000Y-102083000D01*
X145923000Y-102063000D01*
X146177000Y-102063000D01*
X146177000Y-102083000D01*
X147176250Y-102083000D01*
X147335000Y-101924250D01*
X147335000Y-101333691D01*
X147238327Y-101100302D01*
X147059699Y-100921673D01*
X146919791Y-100863721D01*
X146947765Y-100858157D01*
X147157809Y-100717809D01*
X147298157Y-100507765D01*
X147347440Y-100260000D01*
X147347440Y-99681364D01*
X147371952Y-99718049D01*
X147371952Y-99718049D01*
G37*
X147371952Y-99718049D02*
X147445845Y-99767423D01*
X148092577Y-100414156D01*
X148141951Y-100488049D01*
X148215844Y-100537423D01*
X148215845Y-100537424D01*
X148287838Y-100585528D01*
X148434690Y-100683652D01*
X148692835Y-100735000D01*
X148692839Y-100735000D01*
X148779999Y-100752337D01*
X148867159Y-100735000D01*
X149903422Y-100735000D01*
X150295000Y-101126578D01*
X150295000Y-101595439D01*
X150513466Y-102122862D01*
X150917138Y-102526534D01*
X151046216Y-102580000D01*
X150917138Y-102633466D01*
X150513466Y-103037138D01*
X150295000Y-103564561D01*
X150295000Y-104135439D01*
X150316896Y-104188302D01*
X148599891Y-105905307D01*
X148597809Y-105902191D01*
X148387765Y-105761843D01*
X148359791Y-105756279D01*
X148499699Y-105698327D01*
X148678327Y-105519698D01*
X148775000Y-105286309D01*
X148775000Y-104695750D01*
X148616250Y-104537000D01*
X147617000Y-104537000D01*
X147617000Y-104557000D01*
X147363000Y-104557000D01*
X147363000Y-104537000D01*
X146363750Y-104537000D01*
X146205000Y-104695750D01*
X146205000Y-105286309D01*
X146301673Y-105519698D01*
X146480301Y-105698327D01*
X146620209Y-105756279D01*
X146592235Y-105761843D01*
X146382191Y-105902191D01*
X146241843Y-106112235D01*
X146192560Y-106360000D01*
X146192560Y-107860000D01*
X146241843Y-108107765D01*
X146382191Y-108317809D01*
X146592235Y-108458157D01*
X146840000Y-108507440D01*
X148140000Y-108507440D01*
X148387765Y-108458157D01*
X148597809Y-108317809D01*
X148738157Y-108107765D01*
X148787440Y-107860000D01*
X148787440Y-107858392D01*
X148877929Y-107797929D01*
X148920330Y-107734471D01*
X151391698Y-105263104D01*
X151444561Y-105285000D01*
X151760232Y-105285000D01*
X151719577Y-105345844D01*
X148487422Y-108578000D01*
X148064119Y-108578000D01*
X147550663Y-108790680D01*
X147199000Y-109142343D01*
X147199000Y-109086690D01*
X147102327Y-108853301D01*
X146923698Y-108674673D01*
X146690309Y-108578000D01*
X146087750Y-108578000D01*
X145929000Y-108736750D01*
X145929000Y-109848000D01*
X145949000Y-109848000D01*
X145949000Y-110102000D01*
X145929000Y-110102000D01*
X145929000Y-111213250D01*
X146087750Y-111372000D01*
X146690309Y-111372000D01*
X146923698Y-111275327D01*
X147102327Y-111096699D01*
X147199000Y-110863310D01*
X147199000Y-110807657D01*
X147550663Y-111159320D01*
X148064119Y-111372000D01*
X148619881Y-111372000D01*
X149133337Y-111159320D01*
X149526320Y-110766337D01*
X149612000Y-110559487D01*
X149697680Y-110766337D01*
X150090663Y-111159320D01*
X150604119Y-111372000D01*
X151159881Y-111372000D01*
X151673337Y-111159320D01*
X152066320Y-110766337D01*
X152279000Y-110252881D01*
X152279000Y-109697119D01*
X152066320Y-109183663D01*
X151673337Y-108790680D01*
X151159881Y-108578000D01*
X150990578Y-108578000D01*
X152773579Y-106795000D01*
X154139304Y-106795000D01*
X154141843Y-106807765D01*
X154282191Y-107017809D01*
X154492235Y-107158157D01*
X154740000Y-107207440D01*
X156240000Y-107207440D01*
X156487765Y-107158157D01*
X156697809Y-107017809D01*
X156838157Y-106807765D01*
X156840000Y-106798500D01*
X156841843Y-106807765D01*
X156982191Y-107017809D01*
X157192235Y-107158157D01*
X157430000Y-107205451D01*
X157430001Y-108519408D01*
X157415251Y-108601675D01*
X157446010Y-108742334D01*
X157474097Y-108883537D01*
X157478245Y-108889746D01*
X157479841Y-108897042D01*
X157562092Y-109015230D01*
X157642072Y-109134929D01*
X157711565Y-109181363D01*
X159940226Y-111327164D01*
X159975223Y-111380994D01*
X160048095Y-111431022D01*
X160056794Y-111439398D01*
X160109735Y-111473340D01*
X160224483Y-111552117D01*
X160236624Y-111554691D01*
X160247074Y-111561391D01*
X160384079Y-111585955D01*
X160445595Y-111598998D01*
X160457672Y-111599150D01*
X160544675Y-111614749D01*
X160607396Y-111601033D01*
X160796949Y-111603418D01*
X160836680Y-111699337D01*
X160897855Y-111760512D01*
X145114482Y-111764814D01*
X145114185Y-111372000D01*
X145516250Y-111372000D01*
X145675000Y-111213250D01*
X145675000Y-110102000D01*
X145655000Y-110102000D01*
X145655000Y-109848000D01*
X145675000Y-109848000D01*
X145675000Y-108736750D01*
X145516250Y-108578000D01*
X145112075Y-108578000D01*
X145108260Y-103526476D01*
X145273690Y-103595000D01*
X145764250Y-103595000D01*
X145923000Y-103436250D01*
X145923000Y-102337000D01*
X146177000Y-102337000D01*
X146177000Y-103436250D01*
X146225339Y-103484589D01*
X146205000Y-103533691D01*
X146205000Y-104124250D01*
X146363750Y-104283000D01*
X147363000Y-104283000D01*
X147363000Y-103183750D01*
X147617000Y-103183750D01*
X147617000Y-104283000D01*
X148616250Y-104283000D01*
X148775000Y-104124250D01*
X148775000Y-103533691D01*
X148678327Y-103300302D01*
X148499699Y-103121673D01*
X148266310Y-103025000D01*
X147775750Y-103025000D01*
X147617000Y-103183750D01*
X147363000Y-103183750D01*
X147314661Y-103135411D01*
X147335000Y-103086309D01*
X147335000Y-102495750D01*
X147176250Y-102337000D01*
X146177000Y-102337000D01*
X145923000Y-102337000D01*
X145903000Y-102337000D01*
X145903000Y-102083000D01*
X145923000Y-102083000D01*
X145923000Y-102063000D01*
X146177000Y-102063000D01*
X146177000Y-102083000D01*
X147176250Y-102083000D01*
X147335000Y-101924250D01*
X147335000Y-101333691D01*
X147238327Y-101100302D01*
X147059699Y-100921673D01*
X146919791Y-100863721D01*
X146947765Y-100858157D01*
X147157809Y-100717809D01*
X147298157Y-100507765D01*
X147347440Y-100260000D01*
X147347440Y-99681364D01*
X147371952Y-99718049D01*
G36*
X173423748Y-110645858D02*
X173409605Y-110660000D01*
X173423748Y-110674143D01*
X173244143Y-110853748D01*
X173230000Y-110839605D01*
X173215858Y-110853748D01*
X173036253Y-110674143D01*
X173050395Y-110660000D01*
X173036253Y-110645858D01*
X173215858Y-110466253D01*
X173230000Y-110480395D01*
X173244143Y-110466253D01*
X173423748Y-110645858D01*
X173423748Y-110645858D01*
G37*
X173423748Y-110645858D02*
X173409605Y-110660000D01*
X173423748Y-110674143D01*
X173244143Y-110853748D01*
X173230000Y-110839605D01*
X173215858Y-110853748D01*
X173036253Y-110674143D01*
X173050395Y-110660000D01*
X173036253Y-110645858D01*
X173215858Y-110466253D01*
X173230000Y-110480395D01*
X173244143Y-110466253D01*
X173423748Y-110645858D01*
G36*
X153048242Y-82243783D02*
X152845000Y-82734452D01*
X152845000Y-83265548D01*
X153048242Y-83756217D01*
X153423783Y-84131758D01*
X153914452Y-84335000D01*
X154445548Y-84335000D01*
X154936217Y-84131758D01*
X155311758Y-83756217D01*
X155515000Y-83265548D01*
X155515000Y-82734452D01*
X155311758Y-82243783D01*
X154962975Y-81895000D01*
X157798988Y-81895000D01*
X157929570Y-82090430D01*
X158213281Y-82280000D01*
X157929570Y-82469570D01*
X157598350Y-82965275D01*
X157482041Y-83550000D01*
X157557225Y-83927974D01*
X153695528Y-87789671D01*
X153632072Y-87832071D01*
X153589672Y-87895527D01*
X153589671Y-87895528D01*
X153466831Y-88079371D01*
X153464097Y-88083463D01*
X153441392Y-88197611D01*
X153405112Y-88380000D01*
X153420001Y-88454852D01*
X153420000Y-89522225D01*
X153217519Y-89657519D01*
X153087670Y-89851852D01*
X153054473Y-89829671D01*
X152370331Y-89145530D01*
X152327929Y-89082071D01*
X152177440Y-88981517D01*
X152177440Y-88780000D01*
X152128157Y-88532235D01*
X151987809Y-88322191D01*
X151777765Y-88181843D01*
X151530000Y-88132560D01*
X149830000Y-88132560D01*
X149582235Y-88181843D01*
X149372191Y-88322191D01*
X149231843Y-88532235D01*
X149182560Y-88780000D01*
X149182560Y-90480000D01*
X149231843Y-90727765D01*
X149372191Y-90937809D01*
X149582235Y-91078157D01*
X149627619Y-91087184D01*
X149609375Y-91099375D01*
X149281161Y-91590582D01*
X149165908Y-92170000D01*
X149281161Y-92749418D01*
X149609375Y-93240625D01*
X149907761Y-93440000D01*
X149609375Y-93639375D01*
X149281161Y-94130582D01*
X149165908Y-94710000D01*
X149281161Y-95289418D01*
X149609375Y-95780625D01*
X149907761Y-95980000D01*
X149609375Y-96179375D01*
X149281161Y-96670582D01*
X149165908Y-97250000D01*
X149281161Y-97829418D01*
X149609375Y-98320625D01*
X150100582Y-98648839D01*
X150533744Y-98735000D01*
X150826256Y-98735000D01*
X151259418Y-98648839D01*
X151750625Y-98320625D01*
X152078839Y-97829418D01*
X152194092Y-97250000D01*
X152129259Y-96924060D01*
X154599671Y-99394473D01*
X154642071Y-99457929D01*
X154893463Y-99625904D01*
X155115148Y-99670000D01*
X155115152Y-99670000D01*
X155190000Y-99684888D01*
X155264848Y-99670000D01*
X159182998Y-99670000D01*
X159182998Y-99799370D01*
X158960959Y-99678086D01*
X158454866Y-99917611D01*
X158078959Y-100332577D01*
X157918096Y-100720961D01*
X158040085Y-100943000D01*
X159183000Y-100943000D01*
X159183000Y-100923000D01*
X159437000Y-100923000D01*
X159437000Y-100943000D01*
X160579915Y-100943000D01*
X160701904Y-100720961D01*
X160541041Y-100332577D01*
X160165134Y-99917611D01*
X159659041Y-99678086D01*
X159437002Y-99799370D01*
X159437002Y-99670000D01*
X160245153Y-99670000D01*
X160320000Y-99684888D01*
X160394847Y-99670000D01*
X160394852Y-99670000D01*
X160616537Y-99625904D01*
X160867929Y-99457929D01*
X160910331Y-99394470D01*
X162574803Y-97730000D01*
X165472560Y-97730000D01*
X165472560Y-97770000D01*
X165521843Y-98017765D01*
X165662191Y-98227809D01*
X165872235Y-98368157D01*
X166120000Y-98417440D01*
X166271518Y-98417440D01*
X166278671Y-98428144D01*
X166372072Y-98567929D01*
X166435528Y-98610329D01*
X167313144Y-99487945D01*
X167262071Y-99522071D01*
X167219671Y-99585527D01*
X167148302Y-99656896D01*
X167095439Y-99635000D01*
X166524561Y-99635000D01*
X165997138Y-99853466D01*
X165593466Y-100257138D01*
X165375000Y-100784561D01*
X165375000Y-101355439D01*
X165593466Y-101882862D01*
X165997138Y-102286534D01*
X166524561Y-102505000D01*
X167095439Y-102505000D01*
X167622862Y-102286534D01*
X168026534Y-101882862D01*
X168245000Y-101355439D01*
X168245000Y-100830000D01*
X168674549Y-100830000D01*
X168721843Y-101067765D01*
X168862191Y-101277809D01*
X169072235Y-101418157D01*
X169081500Y-101420000D01*
X169072235Y-101421843D01*
X168862191Y-101562191D01*
X168721843Y-101772235D01*
X168672560Y-102020000D01*
X168672560Y-103520000D01*
X168721843Y-103767765D01*
X168862191Y-103977809D01*
X169072235Y-104118157D01*
X169320000Y-104167440D01*
X170620000Y-104167440D01*
X170867765Y-104118157D01*
X171077809Y-103977809D01*
X171218157Y-103767765D01*
X171241397Y-103650927D01*
X171309308Y-103634683D01*
X171465310Y-103603652D01*
X171479962Y-103593862D01*
X171497094Y-103589764D01*
X171625815Y-103496405D01*
X171758049Y-103408049D01*
X171774092Y-103384039D01*
X171584092Y-103895461D01*
X171608144Y-104545460D01*
X171810613Y-105034264D01*
X172077468Y-105132927D01*
X173050395Y-104160000D01*
X173036253Y-104145858D01*
X173215858Y-103966253D01*
X173230000Y-103980395D01*
X173244143Y-103966253D01*
X173423748Y-104145858D01*
X173409605Y-104160000D01*
X174382532Y-105132927D01*
X174649387Y-105034264D01*
X174864274Y-104455853D01*
X174995001Y-104586579D01*
X174995000Y-104998837D01*
X174977663Y-105085998D01*
X174995000Y-105173159D01*
X174995000Y-105173162D01*
X175026597Y-105332013D01*
X175041089Y-107262315D01*
X173959983Y-107865000D01*
X172618711Y-107865000D01*
X172807431Y-107676280D01*
X172965000Y-107295874D01*
X172965000Y-106884126D01*
X172807431Y-106503720D01*
X172516280Y-106212569D01*
X172135874Y-106055000D01*
X171724126Y-106055000D01*
X171343720Y-106212569D01*
X171203792Y-106352497D01*
X170648064Y-106370000D01*
X167425669Y-106370000D01*
X167467440Y-106160000D01*
X167467440Y-105312532D01*
X172257073Y-105312532D01*
X172355736Y-105579387D01*
X172965461Y-105805908D01*
X173615460Y-105781856D01*
X174104264Y-105579387D01*
X174202927Y-105312532D01*
X173230000Y-104339605D01*
X172257073Y-105312532D01*
X167467440Y-105312532D01*
X167467440Y-104760000D01*
X167418157Y-104512235D01*
X167277809Y-104302191D01*
X167067765Y-104161843D01*
X166820000Y-104112560D01*
X165020000Y-104112560D01*
X164772235Y-104161843D01*
X164562191Y-104302191D01*
X164421843Y-104512235D01*
X164372560Y-104760000D01*
X164372560Y-106160000D01*
X164414331Y-106370000D01*
X162620334Y-106370000D01*
X162655000Y-106286309D01*
X162655000Y-105745750D01*
X162496250Y-105587000D01*
X161247000Y-105587000D01*
X161247000Y-105607000D01*
X160993000Y-105607000D01*
X160993000Y-105587000D01*
X160973000Y-105587000D01*
X160973000Y-105333000D01*
X160993000Y-105333000D01*
X160993000Y-104283750D01*
X161247000Y-104283750D01*
X161247000Y-105333000D01*
X162496250Y-105333000D01*
X162655000Y-105174250D01*
X162655000Y-104633691D01*
X162558327Y-104400302D01*
X162379699Y-104221673D01*
X162146310Y-104125000D01*
X161405750Y-104125000D01*
X161247000Y-104283750D01*
X160993000Y-104283750D01*
X160834250Y-104125000D01*
X160093690Y-104125000D01*
X159860301Y-104221673D01*
X159681673Y-104400302D01*
X159585000Y-104633691D01*
X159585000Y-105174250D01*
X159743748Y-105332998D01*
X159587440Y-105332998D01*
X159587440Y-105260000D01*
X159538157Y-105012235D01*
X159397809Y-104802191D01*
X159187765Y-104661843D01*
X158940000Y-104612560D01*
X157440000Y-104612560D01*
X157192235Y-104661843D01*
X156982191Y-104802191D01*
X156841843Y-105012235D01*
X156840000Y-105021500D01*
X156838157Y-105012235D01*
X156697809Y-104802191D01*
X156487765Y-104661843D01*
X156368078Y-104638036D01*
X156323652Y-104414690D01*
X156273482Y-104339605D01*
X156177424Y-104195845D01*
X156177423Y-104195844D01*
X156128049Y-104121951D01*
X156054156Y-104072577D01*
X153400618Y-101419039D01*
X157918096Y-101419039D01*
X158078959Y-101807423D01*
X158454866Y-102222389D01*
X158960959Y-102461914D01*
X159183000Y-102340629D01*
X159183000Y-101197000D01*
X159437000Y-101197000D01*
X159437000Y-102340629D01*
X159659041Y-102461914D01*
X160165134Y-102222389D01*
X160541041Y-101807423D01*
X160701904Y-101419039D01*
X160579915Y-101197000D01*
X159437000Y-101197000D01*
X159183000Y-101197000D01*
X158040085Y-101197000D01*
X157918096Y-101419039D01*
X153400618Y-101419039D01*
X153165000Y-101183422D01*
X153165000Y-101024561D01*
X152946534Y-100497138D01*
X152542862Y-100093466D01*
X152015439Y-99875000D01*
X151546578Y-99875000D01*
X150957425Y-99285847D01*
X150908049Y-99211951D01*
X150615310Y-99016348D01*
X150357165Y-98965000D01*
X150357161Y-98965000D01*
X150270000Y-98947663D01*
X150182839Y-98965000D01*
X149146579Y-98965000D01*
X148895000Y-98713422D01*
X148895000Y-89457161D01*
X148912337Y-89370000D01*
X148895000Y-89282839D01*
X148895000Y-87546578D01*
X151144156Y-85297423D01*
X151218049Y-85248049D01*
X151413652Y-84955310D01*
X151465000Y-84697165D01*
X151465000Y-84697161D01*
X151482337Y-84610000D01*
X151481437Y-84605476D01*
X151537809Y-84567809D01*
X151678157Y-84357765D01*
X151727440Y-84110000D01*
X151727440Y-83110000D01*
X151678157Y-82862235D01*
X151537809Y-82652191D01*
X151327765Y-82511843D01*
X151080000Y-82462560D01*
X150445000Y-82462560D01*
X150445000Y-82205000D01*
X150805766Y-82205000D01*
X151222926Y-82032207D01*
X151283511Y-81971622D01*
X151287106Y-81972337D01*
X151374267Y-81955000D01*
X151374271Y-81955000D01*
X151632416Y-81903652D01*
X151645365Y-81895000D01*
X153397025Y-81895000D01*
X153048242Y-82243783D01*
X153048242Y-82243783D01*
G37*
X153048242Y-82243783D02*
X152845000Y-82734452D01*
X152845000Y-83265548D01*
X153048242Y-83756217D01*
X153423783Y-84131758D01*
X153914452Y-84335000D01*
X154445548Y-84335000D01*
X154936217Y-84131758D01*
X155311758Y-83756217D01*
X155515000Y-83265548D01*
X155515000Y-82734452D01*
X155311758Y-82243783D01*
X154962975Y-81895000D01*
X157798988Y-81895000D01*
X157929570Y-82090430D01*
X158213281Y-82280000D01*
X157929570Y-82469570D01*
X157598350Y-82965275D01*
X157482041Y-83550000D01*
X157557225Y-83927974D01*
X153695528Y-87789671D01*
X153632072Y-87832071D01*
X153589672Y-87895527D01*
X153589671Y-87895528D01*
X153466831Y-88079371D01*
X153464097Y-88083463D01*
X153441392Y-88197611D01*
X153405112Y-88380000D01*
X153420001Y-88454852D01*
X153420000Y-89522225D01*
X153217519Y-89657519D01*
X153087670Y-89851852D01*
X153054473Y-89829671D01*
X152370331Y-89145530D01*
X152327929Y-89082071D01*
X152177440Y-88981517D01*
X152177440Y-88780000D01*
X152128157Y-88532235D01*
X151987809Y-88322191D01*
X151777765Y-88181843D01*
X151530000Y-88132560D01*
X149830000Y-88132560D01*
X149582235Y-88181843D01*
X149372191Y-88322191D01*
X149231843Y-88532235D01*
X149182560Y-88780000D01*
X149182560Y-90480000D01*
X149231843Y-90727765D01*
X149372191Y-90937809D01*
X149582235Y-91078157D01*
X149627619Y-91087184D01*
X149609375Y-91099375D01*
X149281161Y-91590582D01*
X149165908Y-92170000D01*
X149281161Y-92749418D01*
X149609375Y-93240625D01*
X149907761Y-93440000D01*
X149609375Y-93639375D01*
X149281161Y-94130582D01*
X149165908Y-94710000D01*
X149281161Y-95289418D01*
X149609375Y-95780625D01*
X149907761Y-95980000D01*
X149609375Y-96179375D01*
X149281161Y-96670582D01*
X149165908Y-97250000D01*
X149281161Y-97829418D01*
X149609375Y-98320625D01*
X150100582Y-98648839D01*
X150533744Y-98735000D01*
X150826256Y-98735000D01*
X151259418Y-98648839D01*
X151750625Y-98320625D01*
X152078839Y-97829418D01*
X152194092Y-97250000D01*
X152129259Y-96924060D01*
X154599671Y-99394473D01*
X154642071Y-99457929D01*
X154893463Y-99625904D01*
X155115148Y-99670000D01*
X155115152Y-99670000D01*
X155190000Y-99684888D01*
X155264848Y-99670000D01*
X159182998Y-99670000D01*
X159182998Y-99799370D01*
X158960959Y-99678086D01*
X158454866Y-99917611D01*
X158078959Y-100332577D01*
X157918096Y-100720961D01*
X158040085Y-100943000D01*
X159183000Y-100943000D01*
X159183000Y-100923000D01*
X159437000Y-100923000D01*
X159437000Y-100943000D01*
X160579915Y-100943000D01*
X160701904Y-100720961D01*
X160541041Y-100332577D01*
X160165134Y-99917611D01*
X159659041Y-99678086D01*
X159437002Y-99799370D01*
X159437002Y-99670000D01*
X160245153Y-99670000D01*
X160320000Y-99684888D01*
X160394847Y-99670000D01*
X160394852Y-99670000D01*
X160616537Y-99625904D01*
X160867929Y-99457929D01*
X160910331Y-99394470D01*
X162574803Y-97730000D01*
X165472560Y-97730000D01*
X165472560Y-97770000D01*
X165521843Y-98017765D01*
X165662191Y-98227809D01*
X165872235Y-98368157D01*
X166120000Y-98417440D01*
X166271518Y-98417440D01*
X166278671Y-98428144D01*
X166372072Y-98567929D01*
X166435528Y-98610329D01*
X167313144Y-99487945D01*
X167262071Y-99522071D01*
X167219671Y-99585527D01*
X167148302Y-99656896D01*
X167095439Y-99635000D01*
X166524561Y-99635000D01*
X165997138Y-99853466D01*
X165593466Y-100257138D01*
X165375000Y-100784561D01*
X165375000Y-101355439D01*
X165593466Y-101882862D01*
X165997138Y-102286534D01*
X166524561Y-102505000D01*
X167095439Y-102505000D01*
X167622862Y-102286534D01*
X168026534Y-101882862D01*
X168245000Y-101355439D01*
X168245000Y-100830000D01*
X168674549Y-100830000D01*
X168721843Y-101067765D01*
X168862191Y-101277809D01*
X169072235Y-101418157D01*
X169081500Y-101420000D01*
X169072235Y-101421843D01*
X168862191Y-101562191D01*
X168721843Y-101772235D01*
X168672560Y-102020000D01*
X168672560Y-103520000D01*
X168721843Y-103767765D01*
X168862191Y-103977809D01*
X169072235Y-104118157D01*
X169320000Y-104167440D01*
X170620000Y-104167440D01*
X170867765Y-104118157D01*
X171077809Y-103977809D01*
X171218157Y-103767765D01*
X171241397Y-103650927D01*
X171309308Y-103634683D01*
X171465310Y-103603652D01*
X171479962Y-103593862D01*
X171497094Y-103589764D01*
X171625815Y-103496405D01*
X171758049Y-103408049D01*
X171774092Y-103384039D01*
X171584092Y-103895461D01*
X171608144Y-104545460D01*
X171810613Y-105034264D01*
X172077468Y-105132927D01*
X173050395Y-104160000D01*
X173036253Y-104145858D01*
X173215858Y-103966253D01*
X173230000Y-103980395D01*
X173244143Y-103966253D01*
X173423748Y-104145858D01*
X173409605Y-104160000D01*
X174382532Y-105132927D01*
X174649387Y-105034264D01*
X174864274Y-104455853D01*
X174995001Y-104586579D01*
X174995000Y-104998837D01*
X174977663Y-105085998D01*
X174995000Y-105173159D01*
X174995000Y-105173162D01*
X175026597Y-105332013D01*
X175041089Y-107262315D01*
X173959983Y-107865000D01*
X172618711Y-107865000D01*
X172807431Y-107676280D01*
X172965000Y-107295874D01*
X172965000Y-106884126D01*
X172807431Y-106503720D01*
X172516280Y-106212569D01*
X172135874Y-106055000D01*
X171724126Y-106055000D01*
X171343720Y-106212569D01*
X171203792Y-106352497D01*
X170648064Y-106370000D01*
X167425669Y-106370000D01*
X167467440Y-106160000D01*
X167467440Y-105312532D01*
X172257073Y-105312532D01*
X172355736Y-105579387D01*
X172965461Y-105805908D01*
X173615460Y-105781856D01*
X174104264Y-105579387D01*
X174202927Y-105312532D01*
X173230000Y-104339605D01*
X172257073Y-105312532D01*
X167467440Y-105312532D01*
X167467440Y-104760000D01*
X167418157Y-104512235D01*
X167277809Y-104302191D01*
X167067765Y-104161843D01*
X166820000Y-104112560D01*
X165020000Y-104112560D01*
X164772235Y-104161843D01*
X164562191Y-104302191D01*
X164421843Y-104512235D01*
X164372560Y-104760000D01*
X164372560Y-106160000D01*
X164414331Y-106370000D01*
X162620334Y-106370000D01*
X162655000Y-106286309D01*
X162655000Y-105745750D01*
X162496250Y-105587000D01*
X161247000Y-105587000D01*
X161247000Y-105607000D01*
X160993000Y-105607000D01*
X160993000Y-105587000D01*
X160973000Y-105587000D01*
X160973000Y-105333000D01*
X160993000Y-105333000D01*
X160993000Y-104283750D01*
X161247000Y-104283750D01*
X161247000Y-105333000D01*
X162496250Y-105333000D01*
X162655000Y-105174250D01*
X162655000Y-104633691D01*
X162558327Y-104400302D01*
X162379699Y-104221673D01*
X162146310Y-104125000D01*
X161405750Y-104125000D01*
X161247000Y-104283750D01*
X160993000Y-104283750D01*
X160834250Y-104125000D01*
X160093690Y-104125000D01*
X159860301Y-104221673D01*
X159681673Y-104400302D01*
X159585000Y-104633691D01*
X159585000Y-105174250D01*
X159743748Y-105332998D01*
X159587440Y-105332998D01*
X159587440Y-105260000D01*
X159538157Y-105012235D01*
X159397809Y-104802191D01*
X159187765Y-104661843D01*
X158940000Y-104612560D01*
X157440000Y-104612560D01*
X157192235Y-104661843D01*
X156982191Y-104802191D01*
X156841843Y-105012235D01*
X156840000Y-105021500D01*
X156838157Y-105012235D01*
X156697809Y-104802191D01*
X156487765Y-104661843D01*
X156368078Y-104638036D01*
X156323652Y-104414690D01*
X156273482Y-104339605D01*
X156177424Y-104195845D01*
X156177423Y-104195844D01*
X156128049Y-104121951D01*
X156054156Y-104072577D01*
X153400618Y-101419039D01*
X157918096Y-101419039D01*
X158078959Y-101807423D01*
X158454866Y-102222389D01*
X158960959Y-102461914D01*
X159183000Y-102340629D01*
X159183000Y-101197000D01*
X159437000Y-101197000D01*
X159437000Y-102340629D01*
X159659041Y-102461914D01*
X160165134Y-102222389D01*
X160541041Y-101807423D01*
X160701904Y-101419039D01*
X160579915Y-101197000D01*
X159437000Y-101197000D01*
X159183000Y-101197000D01*
X158040085Y-101197000D01*
X157918096Y-101419039D01*
X153400618Y-101419039D01*
X153165000Y-101183422D01*
X153165000Y-101024561D01*
X152946534Y-100497138D01*
X152542862Y-100093466D01*
X152015439Y-99875000D01*
X151546578Y-99875000D01*
X150957425Y-99285847D01*
X150908049Y-99211951D01*
X150615310Y-99016348D01*
X150357165Y-98965000D01*
X150357161Y-98965000D01*
X150270000Y-98947663D01*
X150182839Y-98965000D01*
X149146579Y-98965000D01*
X148895000Y-98713422D01*
X148895000Y-89457161D01*
X148912337Y-89370000D01*
X148895000Y-89282839D01*
X148895000Y-87546578D01*
X151144156Y-85297423D01*
X151218049Y-85248049D01*
X151413652Y-84955310D01*
X151465000Y-84697165D01*
X151465000Y-84697161D01*
X151482337Y-84610000D01*
X151481437Y-84605476D01*
X151537809Y-84567809D01*
X151678157Y-84357765D01*
X151727440Y-84110000D01*
X151727440Y-83110000D01*
X151678157Y-82862235D01*
X151537809Y-82652191D01*
X151327765Y-82511843D01*
X151080000Y-82462560D01*
X150445000Y-82462560D01*
X150445000Y-82205000D01*
X150805766Y-82205000D01*
X151222926Y-82032207D01*
X151283511Y-81971622D01*
X151287106Y-81972337D01*
X151374267Y-81955000D01*
X151374271Y-81955000D01*
X151632416Y-81903652D01*
X151645365Y-81895000D01*
X153397025Y-81895000D01*
X153048242Y-82243783D01*
G36*
X178730000Y-92115802D02*
X178245222Y-91915000D01*
X177594778Y-91915000D01*
X176993847Y-92163914D01*
X176533914Y-92623847D01*
X176285000Y-93224778D01*
X176285000Y-93875222D01*
X176533914Y-94476153D01*
X176993847Y-94936086D01*
X177594778Y-95185000D01*
X178245222Y-95185000D01*
X178730001Y-94984198D01*
X178730001Y-98615802D01*
X178245222Y-98415000D01*
X177594778Y-98415000D01*
X176993847Y-98663914D01*
X176533914Y-99123847D01*
X176285000Y-99724778D01*
X176285000Y-100375222D01*
X176533914Y-100976153D01*
X176993847Y-101436086D01*
X177594778Y-101685000D01*
X178245222Y-101685000D01*
X178515053Y-101573232D01*
X178147865Y-102563374D01*
X178055222Y-102525000D01*
X177404778Y-102525000D01*
X176803847Y-102773914D01*
X176343914Y-103233847D01*
X176285778Y-103374199D01*
X174577425Y-101665847D01*
X174528049Y-101591951D01*
X174304240Y-101442406D01*
X174392927Y-101202532D01*
X173420000Y-100229605D01*
X173405858Y-100243748D01*
X173226253Y-100064143D01*
X173240395Y-100050000D01*
X173599605Y-100050000D01*
X174572532Y-101022927D01*
X174839387Y-100924264D01*
X175065908Y-100314539D01*
X175041856Y-99664540D01*
X174839387Y-99175736D01*
X174572532Y-99077073D01*
X173599605Y-100050000D01*
X173240395Y-100050000D01*
X173226253Y-100035858D01*
X173405858Y-99856253D01*
X173420000Y-99870395D01*
X174392927Y-98897468D01*
X174294264Y-98630613D01*
X173684539Y-98404092D01*
X173034540Y-98428144D01*
X172545736Y-98630613D01*
X172493095Y-98772993D01*
X172479371Y-94789890D01*
X172545736Y-94969387D01*
X173155461Y-95195908D01*
X173805460Y-95171856D01*
X174294264Y-94969387D01*
X174392927Y-94702532D01*
X173420000Y-93729605D01*
X173405858Y-93743748D01*
X173226253Y-93564143D01*
X173240395Y-93550000D01*
X173599605Y-93550000D01*
X174572532Y-94522927D01*
X174839387Y-94424264D01*
X175065908Y-93814539D01*
X175041856Y-93164540D01*
X174839387Y-92675736D01*
X174572532Y-92577073D01*
X173599605Y-93550000D01*
X173240395Y-93550000D01*
X173226253Y-93535858D01*
X173405858Y-93356253D01*
X173420000Y-93370395D01*
X174392927Y-92397468D01*
X174294264Y-92130613D01*
X173684539Y-91904092D01*
X173034540Y-91928144D01*
X172545736Y-92130613D01*
X172470907Y-92333005D01*
X172466610Y-91085907D01*
X173055614Y-90683221D01*
X173124155Y-90637423D01*
X173127512Y-90634066D01*
X173131435Y-90631384D01*
X173189162Y-90572416D01*
X173191040Y-90570538D01*
X173263744Y-90585000D01*
X173556256Y-90585000D01*
X173989418Y-90498839D01*
X174480625Y-90170625D01*
X174604656Y-89985000D01*
X176102839Y-89985000D01*
X176190000Y-90002337D01*
X176277161Y-89985000D01*
X176277165Y-89985000D01*
X176535310Y-89933652D01*
X176828049Y-89738049D01*
X176877425Y-89664153D01*
X178104156Y-88437423D01*
X178178049Y-88388049D01*
X178259368Y-88266348D01*
X178373651Y-88095311D01*
X178373652Y-88095310D01*
X178413959Y-87892674D01*
X178637765Y-87848157D01*
X178730000Y-87786527D01*
X178730000Y-92115802D01*
X178730000Y-92115802D01*
G37*
X178730000Y-92115802D02*
X178245222Y-91915000D01*
X177594778Y-91915000D01*
X176993847Y-92163914D01*
X176533914Y-92623847D01*
X176285000Y-93224778D01*
X176285000Y-93875222D01*
X176533914Y-94476153D01*
X176993847Y-94936086D01*
X177594778Y-95185000D01*
X178245222Y-95185000D01*
X178730001Y-94984198D01*
X178730001Y-98615802D01*
X178245222Y-98415000D01*
X177594778Y-98415000D01*
X176993847Y-98663914D01*
X176533914Y-99123847D01*
X176285000Y-99724778D01*
X176285000Y-100375222D01*
X176533914Y-100976153D01*
X176993847Y-101436086D01*
X177594778Y-101685000D01*
X178245222Y-101685000D01*
X178515053Y-101573232D01*
X178147865Y-102563374D01*
X178055222Y-102525000D01*
X177404778Y-102525000D01*
X176803847Y-102773914D01*
X176343914Y-103233847D01*
X176285778Y-103374199D01*
X174577425Y-101665847D01*
X174528049Y-101591951D01*
X174304240Y-101442406D01*
X174392927Y-101202532D01*
X173420000Y-100229605D01*
X173405858Y-100243748D01*
X173226253Y-100064143D01*
X173240395Y-100050000D01*
X173599605Y-100050000D01*
X174572532Y-101022927D01*
X174839387Y-100924264D01*
X175065908Y-100314539D01*
X175041856Y-99664540D01*
X174839387Y-99175736D01*
X174572532Y-99077073D01*
X173599605Y-100050000D01*
X173240395Y-100050000D01*
X173226253Y-100035858D01*
X173405858Y-99856253D01*
X173420000Y-99870395D01*
X174392927Y-98897468D01*
X174294264Y-98630613D01*
X173684539Y-98404092D01*
X173034540Y-98428144D01*
X172545736Y-98630613D01*
X172493095Y-98772993D01*
X172479371Y-94789890D01*
X172545736Y-94969387D01*
X173155461Y-95195908D01*
X173805460Y-95171856D01*
X174294264Y-94969387D01*
X174392927Y-94702532D01*
X173420000Y-93729605D01*
X173405858Y-93743748D01*
X173226253Y-93564143D01*
X173240395Y-93550000D01*
X173599605Y-93550000D01*
X174572532Y-94522927D01*
X174839387Y-94424264D01*
X175065908Y-93814539D01*
X175041856Y-93164540D01*
X174839387Y-92675736D01*
X174572532Y-92577073D01*
X173599605Y-93550000D01*
X173240395Y-93550000D01*
X173226253Y-93535858D01*
X173405858Y-93356253D01*
X173420000Y-93370395D01*
X174392927Y-92397468D01*
X174294264Y-92130613D01*
X173684539Y-91904092D01*
X173034540Y-91928144D01*
X172545736Y-92130613D01*
X172470907Y-92333005D01*
X172466610Y-91085907D01*
X173055614Y-90683221D01*
X173124155Y-90637423D01*
X173127512Y-90634066D01*
X173131435Y-90631384D01*
X173189162Y-90572416D01*
X173191040Y-90570538D01*
X173263744Y-90585000D01*
X173556256Y-90585000D01*
X173989418Y-90498839D01*
X174480625Y-90170625D01*
X174604656Y-89985000D01*
X176102839Y-89985000D01*
X176190000Y-90002337D01*
X176277161Y-89985000D01*
X176277165Y-89985000D01*
X176535310Y-89933652D01*
X176828049Y-89738049D01*
X176877425Y-89664153D01*
X178104156Y-88437423D01*
X178178049Y-88388049D01*
X178259368Y-88266348D01*
X178373651Y-88095311D01*
X178373652Y-88095310D01*
X178413959Y-87892674D01*
X178637765Y-87848157D01*
X178730000Y-87786527D01*
X178730000Y-92115802D01*
G36*
X168861109Y-82901608D02*
X168872791Y-82909597D01*
X168928714Y-82933468D01*
X168983723Y-82959392D01*
X168997458Y-82962812D01*
X171935043Y-84216746D01*
X172011161Y-84599418D01*
X172339375Y-85090625D01*
X172658478Y-85303843D01*
X172528642Y-85364817D01*
X172138355Y-85793076D01*
X171968524Y-86203110D01*
X172089845Y-86433000D01*
X173283000Y-86433000D01*
X173283000Y-86413000D01*
X173537000Y-86413000D01*
X173537000Y-86433000D01*
X174730155Y-86433000D01*
X174851476Y-86203110D01*
X174681645Y-85793076D01*
X174291358Y-85364817D01*
X174161522Y-85303843D01*
X174480625Y-85090625D01*
X174808839Y-84599418D01*
X174915980Y-84060782D01*
X175199671Y-84344473D01*
X175242071Y-84407929D01*
X175493463Y-84575904D01*
X175715148Y-84620000D01*
X175715152Y-84620000D01*
X175789999Y-84634888D01*
X175864846Y-84620000D01*
X176261822Y-84620000D01*
X176469375Y-84930625D01*
X176487619Y-84942816D01*
X176442235Y-84951843D01*
X176232191Y-85092191D01*
X176091843Y-85302235D01*
X176042560Y-85550000D01*
X176042560Y-87250000D01*
X176091843Y-87497765D01*
X176232191Y-87707809D01*
X176291190Y-87747231D01*
X175823422Y-88215000D01*
X174604656Y-88215000D01*
X174480625Y-88029375D01*
X174161522Y-87816157D01*
X174291358Y-87755183D01*
X174681645Y-87326924D01*
X174851476Y-86916890D01*
X174730155Y-86687000D01*
X173537000Y-86687000D01*
X173537000Y-86707000D01*
X173283000Y-86707000D01*
X173283000Y-86687000D01*
X172089845Y-86687000D01*
X171968524Y-86916890D01*
X172138355Y-87326924D01*
X172528642Y-87755183D01*
X172658478Y-87816157D01*
X172339375Y-88029375D01*
X172011161Y-88520582D01*
X171895908Y-89100000D01*
X171936524Y-89304193D01*
X171083067Y-89887680D01*
X170939757Y-89984154D01*
X170888865Y-90060890D01*
X170824444Y-90126696D01*
X170792507Y-90206180D01*
X170745164Y-90277565D01*
X170727510Y-90367944D01*
X170693179Y-90453386D01*
X170695016Y-90626108D01*
X170722809Y-98693010D01*
X170620000Y-98672560D01*
X169320000Y-98672560D01*
X169072235Y-98721843D01*
X168862191Y-98862191D01*
X168852098Y-98877296D01*
X168187743Y-98212942D01*
X168318157Y-98017765D01*
X168367440Y-97770000D01*
X168367440Y-96170000D01*
X168318157Y-95922235D01*
X168177809Y-95712191D01*
X167967765Y-95571843D01*
X167833894Y-95545215D01*
X167954577Y-95464577D01*
X168271740Y-94989909D01*
X168383113Y-94430000D01*
X168271740Y-93870091D01*
X167954577Y-93395423D01*
X167602242Y-93160000D01*
X167954577Y-92924577D01*
X168271740Y-92449909D01*
X168383113Y-91890000D01*
X168271740Y-91330091D01*
X167954577Y-90855423D01*
X167570892Y-90599053D01*
X167775134Y-90502389D01*
X168151041Y-90087423D01*
X168311904Y-89699039D01*
X168189915Y-89477000D01*
X167047000Y-89477000D01*
X167047000Y-89497000D01*
X166793000Y-89497000D01*
X166793000Y-89477000D01*
X165650085Y-89477000D01*
X165528096Y-89699039D01*
X165688959Y-90087423D01*
X166064866Y-90502389D01*
X166269108Y-90599053D01*
X165885423Y-90855423D01*
X165568260Y-91330091D01*
X165456887Y-91890000D01*
X165457405Y-91892604D01*
X164899331Y-91334530D01*
X164856929Y-91271071D01*
X164605537Y-91103096D01*
X164531462Y-91088362D01*
X164506320Y-91027663D01*
X164408657Y-90930000D01*
X164506320Y-90832337D01*
X164719000Y-90318881D01*
X164719000Y-89763119D01*
X164506320Y-89249663D01*
X164257618Y-89000961D01*
X165528096Y-89000961D01*
X165650085Y-89223000D01*
X166793000Y-89223000D01*
X166793000Y-88079371D01*
X167047000Y-88079371D01*
X167047000Y-89223000D01*
X168189915Y-89223000D01*
X168311904Y-89000961D01*
X168151041Y-88612577D01*
X167775134Y-88197611D01*
X167269041Y-87958086D01*
X167047000Y-88079371D01*
X166793000Y-88079371D01*
X166570959Y-87958086D01*
X166064866Y-88197611D01*
X165688959Y-88612577D01*
X165528096Y-89000961D01*
X164257618Y-89000961D01*
X164113337Y-88856680D01*
X163599881Y-88644000D01*
X163044119Y-88644000D01*
X162530663Y-88856680D01*
X162137680Y-89249663D01*
X162120676Y-89290715D01*
X161995975Y-89315520D01*
X161947832Y-89325096D01*
X161856163Y-89386348D01*
X161696441Y-89493071D01*
X161654041Y-89556527D01*
X160975530Y-90235039D01*
X160912071Y-90277441D01*
X160744096Y-90528834D01*
X160700000Y-90750519D01*
X160700000Y-90750523D01*
X160685112Y-90825370D01*
X160700000Y-90900217D01*
X160700000Y-91572712D01*
X160651740Y-91330091D01*
X160334577Y-90855423D01*
X159982242Y-90620000D01*
X160334577Y-90384577D01*
X160651740Y-89909909D01*
X160763113Y-89350000D01*
X160651740Y-88790091D01*
X160334577Y-88315423D01*
X159859909Y-87998260D01*
X159441333Y-87915000D01*
X159158667Y-87915000D01*
X158740091Y-87998260D01*
X158265423Y-88315423D01*
X157948260Y-88790091D01*
X157836887Y-89350000D01*
X157948260Y-89909909D01*
X158265423Y-90384577D01*
X158617758Y-90620000D01*
X158265423Y-90855423D01*
X157948260Y-91330091D01*
X157836887Y-91890000D01*
X157948260Y-92449909D01*
X158265423Y-92924577D01*
X158617758Y-93160000D01*
X158265423Y-93395423D01*
X157948260Y-93870091D01*
X157836887Y-94430000D01*
X157948260Y-94989909D01*
X158265423Y-95464577D01*
X158617758Y-95700000D01*
X158265423Y-95935423D01*
X157948260Y-96410091D01*
X157836887Y-96970000D01*
X157948260Y-97529909D01*
X158265423Y-98004577D01*
X158483064Y-98150000D01*
X155504802Y-98150000D01*
X153330000Y-95975199D01*
X153330000Y-91657638D01*
X153659109Y-91877542D01*
X154048515Y-91955000D01*
X154311485Y-91955000D01*
X154700891Y-91877542D01*
X155142481Y-91582481D01*
X155437542Y-91140891D01*
X155541154Y-90620000D01*
X155437542Y-90099109D01*
X155142481Y-89657519D01*
X154940000Y-89522226D01*
X154940000Y-88694801D01*
X158632026Y-85002775D01*
X158862402Y-85048600D01*
X159157598Y-85048600D01*
X159594725Y-84961650D01*
X160090430Y-84630430D01*
X160280000Y-84346719D01*
X160469570Y-84630430D01*
X160965275Y-84961650D01*
X161402402Y-85048600D01*
X161697598Y-85048600D01*
X162134725Y-84961650D01*
X162630430Y-84630430D01*
X162820000Y-84346719D01*
X162883167Y-84441255D01*
X162125043Y-86217137D01*
X161223724Y-86230013D01*
X161116280Y-86122569D01*
X160735874Y-85965000D01*
X160324126Y-85965000D01*
X159943720Y-86122569D01*
X159652569Y-86413720D01*
X159495000Y-86794126D01*
X159495000Y-87205874D01*
X159652569Y-87586280D01*
X159943720Y-87877431D01*
X160324126Y-88035000D01*
X160735874Y-88035000D01*
X161116280Y-87877431D01*
X161243832Y-87749879D01*
X162556386Y-87731129D01*
X162621647Y-87744843D01*
X162706091Y-87728990D01*
X162715700Y-87728853D01*
X162779614Y-87715188D01*
X162918802Y-87689058D01*
X162927072Y-87683660D01*
X162936732Y-87681595D01*
X163053384Y-87601217D01*
X163171990Y-87523803D01*
X163177566Y-87515650D01*
X163185699Y-87510046D01*
X163262699Y-87391166D01*
X163299583Y-87337233D01*
X163303355Y-87328397D01*
X163350066Y-87256280D01*
X163362141Y-87190694D01*
X164280221Y-85040122D01*
X164674725Y-84961650D01*
X165169228Y-84631233D01*
X165228073Y-84773298D01*
X165406701Y-84951927D01*
X165640090Y-85048600D01*
X166344250Y-85048600D01*
X166503000Y-84889850D01*
X166503000Y-83677000D01*
X166757000Y-83677000D01*
X166757000Y-84889850D01*
X166915750Y-85048600D01*
X167619910Y-85048600D01*
X167853299Y-84951927D01*
X168031927Y-84773298D01*
X168128600Y-84539909D01*
X168128600Y-83835750D01*
X167969850Y-83677000D01*
X166757000Y-83677000D01*
X166503000Y-83677000D01*
X166483000Y-83677000D01*
X166483000Y-83423000D01*
X166503000Y-83423000D01*
X166503000Y-83403000D01*
X166757000Y-83403000D01*
X166757000Y-83423000D01*
X167969850Y-83423000D01*
X168128600Y-83264250D01*
X168128600Y-82560091D01*
X168126702Y-82555508D01*
X168861109Y-82901608D01*
X168861109Y-82901608D01*
G37*
X168861109Y-82901608D02*
X168872791Y-82909597D01*
X168928714Y-82933468D01*
X168983723Y-82959392D01*
X168997458Y-82962812D01*
X171935043Y-84216746D01*
X172011161Y-84599418D01*
X172339375Y-85090625D01*
X172658478Y-85303843D01*
X172528642Y-85364817D01*
X172138355Y-85793076D01*
X171968524Y-86203110D01*
X172089845Y-86433000D01*
X173283000Y-86433000D01*
X173283000Y-86413000D01*
X173537000Y-86413000D01*
X173537000Y-86433000D01*
X174730155Y-86433000D01*
X174851476Y-86203110D01*
X174681645Y-85793076D01*
X174291358Y-85364817D01*
X174161522Y-85303843D01*
X174480625Y-85090625D01*
X174808839Y-84599418D01*
X174915980Y-84060782D01*
X175199671Y-84344473D01*
X175242071Y-84407929D01*
X175493463Y-84575904D01*
X175715148Y-84620000D01*
X175715152Y-84620000D01*
X175789999Y-84634888D01*
X175864846Y-84620000D01*
X176261822Y-84620000D01*
X176469375Y-84930625D01*
X176487619Y-84942816D01*
X176442235Y-84951843D01*
X176232191Y-85092191D01*
X176091843Y-85302235D01*
X176042560Y-85550000D01*
X176042560Y-87250000D01*
X176091843Y-87497765D01*
X176232191Y-87707809D01*
X176291190Y-87747231D01*
X175823422Y-88215000D01*
X174604656Y-88215000D01*
X174480625Y-88029375D01*
X174161522Y-87816157D01*
X174291358Y-87755183D01*
X174681645Y-87326924D01*
X174851476Y-86916890D01*
X174730155Y-86687000D01*
X173537000Y-86687000D01*
X173537000Y-86707000D01*
X173283000Y-86707000D01*
X173283000Y-86687000D01*
X172089845Y-86687000D01*
X171968524Y-86916890D01*
X172138355Y-87326924D01*
X172528642Y-87755183D01*
X172658478Y-87816157D01*
X172339375Y-88029375D01*
X172011161Y-88520582D01*
X171895908Y-89100000D01*
X171936524Y-89304193D01*
X171083067Y-89887680D01*
X170939757Y-89984154D01*
X170888865Y-90060890D01*
X170824444Y-90126696D01*
X170792507Y-90206180D01*
X170745164Y-90277565D01*
X170727510Y-90367944D01*
X170693179Y-90453386D01*
X170695016Y-90626108D01*
X170722809Y-98693010D01*
X170620000Y-98672560D01*
X169320000Y-98672560D01*
X169072235Y-98721843D01*
X168862191Y-98862191D01*
X168852098Y-98877296D01*
X168187743Y-98212942D01*
X168318157Y-98017765D01*
X168367440Y-97770000D01*
X168367440Y-96170000D01*
X168318157Y-95922235D01*
X168177809Y-95712191D01*
X167967765Y-95571843D01*
X167833894Y-95545215D01*
X167954577Y-95464577D01*
X168271740Y-94989909D01*
X168383113Y-94430000D01*
X168271740Y-93870091D01*
X167954577Y-93395423D01*
X167602242Y-93160000D01*
X167954577Y-92924577D01*
X168271740Y-92449909D01*
X168383113Y-91890000D01*
X168271740Y-91330091D01*
X167954577Y-90855423D01*
X167570892Y-90599053D01*
X167775134Y-90502389D01*
X168151041Y-90087423D01*
X168311904Y-89699039D01*
X168189915Y-89477000D01*
X167047000Y-89477000D01*
X167047000Y-89497000D01*
X166793000Y-89497000D01*
X166793000Y-89477000D01*
X165650085Y-89477000D01*
X165528096Y-89699039D01*
X165688959Y-90087423D01*
X166064866Y-90502389D01*
X166269108Y-90599053D01*
X165885423Y-90855423D01*
X165568260Y-91330091D01*
X165456887Y-91890000D01*
X165457405Y-91892604D01*
X164899331Y-91334530D01*
X164856929Y-91271071D01*
X164605537Y-91103096D01*
X164531462Y-91088362D01*
X164506320Y-91027663D01*
X164408657Y-90930000D01*
X164506320Y-90832337D01*
X164719000Y-90318881D01*
X164719000Y-89763119D01*
X164506320Y-89249663D01*
X164257618Y-89000961D01*
X165528096Y-89000961D01*
X165650085Y-89223000D01*
X166793000Y-89223000D01*
X166793000Y-88079371D01*
X167047000Y-88079371D01*
X167047000Y-89223000D01*
X168189915Y-89223000D01*
X168311904Y-89000961D01*
X168151041Y-88612577D01*
X167775134Y-88197611D01*
X167269041Y-87958086D01*
X167047000Y-88079371D01*
X166793000Y-88079371D01*
X166570959Y-87958086D01*
X166064866Y-88197611D01*
X165688959Y-88612577D01*
X165528096Y-89000961D01*
X164257618Y-89000961D01*
X164113337Y-88856680D01*
X163599881Y-88644000D01*
X163044119Y-88644000D01*
X162530663Y-88856680D01*
X162137680Y-89249663D01*
X162120676Y-89290715D01*
X161995975Y-89315520D01*
X161947832Y-89325096D01*
X161856163Y-89386348D01*
X161696441Y-89493071D01*
X161654041Y-89556527D01*
X160975530Y-90235039D01*
X160912071Y-90277441D01*
X160744096Y-90528834D01*
X160700000Y-90750519D01*
X160700000Y-90750523D01*
X160685112Y-90825370D01*
X160700000Y-90900217D01*
X160700000Y-91572712D01*
X160651740Y-91330091D01*
X160334577Y-90855423D01*
X159982242Y-90620000D01*
X160334577Y-90384577D01*
X160651740Y-89909909D01*
X160763113Y-89350000D01*
X160651740Y-88790091D01*
X160334577Y-88315423D01*
X159859909Y-87998260D01*
X159441333Y-87915000D01*
X159158667Y-87915000D01*
X158740091Y-87998260D01*
X158265423Y-88315423D01*
X157948260Y-88790091D01*
X157836887Y-89350000D01*
X157948260Y-89909909D01*
X158265423Y-90384577D01*
X158617758Y-90620000D01*
X158265423Y-90855423D01*
X157948260Y-91330091D01*
X157836887Y-91890000D01*
X157948260Y-92449909D01*
X158265423Y-92924577D01*
X158617758Y-93160000D01*
X158265423Y-93395423D01*
X157948260Y-93870091D01*
X157836887Y-94430000D01*
X157948260Y-94989909D01*
X158265423Y-95464577D01*
X158617758Y-95700000D01*
X158265423Y-95935423D01*
X157948260Y-96410091D01*
X157836887Y-96970000D01*
X157948260Y-97529909D01*
X158265423Y-98004577D01*
X158483064Y-98150000D01*
X155504802Y-98150000D01*
X153330000Y-95975199D01*
X153330000Y-91657638D01*
X153659109Y-91877542D01*
X154048515Y-91955000D01*
X154311485Y-91955000D01*
X154700891Y-91877542D01*
X155142481Y-91582481D01*
X155437542Y-91140891D01*
X155541154Y-90620000D01*
X155437542Y-90099109D01*
X155142481Y-89657519D01*
X154940000Y-89522226D01*
X154940000Y-88694801D01*
X158632026Y-85002775D01*
X158862402Y-85048600D01*
X159157598Y-85048600D01*
X159594725Y-84961650D01*
X160090430Y-84630430D01*
X160280000Y-84346719D01*
X160469570Y-84630430D01*
X160965275Y-84961650D01*
X161402402Y-85048600D01*
X161697598Y-85048600D01*
X162134725Y-84961650D01*
X162630430Y-84630430D01*
X162820000Y-84346719D01*
X162883167Y-84441255D01*
X162125043Y-86217137D01*
X161223724Y-86230013D01*
X161116280Y-86122569D01*
X160735874Y-85965000D01*
X160324126Y-85965000D01*
X159943720Y-86122569D01*
X159652569Y-86413720D01*
X159495000Y-86794126D01*
X159495000Y-87205874D01*
X159652569Y-87586280D01*
X159943720Y-87877431D01*
X160324126Y-88035000D01*
X160735874Y-88035000D01*
X161116280Y-87877431D01*
X161243832Y-87749879D01*
X162556386Y-87731129D01*
X162621647Y-87744843D01*
X162706091Y-87728990D01*
X162715700Y-87728853D01*
X162779614Y-87715188D01*
X162918802Y-87689058D01*
X162927072Y-87683660D01*
X162936732Y-87681595D01*
X163053384Y-87601217D01*
X163171990Y-87523803D01*
X163177566Y-87515650D01*
X163185699Y-87510046D01*
X163262699Y-87391166D01*
X163299583Y-87337233D01*
X163303355Y-87328397D01*
X163350066Y-87256280D01*
X163362141Y-87190694D01*
X164280221Y-85040122D01*
X164674725Y-84961650D01*
X165169228Y-84631233D01*
X165228073Y-84773298D01*
X165406701Y-84951927D01*
X165640090Y-85048600D01*
X166344250Y-85048600D01*
X166503000Y-84889850D01*
X166503000Y-83677000D01*
X166757000Y-83677000D01*
X166757000Y-84889850D01*
X166915750Y-85048600D01*
X167619910Y-85048600D01*
X167853299Y-84951927D01*
X168031927Y-84773298D01*
X168128600Y-84539909D01*
X168128600Y-83835750D01*
X167969850Y-83677000D01*
X166757000Y-83677000D01*
X166503000Y-83677000D01*
X166483000Y-83677000D01*
X166483000Y-83423000D01*
X166503000Y-83423000D01*
X166503000Y-83403000D01*
X166757000Y-83403000D01*
X166757000Y-83423000D01*
X167969850Y-83423000D01*
X168128600Y-83264250D01*
X168128600Y-82560091D01*
X168126702Y-82555508D01*
X168861109Y-82901608D01*
G36*
X164376348Y-73514691D02*
X164336042Y-73717326D01*
X164112235Y-73761843D01*
X163902191Y-73902191D01*
X163761843Y-74112235D01*
X163712560Y-74360000D01*
X163712560Y-75055861D01*
X159240526Y-79527895D01*
X159157598Y-79511400D01*
X158862402Y-79511400D01*
X158425275Y-79598350D01*
X157929570Y-79929570D01*
X157798988Y-80125000D01*
X151434267Y-80125000D01*
X151347106Y-80107663D01*
X151259945Y-80125000D01*
X151259941Y-80125000D01*
X151243419Y-80128286D01*
X151222926Y-80107793D01*
X150805766Y-79935000D01*
X150354234Y-79935000D01*
X149937074Y-80107793D01*
X149617793Y-80427074D01*
X149445000Y-80844234D01*
X149445000Y-81205000D01*
X149084234Y-81205000D01*
X148685000Y-81370368D01*
X148685000Y-78582578D01*
X150174579Y-77093000D01*
X150597881Y-77093000D01*
X151111337Y-76880320D01*
X151504320Y-76487337D01*
X151590000Y-76280487D01*
X151675680Y-76487337D01*
X152068663Y-76880320D01*
X152582119Y-77093000D01*
X153137881Y-77093000D01*
X153651337Y-76880320D01*
X154003000Y-76528657D01*
X154003000Y-76584310D01*
X154099673Y-76817699D01*
X154278302Y-76996327D01*
X154511691Y-77093000D01*
X155114250Y-77093000D01*
X155273000Y-76934250D01*
X155273000Y-75823000D01*
X155253000Y-75823000D01*
X155253000Y-75569000D01*
X155273000Y-75569000D01*
X155273000Y-74457750D01*
X155527000Y-74457750D01*
X155527000Y-75569000D01*
X155547000Y-75569000D01*
X155547000Y-75823000D01*
X155527000Y-75823000D01*
X155527000Y-76934250D01*
X155685750Y-77093000D01*
X156288309Y-77093000D01*
X156521698Y-76996327D01*
X156700327Y-76817699D01*
X156797000Y-76584310D01*
X156797000Y-76528657D01*
X157148663Y-76880320D01*
X157662119Y-77093000D01*
X158217881Y-77093000D01*
X158731337Y-76880320D01*
X159124320Y-76487337D01*
X159337000Y-75973881D01*
X159337000Y-75418119D01*
X159124320Y-74904663D01*
X158731337Y-74511680D01*
X158217881Y-74299000D01*
X157662119Y-74299000D01*
X157148663Y-74511680D01*
X156797000Y-74863343D01*
X156797000Y-74807690D01*
X156700327Y-74574301D01*
X156521698Y-74395673D01*
X156288309Y-74299000D01*
X155685750Y-74299000D01*
X155527000Y-74457750D01*
X155273000Y-74457750D01*
X155114250Y-74299000D01*
X154511691Y-74299000D01*
X154278302Y-74395673D01*
X154099673Y-74574301D01*
X154003000Y-74807690D01*
X154003000Y-74863343D01*
X153651337Y-74511680D01*
X153137881Y-74299000D01*
X152582119Y-74299000D01*
X152068663Y-74511680D01*
X151675680Y-74904663D01*
X151590000Y-75111513D01*
X151504320Y-74904663D01*
X151111337Y-74511680D01*
X150597881Y-74299000D01*
X150042119Y-74299000D01*
X149528663Y-74511680D01*
X149135680Y-74904663D01*
X148923000Y-75418119D01*
X148923000Y-75841421D01*
X147235845Y-77528577D01*
X147161952Y-77577951D01*
X147112578Y-77651844D01*
X147112576Y-77651846D01*
X146966348Y-77870691D01*
X146897663Y-78216000D01*
X146915001Y-78303165D01*
X146915000Y-80726590D01*
X146766310Y-80665000D01*
X146275750Y-80665000D01*
X146117000Y-80823750D01*
X146117000Y-81923000D01*
X146137000Y-81923000D01*
X146137000Y-82177000D01*
X146117000Y-82177000D01*
X146117000Y-82197000D01*
X145863000Y-82197000D01*
X145863000Y-82177000D01*
X145843000Y-82177000D01*
X145843000Y-81923000D01*
X145863000Y-81923000D01*
X145863000Y-80823750D01*
X145704250Y-80665000D01*
X145213690Y-80665000D01*
X145091031Y-80715807D01*
X145085516Y-73414067D01*
X164461212Y-73387684D01*
X164376348Y-73514691D01*
X164376348Y-73514691D01*
G37*
X164376348Y-73514691D02*
X164336042Y-73717326D01*
X164112235Y-73761843D01*
X163902191Y-73902191D01*
X163761843Y-74112235D01*
X163712560Y-74360000D01*
X163712560Y-75055861D01*
X159240526Y-79527895D01*
X159157598Y-79511400D01*
X158862402Y-79511400D01*
X158425275Y-79598350D01*
X157929570Y-79929570D01*
X157798988Y-80125000D01*
X151434267Y-80125000D01*
X151347106Y-80107663D01*
X151259945Y-80125000D01*
X151259941Y-80125000D01*
X151243419Y-80128286D01*
X151222926Y-80107793D01*
X150805766Y-79935000D01*
X150354234Y-79935000D01*
X149937074Y-80107793D01*
X149617793Y-80427074D01*
X149445000Y-80844234D01*
X149445000Y-81205000D01*
X149084234Y-81205000D01*
X148685000Y-81370368D01*
X148685000Y-78582578D01*
X150174579Y-77093000D01*
X150597881Y-77093000D01*
X151111337Y-76880320D01*
X151504320Y-76487337D01*
X151590000Y-76280487D01*
X151675680Y-76487337D01*
X152068663Y-76880320D01*
X152582119Y-77093000D01*
X153137881Y-77093000D01*
X153651337Y-76880320D01*
X154003000Y-76528657D01*
X154003000Y-76584310D01*
X154099673Y-76817699D01*
X154278302Y-76996327D01*
X154511691Y-77093000D01*
X155114250Y-77093000D01*
X155273000Y-76934250D01*
X155273000Y-75823000D01*
X155253000Y-75823000D01*
X155253000Y-75569000D01*
X155273000Y-75569000D01*
X155273000Y-74457750D01*
X155527000Y-74457750D01*
X155527000Y-75569000D01*
X155547000Y-75569000D01*
X155547000Y-75823000D01*
X155527000Y-75823000D01*
X155527000Y-76934250D01*
X155685750Y-77093000D01*
X156288309Y-77093000D01*
X156521698Y-76996327D01*
X156700327Y-76817699D01*
X156797000Y-76584310D01*
X156797000Y-76528657D01*
X157148663Y-76880320D01*
X157662119Y-77093000D01*
X158217881Y-77093000D01*
X158731337Y-76880320D01*
X159124320Y-76487337D01*
X159337000Y-75973881D01*
X159337000Y-75418119D01*
X159124320Y-74904663D01*
X158731337Y-74511680D01*
X158217881Y-74299000D01*
X157662119Y-74299000D01*
X157148663Y-74511680D01*
X156797000Y-74863343D01*
X156797000Y-74807690D01*
X156700327Y-74574301D01*
X156521698Y-74395673D01*
X156288309Y-74299000D01*
X155685750Y-74299000D01*
X155527000Y-74457750D01*
X155273000Y-74457750D01*
X155114250Y-74299000D01*
X154511691Y-74299000D01*
X154278302Y-74395673D01*
X154099673Y-74574301D01*
X154003000Y-74807690D01*
X154003000Y-74863343D01*
X153651337Y-74511680D01*
X153137881Y-74299000D01*
X152582119Y-74299000D01*
X152068663Y-74511680D01*
X151675680Y-74904663D01*
X151590000Y-75111513D01*
X151504320Y-74904663D01*
X151111337Y-74511680D01*
X150597881Y-74299000D01*
X150042119Y-74299000D01*
X149528663Y-74511680D01*
X149135680Y-74904663D01*
X148923000Y-75418119D01*
X148923000Y-75841421D01*
X147235845Y-77528577D01*
X147161952Y-77577951D01*
X147112578Y-77651844D01*
X147112576Y-77651846D01*
X146966348Y-77870691D01*
X146897663Y-78216000D01*
X146915001Y-78303165D01*
X146915000Y-80726590D01*
X146766310Y-80665000D01*
X146275750Y-80665000D01*
X146117000Y-80823750D01*
X146117000Y-81923000D01*
X146137000Y-81923000D01*
X146137000Y-82177000D01*
X146117000Y-82177000D01*
X146117000Y-82197000D01*
X145863000Y-82197000D01*
X145863000Y-82177000D01*
X145843000Y-82177000D01*
X145843000Y-81923000D01*
X145863000Y-81923000D01*
X145863000Y-80823750D01*
X145704250Y-80665000D01*
X145213690Y-80665000D01*
X145091031Y-80715807D01*
X145085516Y-73414067D01*
X164461212Y-73387684D01*
X164376348Y-73514691D01*
G36*
X171159468Y-74570000D02*
X171159463Y-74570000D01*
X170937778Y-74614096D01*
X170686386Y-74782071D01*
X170643986Y-74845527D01*
X170185528Y-75303986D01*
X170122072Y-75346386D01*
X169954096Y-75597778D01*
X169925686Y-75740603D01*
X169792569Y-75873720D01*
X169635000Y-76254126D01*
X169635000Y-76665874D01*
X169792569Y-77046280D01*
X170016289Y-77270000D01*
X164001579Y-77270000D01*
X164564139Y-76707440D01*
X166060000Y-76707440D01*
X166307765Y-76658157D01*
X166517809Y-76517809D01*
X166658157Y-76307765D01*
X166678739Y-76204292D01*
X166983076Y-76481645D01*
X167393110Y-76651476D01*
X167623000Y-76530155D01*
X167623000Y-75337000D01*
X167877000Y-75337000D01*
X167877000Y-76530155D01*
X168106890Y-76651476D01*
X168516924Y-76481645D01*
X168945183Y-76091358D01*
X169191486Y-75566892D01*
X169070819Y-75337000D01*
X167877000Y-75337000D01*
X167623000Y-75337000D01*
X167603000Y-75337000D01*
X167603000Y-75083000D01*
X167623000Y-75083000D01*
X167623000Y-75063000D01*
X167877000Y-75063000D01*
X167877000Y-75083000D01*
X169070819Y-75083000D01*
X169191486Y-74853108D01*
X169056183Y-74565000D01*
X171184605Y-74565000D01*
X171159468Y-74570000D01*
X171159468Y-74570000D01*
G37*
X171159468Y-74570000D02*
X171159463Y-74570000D01*
X170937778Y-74614096D01*
X170686386Y-74782071D01*
X170643986Y-74845527D01*
X170185528Y-75303986D01*
X170122072Y-75346386D01*
X169954096Y-75597778D01*
X169925686Y-75740603D01*
X169792569Y-75873720D01*
X169635000Y-76254126D01*
X169635000Y-76665874D01*
X169792569Y-77046280D01*
X170016289Y-77270000D01*
X164001579Y-77270000D01*
X164564139Y-76707440D01*
X166060000Y-76707440D01*
X166307765Y-76658157D01*
X166517809Y-76517809D01*
X166658157Y-76307765D01*
X166678739Y-76204292D01*
X166983076Y-76481645D01*
X167393110Y-76651476D01*
X167623000Y-76530155D01*
X167623000Y-75337000D01*
X167877000Y-75337000D01*
X167877000Y-76530155D01*
X168106890Y-76651476D01*
X168516924Y-76481645D01*
X168945183Y-76091358D01*
X169191486Y-75566892D01*
X169070819Y-75337000D01*
X167877000Y-75337000D01*
X167623000Y-75337000D01*
X167603000Y-75337000D01*
X167603000Y-75083000D01*
X167623000Y-75083000D01*
X167623000Y-75063000D01*
X167877000Y-75063000D01*
X167877000Y-75083000D01*
X169070819Y-75083000D01*
X169191486Y-74853108D01*
X169056183Y-74565000D01*
X171184605Y-74565000D01*
X171159468Y-74570000D01*
G04 #@! TD*
M02*
