G04 #@! TF.GenerationSoftware,KiCad,Pcbnew,5.0.0-fee4fd1~66~ubuntu16.04.1*
G04 #@! TF.CreationDate,2018-08-17T12:37:58+02:00*
G04 #@! TF.ProjectId,Garden_Guardian,47617264656E5F477561726469616E2E,rev?*
G04 #@! TF.SameCoordinates,Original*
G04 #@! TF.FileFunction,Legend,Top*
G04 #@! TF.FilePolarity,Positive*
%FSLAX46Y46*%
G04 Gerber Fmt 4.6, Leading zero omitted, Abs format (unit mm)*
G04 Created by KiCad (PCBNEW 5.0.0-fee4fd1~66~ubuntu16.04.1) date Fri Aug 17 12:37:58 2018*
%MOMM*%
%LPD*%
G01*
G04 APERTURE LIST*
%ADD10C,0.300000*%
%ADD11C,0.250000*%
%ADD12C,0.150000*%
%ADD13C,0.120000*%
%ADD14C,0.254000*%
%ADD15C,0.152400*%
%ADD16C,0.200000*%
G04 APERTURE END LIST*
D10*
X146268571Y-92502857D02*
X144768571Y-92502857D01*
X144768571Y-91931428D01*
X144840000Y-91788571D01*
X144911428Y-91717142D01*
X145054285Y-91645714D01*
X145268571Y-91645714D01*
X145411428Y-91717142D01*
X145482857Y-91788571D01*
X145554285Y-91931428D01*
X145554285Y-92502857D01*
X145890000Y-104277142D02*
X145890000Y-103562857D01*
X146318571Y-104420000D02*
X144818571Y-103920000D01*
X146318571Y-103420000D01*
D11*
X153512380Y-111702380D02*
X152512380Y-111702380D01*
X152512380Y-111464285D01*
X152560000Y-111321428D01*
X152655238Y-111226190D01*
X152750476Y-111178571D01*
X152940952Y-111130952D01*
X153083809Y-111130952D01*
X153274285Y-111178571D01*
X153369523Y-111226190D01*
X153464761Y-111321428D01*
X153512380Y-111464285D01*
X153512380Y-111702380D01*
X153512380Y-110273809D02*
X152988571Y-110273809D01*
X152893333Y-110321428D01*
X152845714Y-110416666D01*
X152845714Y-110607142D01*
X152893333Y-110702380D01*
X153464761Y-110273809D02*
X153512380Y-110369047D01*
X153512380Y-110607142D01*
X153464761Y-110702380D01*
X153369523Y-110750000D01*
X153274285Y-110750000D01*
X153179047Y-110702380D01*
X153131428Y-110607142D01*
X153131428Y-110369047D01*
X153083809Y-110273809D01*
X152845714Y-109940476D02*
X152845714Y-109559523D01*
X152512380Y-109797619D02*
X153369523Y-109797619D01*
X153464761Y-109750000D01*
X153512380Y-109654761D01*
X153512380Y-109559523D01*
X153512380Y-109083333D02*
X153464761Y-109178571D01*
X153417142Y-109226190D01*
X153321904Y-109273809D01*
X153036190Y-109273809D01*
X152940952Y-109226190D01*
X152893333Y-109178571D01*
X152845714Y-109083333D01*
X152845714Y-108940476D01*
X152893333Y-108845238D01*
X152940952Y-108797619D01*
X153036190Y-108750000D01*
X153321904Y-108750000D01*
X153417142Y-108797619D01*
X153464761Y-108845238D01*
X153512380Y-108940476D01*
X153512380Y-109083333D01*
X153737380Y-98418095D02*
X152737380Y-98418095D01*
X152737380Y-98037142D01*
X152785000Y-97941904D01*
X152832619Y-97894285D01*
X152927857Y-97846666D01*
X153070714Y-97846666D01*
X153165952Y-97894285D01*
X153213571Y-97941904D01*
X153261190Y-98037142D01*
X153261190Y-98418095D01*
X153737380Y-97418095D02*
X153070714Y-97418095D01*
X153261190Y-97418095D02*
X153165952Y-97370476D01*
X153118333Y-97322857D01*
X153070714Y-97227619D01*
X153070714Y-97132380D01*
X153737380Y-96656190D02*
X153689761Y-96751428D01*
X153642142Y-96799047D01*
X153546904Y-96846666D01*
X153261190Y-96846666D01*
X153165952Y-96799047D01*
X153118333Y-96751428D01*
X153070714Y-96656190D01*
X153070714Y-96513333D01*
X153118333Y-96418095D01*
X153165952Y-96370476D01*
X153261190Y-96322857D01*
X153546904Y-96322857D01*
X153642142Y-96370476D01*
X153689761Y-96418095D01*
X153737380Y-96513333D01*
X153737380Y-96656190D01*
X153070714Y-95465714D02*
X153880238Y-95465714D01*
X153975476Y-95513333D01*
X154023095Y-95560952D01*
X154070714Y-95656190D01*
X154070714Y-95799047D01*
X154023095Y-95894285D01*
X153689761Y-95465714D02*
X153737380Y-95560952D01*
X153737380Y-95751428D01*
X153689761Y-95846666D01*
X153642142Y-95894285D01*
X153546904Y-95941904D01*
X153261190Y-95941904D01*
X153165952Y-95894285D01*
X153118333Y-95846666D01*
X153070714Y-95751428D01*
X153070714Y-95560952D01*
X153118333Y-95465714D01*
X153737380Y-94989523D02*
X153070714Y-94989523D01*
X153261190Y-94989523D02*
X153165952Y-94941904D01*
X153118333Y-94894285D01*
X153070714Y-94799047D01*
X153070714Y-94703809D01*
X153737380Y-93941904D02*
X153213571Y-93941904D01*
X153118333Y-93989523D01*
X153070714Y-94084761D01*
X153070714Y-94275238D01*
X153118333Y-94370476D01*
X153689761Y-93941904D02*
X153737380Y-94037142D01*
X153737380Y-94275238D01*
X153689761Y-94370476D01*
X153594523Y-94418095D01*
X153499285Y-94418095D01*
X153404047Y-94370476D01*
X153356428Y-94275238D01*
X153356428Y-94037142D01*
X153308809Y-93941904D01*
X153737380Y-93465714D02*
X153070714Y-93465714D01*
X153165952Y-93465714D02*
X153118333Y-93418095D01*
X153070714Y-93322857D01*
X153070714Y-93180000D01*
X153118333Y-93084761D01*
X153213571Y-93037142D01*
X153737380Y-93037142D01*
X153213571Y-93037142D02*
X153118333Y-92989523D01*
X153070714Y-92894285D01*
X153070714Y-92751428D01*
X153118333Y-92656190D01*
X153213571Y-92608571D01*
X153737380Y-92608571D01*
X153737380Y-91703809D02*
X153213571Y-91703809D01*
X153118333Y-91751428D01*
X153070714Y-91846666D01*
X153070714Y-92037142D01*
X153118333Y-92132380D01*
X153689761Y-91703809D02*
X153737380Y-91799047D01*
X153737380Y-92037142D01*
X153689761Y-92132380D01*
X153594523Y-92180000D01*
X153499285Y-92180000D01*
X153404047Y-92132380D01*
X153356428Y-92037142D01*
X153356428Y-91799047D01*
X153308809Y-91703809D01*
X155201666Y-96560952D02*
X155201666Y-96084761D01*
X155487380Y-96656190D02*
X154487380Y-96322857D01*
X155487380Y-95989523D01*
X154820714Y-95799047D02*
X154820714Y-95418095D01*
X154487380Y-95656190D02*
X155344523Y-95656190D01*
X155439761Y-95608571D01*
X155487380Y-95513333D01*
X155487380Y-95418095D01*
X154820714Y-95227619D02*
X154820714Y-94846666D01*
X154487380Y-95084761D02*
X155344523Y-95084761D01*
X155439761Y-95037142D01*
X155487380Y-94941904D01*
X155487380Y-94846666D01*
X155487380Y-94513333D02*
X154820714Y-94513333D01*
X154487380Y-94513333D02*
X154535000Y-94560952D01*
X154582619Y-94513333D01*
X154535000Y-94465714D01*
X154487380Y-94513333D01*
X154582619Y-94513333D01*
X154820714Y-94037142D02*
X155487380Y-94037142D01*
X154915952Y-94037142D02*
X154868333Y-93989523D01*
X154820714Y-93894285D01*
X154820714Y-93751428D01*
X154868333Y-93656190D01*
X154963571Y-93608571D01*
X155487380Y-93608571D01*
X154820714Y-93227619D02*
X155487380Y-92989523D01*
X154820714Y-92751428D02*
X155487380Y-92989523D01*
X155725476Y-93084761D01*
X155773095Y-93132380D01*
X155820714Y-93227619D01*
D10*
X180648571Y-108897142D02*
X179934285Y-109397142D01*
X180648571Y-109754285D02*
X179148571Y-109754285D01*
X179148571Y-109182857D01*
X179220000Y-109040000D01*
X179291428Y-108968571D01*
X179434285Y-108897142D01*
X179648571Y-108897142D01*
X179791428Y-108968571D01*
X179862857Y-109040000D01*
X179934285Y-109182857D01*
X179934285Y-109754285D01*
X180577142Y-107682857D02*
X180648571Y-107825714D01*
X180648571Y-108111428D01*
X180577142Y-108254285D01*
X180434285Y-108325714D01*
X179862857Y-108325714D01*
X179720000Y-108254285D01*
X179648571Y-108111428D01*
X179648571Y-107825714D01*
X179720000Y-107682857D01*
X179862857Y-107611428D01*
X180005714Y-107611428D01*
X180148571Y-108325714D01*
X180577142Y-107040000D02*
X180648571Y-106897142D01*
X180648571Y-106611428D01*
X180577142Y-106468571D01*
X180434285Y-106397142D01*
X180362857Y-106397142D01*
X180220000Y-106468571D01*
X180148571Y-106611428D01*
X180148571Y-106825714D01*
X180077142Y-106968571D01*
X179934285Y-107040000D01*
X179862857Y-107040000D01*
X179720000Y-106968571D01*
X179648571Y-106825714D01*
X179648571Y-106611428D01*
X179720000Y-106468571D01*
X180577142Y-105182857D02*
X180648571Y-105325714D01*
X180648571Y-105611428D01*
X180577142Y-105754285D01*
X180434285Y-105825714D01*
X179862857Y-105825714D01*
X179720000Y-105754285D01*
X179648571Y-105611428D01*
X179648571Y-105325714D01*
X179720000Y-105182857D01*
X179862857Y-105111428D01*
X180005714Y-105111428D01*
X180148571Y-105825714D01*
X179648571Y-104682857D02*
X179648571Y-104111428D01*
X179148571Y-104468571D02*
X180434285Y-104468571D01*
X180577142Y-104397142D01*
X180648571Y-104254285D01*
X180648571Y-104111428D01*
X179852857Y-98512857D02*
X179852857Y-99012857D01*
X180638571Y-99012857D02*
X179138571Y-99012857D01*
X179138571Y-98298571D01*
X180638571Y-97512857D02*
X180567142Y-97655714D01*
X180424285Y-97727142D01*
X179138571Y-97727142D01*
X180638571Y-96298571D02*
X179852857Y-96298571D01*
X179710000Y-96370000D01*
X179638571Y-96512857D01*
X179638571Y-96798571D01*
X179710000Y-96941428D01*
X180567142Y-96298571D02*
X180638571Y-96441428D01*
X180638571Y-96798571D01*
X180567142Y-96941428D01*
X180424285Y-97012857D01*
X180281428Y-97012857D01*
X180138571Y-96941428D01*
X180067142Y-96798571D01*
X180067142Y-96441428D01*
X179995714Y-96298571D01*
X180567142Y-95655714D02*
X180638571Y-95512857D01*
X180638571Y-95227142D01*
X180567142Y-95084285D01*
X180424285Y-95012857D01*
X180352857Y-95012857D01*
X180210000Y-95084285D01*
X180138571Y-95227142D01*
X180138571Y-95441428D01*
X180067142Y-95584285D01*
X179924285Y-95655714D01*
X179852857Y-95655714D01*
X179710000Y-95584285D01*
X179638571Y-95441428D01*
X179638571Y-95227142D01*
X179710000Y-95084285D01*
X180638571Y-94370000D02*
X179138571Y-94370000D01*
X180638571Y-93727142D02*
X179852857Y-93727142D01*
X179710000Y-93798571D01*
X179638571Y-93941428D01*
X179638571Y-94155714D01*
X179710000Y-94298571D01*
X179781428Y-94370000D01*
D11*
X171252380Y-90796666D02*
X170252380Y-90796666D01*
X170252380Y-90415714D01*
X170300000Y-90320476D01*
X170347619Y-90272857D01*
X170442857Y-90225238D01*
X170585714Y-90225238D01*
X170680952Y-90272857D01*
X170728571Y-90320476D01*
X170776190Y-90415714D01*
X170776190Y-90796666D01*
X171252380Y-89796666D02*
X170585714Y-89796666D01*
X170776190Y-89796666D02*
X170680952Y-89749047D01*
X170633333Y-89701428D01*
X170585714Y-89606190D01*
X170585714Y-89510952D01*
X171252380Y-89034761D02*
X171204761Y-89130000D01*
X171157142Y-89177619D01*
X171061904Y-89225238D01*
X170776190Y-89225238D01*
X170680952Y-89177619D01*
X170633333Y-89130000D01*
X170585714Y-89034761D01*
X170585714Y-88891904D01*
X170633333Y-88796666D01*
X170680952Y-88749047D01*
X170776190Y-88701428D01*
X171061904Y-88701428D01*
X171157142Y-88749047D01*
X171204761Y-88796666D01*
X171252380Y-88891904D01*
X171252380Y-89034761D01*
X170585714Y-87844285D02*
X171395238Y-87844285D01*
X171490476Y-87891904D01*
X171538095Y-87939523D01*
X171585714Y-88034761D01*
X171585714Y-88177619D01*
X171538095Y-88272857D01*
X171204761Y-87844285D02*
X171252380Y-87939523D01*
X171252380Y-88130000D01*
X171204761Y-88225238D01*
X171157142Y-88272857D01*
X171061904Y-88320476D01*
X170776190Y-88320476D01*
X170680952Y-88272857D01*
X170633333Y-88225238D01*
X170585714Y-88130000D01*
X170585714Y-87939523D01*
X170633333Y-87844285D01*
X171252380Y-87368095D02*
X170585714Y-87368095D01*
X170776190Y-87368095D02*
X170680952Y-87320476D01*
X170633333Y-87272857D01*
X170585714Y-87177619D01*
X170585714Y-87082380D01*
X171252380Y-86320476D02*
X170728571Y-86320476D01*
X170633333Y-86368095D01*
X170585714Y-86463333D01*
X170585714Y-86653809D01*
X170633333Y-86749047D01*
X171204761Y-86320476D02*
X171252380Y-86415714D01*
X171252380Y-86653809D01*
X171204761Y-86749047D01*
X171109523Y-86796666D01*
X171014285Y-86796666D01*
X170919047Y-86749047D01*
X170871428Y-86653809D01*
X170871428Y-86415714D01*
X170823809Y-86320476D01*
X171252380Y-85844285D02*
X170585714Y-85844285D01*
X170680952Y-85844285D02*
X170633333Y-85796666D01*
X170585714Y-85701428D01*
X170585714Y-85558571D01*
X170633333Y-85463333D01*
X170728571Y-85415714D01*
X171252380Y-85415714D01*
X170728571Y-85415714D02*
X170633333Y-85368095D01*
X170585714Y-85272857D01*
X170585714Y-85130000D01*
X170633333Y-85034761D01*
X170728571Y-84987142D01*
X171252380Y-84987142D01*
X171252380Y-84082380D02*
X170728571Y-84082380D01*
X170633333Y-84130000D01*
X170585714Y-84225238D01*
X170585714Y-84415714D01*
X170633333Y-84510952D01*
X171204761Y-84082380D02*
X171252380Y-84177619D01*
X171252380Y-84415714D01*
X171204761Y-84510952D01*
X171109523Y-84558571D01*
X171014285Y-84558571D01*
X170919047Y-84510952D01*
X170871428Y-84415714D01*
X170871428Y-84177619D01*
X170823809Y-84082380D01*
X170728571Y-82844285D02*
X170728571Y-82510952D01*
X171252380Y-82368095D02*
X171252380Y-82844285D01*
X170252380Y-82844285D01*
X170252380Y-82368095D01*
X171204761Y-81987142D02*
X171252380Y-81844285D01*
X171252380Y-81606190D01*
X171204761Y-81510952D01*
X171157142Y-81463333D01*
X171061904Y-81415714D01*
X170966666Y-81415714D01*
X170871428Y-81463333D01*
X170823809Y-81510952D01*
X170776190Y-81606190D01*
X170728571Y-81796666D01*
X170680952Y-81891904D01*
X170633333Y-81939523D01*
X170538095Y-81987142D01*
X170442857Y-81987142D01*
X170347619Y-81939523D01*
X170300000Y-81891904D01*
X170252380Y-81796666D01*
X170252380Y-81558571D01*
X170300000Y-81415714D01*
X171252380Y-80987142D02*
X170252380Y-80987142D01*
X170252380Y-80606190D01*
X170300000Y-80510952D01*
X170347619Y-80463333D01*
X170442857Y-80415714D01*
X170585714Y-80415714D01*
X170680952Y-80463333D01*
X170728571Y-80510952D01*
X170776190Y-80606190D01*
X170776190Y-80987142D01*
X180654761Y-89385238D02*
X180702380Y-89242380D01*
X180702380Y-89004285D01*
X180654761Y-88909047D01*
X180607142Y-88861428D01*
X180511904Y-88813809D01*
X180416666Y-88813809D01*
X180321428Y-88861428D01*
X180273809Y-88909047D01*
X180226190Y-89004285D01*
X180178571Y-89194761D01*
X180130952Y-89290000D01*
X180083333Y-89337619D01*
X179988095Y-89385238D01*
X179892857Y-89385238D01*
X179797619Y-89337619D01*
X179750000Y-89290000D01*
X179702380Y-89194761D01*
X179702380Y-88956666D01*
X179750000Y-88813809D01*
X180702380Y-88242380D02*
X180654761Y-88337619D01*
X180559523Y-88385238D01*
X179702380Y-88385238D01*
X180702380Y-87432857D02*
X180178571Y-87432857D01*
X180083333Y-87480476D01*
X180035714Y-87575714D01*
X180035714Y-87766190D01*
X180083333Y-87861428D01*
X180654761Y-87432857D02*
X180702380Y-87528095D01*
X180702380Y-87766190D01*
X180654761Y-87861428D01*
X180559523Y-87909047D01*
X180464285Y-87909047D01*
X180369047Y-87861428D01*
X180321428Y-87766190D01*
X180321428Y-87528095D01*
X180273809Y-87432857D01*
X180035714Y-87051904D02*
X180702380Y-86813809D01*
X180035714Y-86575714D01*
X180654761Y-85813809D02*
X180702380Y-85909047D01*
X180702380Y-86099523D01*
X180654761Y-86194761D01*
X180559523Y-86242380D01*
X180178571Y-86242380D01*
X180083333Y-86194761D01*
X180035714Y-86099523D01*
X180035714Y-85909047D01*
X180083333Y-85813809D01*
X180178571Y-85766190D01*
X180273809Y-85766190D01*
X180369047Y-86242380D01*
X180702380Y-84575714D02*
X179702380Y-84575714D01*
X180416666Y-84242380D01*
X179702380Y-83909047D01*
X180702380Y-83909047D01*
X180702380Y-83290000D02*
X180654761Y-83385238D01*
X180607142Y-83432857D01*
X180511904Y-83480476D01*
X180226190Y-83480476D01*
X180130952Y-83432857D01*
X180083333Y-83385238D01*
X180035714Y-83290000D01*
X180035714Y-83147142D01*
X180083333Y-83051904D01*
X180130952Y-83004285D01*
X180226190Y-82956666D01*
X180511904Y-82956666D01*
X180607142Y-83004285D01*
X180654761Y-83051904D01*
X180702380Y-83147142D01*
X180702380Y-83290000D01*
X180702380Y-82099523D02*
X179702380Y-82099523D01*
X180654761Y-82099523D02*
X180702380Y-82194761D01*
X180702380Y-82385238D01*
X180654761Y-82480476D01*
X180607142Y-82528095D01*
X180511904Y-82575714D01*
X180226190Y-82575714D01*
X180130952Y-82528095D01*
X180083333Y-82480476D01*
X180035714Y-82385238D01*
X180035714Y-82194761D01*
X180083333Y-82099523D01*
X180654761Y-81242380D02*
X180702380Y-81337619D01*
X180702380Y-81528095D01*
X180654761Y-81623333D01*
X180559523Y-81670952D01*
X180178571Y-81670952D01*
X180083333Y-81623333D01*
X180035714Y-81528095D01*
X180035714Y-81337619D01*
X180083333Y-81242380D01*
X180178571Y-81194761D01*
X180273809Y-81194761D01*
X180369047Y-81670952D01*
D10*
X164580000Y-77868571D02*
X164580000Y-76368571D01*
X165151428Y-76368571D01*
X165294285Y-76440000D01*
X165365714Y-76511428D01*
X165437142Y-76654285D01*
X165437142Y-76868571D01*
X165365714Y-77011428D01*
X165294285Y-77082857D01*
X165151428Y-77154285D01*
X164580000Y-77154285D01*
X165937142Y-76368571D02*
X166294285Y-77868571D01*
X166580000Y-76797142D01*
X166865714Y-77868571D01*
X167222857Y-76368571D01*
X168651428Y-77868571D02*
X168151428Y-77154285D01*
X167794285Y-77868571D02*
X167794285Y-76368571D01*
X168365714Y-76368571D01*
X168508571Y-76440000D01*
X168580000Y-76511428D01*
X168651428Y-76654285D01*
X168651428Y-76868571D01*
X168580000Y-77011428D01*
X168508571Y-77082857D01*
X168365714Y-77154285D01*
X167794285Y-77154285D01*
X161678571Y-73897142D02*
X162821428Y-73897142D01*
X162250000Y-74468571D02*
X162250000Y-73325714D01*
D12*
G04 #@! TO.C,U103*
X147780000Y-67060000D02*
X147780000Y-74560000D01*
X147780000Y-67060000D02*
X160080000Y-67060000D01*
X160080000Y-67060000D02*
X160080000Y-74560000D01*
X147780000Y-74560000D02*
X160080000Y-74560000D01*
G04 #@! TO.C,U104*
X152152000Y-108340000D02*
X144278000Y-108340000D01*
X144278000Y-111840000D02*
X144278000Y-108340000D01*
X152152000Y-111896000D02*
X144278000Y-111896000D01*
X152152000Y-108340000D02*
X152152000Y-111840000D01*
D13*
G04 #@! TO.C,C101*
X160290000Y-101070000D02*
X161100000Y-101070000D01*
X165830000Y-101070000D02*
X165020000Y-101070000D01*
X161100000Y-102430000D02*
X165020000Y-102430000D01*
X161100000Y-99710000D02*
X161100000Y-102430000D01*
X165020000Y-99710000D02*
X161100000Y-99710000D01*
X165020000Y-102430000D02*
X165020000Y-99710000D01*
G04 #@! TO.C,J101*
X163940000Y-76480000D02*
X163940000Y-75210000D01*
X165210000Y-76480000D02*
X163940000Y-76480000D01*
X168130000Y-74167071D02*
X168130000Y-73770000D01*
X167370000Y-74167071D02*
X167370000Y-73770000D01*
X168130000Y-65110000D02*
X168130000Y-71110000D01*
X167370000Y-65110000D02*
X168130000Y-65110000D01*
X167370000Y-71110000D02*
X167370000Y-65110000D01*
X166480000Y-73770000D02*
X166480000Y-71110000D01*
X165590000Y-74100000D02*
X165590000Y-73770000D01*
X164830000Y-74100000D02*
X164830000Y-73770000D01*
X165490000Y-71110000D02*
X165490000Y-65110000D01*
X165370000Y-71110000D02*
X165370000Y-65110000D01*
X165250000Y-71110000D02*
X165250000Y-65110000D01*
X165130000Y-71110000D02*
X165130000Y-65110000D01*
X165010000Y-71110000D02*
X165010000Y-65110000D01*
X164890000Y-71110000D02*
X164890000Y-65110000D01*
X165590000Y-65110000D02*
X165590000Y-71110000D01*
X164830000Y-65110000D02*
X165590000Y-65110000D01*
X164830000Y-71110000D02*
X164830000Y-65110000D01*
X163880000Y-71110000D02*
X163880000Y-73770000D01*
X169080000Y-71110000D02*
X163880000Y-71110000D01*
X169080000Y-73770000D02*
X169080000Y-71110000D01*
X163880000Y-73770000D02*
X169080000Y-73770000D01*
G04 #@! TO.C,J102*
X172080000Y-90430000D02*
X174740000Y-90430000D01*
X172080000Y-82750000D02*
X172080000Y-90430000D01*
X174740000Y-82750000D02*
X174740000Y-90430000D01*
X172080000Y-82750000D02*
X174740000Y-82750000D01*
X172080000Y-81480000D02*
X172080000Y-80150000D01*
X172080000Y-80150000D02*
X173410000Y-80150000D01*
G04 #@! TO.C,J103*
X149350000Y-88300000D02*
X150680000Y-88300000D01*
X149350000Y-89630000D02*
X149350000Y-88300000D01*
X149350000Y-90900000D02*
X152010000Y-90900000D01*
X152010000Y-90900000D02*
X152010000Y-98580000D01*
X149350000Y-90900000D02*
X149350000Y-98580000D01*
X149350000Y-98580000D02*
X152010000Y-98580000D01*
G04 #@! TO.C,JP101*
X178870000Y-87730000D02*
X177540000Y-87730000D01*
X178870000Y-86400000D02*
X178870000Y-87730000D01*
X178870000Y-85130000D02*
X176210000Y-85130000D01*
X176210000Y-85130000D02*
X176210000Y-82530000D01*
X178870000Y-85130000D02*
X178870000Y-82530000D01*
X178870000Y-82530000D02*
X176210000Y-82530000D01*
G04 #@! TO.C,Q101*
X152418478Y-80501522D02*
G75*
G03X147980000Y-82340000I-1838478J-1838478D01*
G01*
X152418478Y-84178478D02*
G75*
G02X147980000Y-82340000I-1838478J1838478D01*
G01*
X152430000Y-84140000D02*
X152430000Y-80540000D01*
G04 #@! TO.C,SW101*
X176230000Y-103910000D02*
X174730000Y-103910000D01*
X172230000Y-105160000D02*
X172230000Y-109660000D01*
X174730000Y-110910000D02*
X176230000Y-110910000D01*
X178730000Y-109660000D02*
X178730000Y-105160000D01*
G04 #@! TO.C,SW102*
X178920000Y-99050000D02*
X178920000Y-94550000D01*
X174920000Y-100300000D02*
X176420000Y-100300000D01*
X172420000Y-94550000D02*
X172420000Y-99050000D01*
X176420000Y-93300000D02*
X174920000Y-93300000D01*
D14*
G04 #@! TO.C,U101*
X169932000Y-79232000D02*
X169932000Y-103870000D01*
X169932000Y-103870000D02*
X155708000Y-103870000D01*
X155708000Y-103870000D02*
X155708000Y-79232000D01*
X155708000Y-79232000D02*
X169932000Y-79232000D01*
D15*
X167900000Y-82280000D02*
X167900000Y-79740000D01*
X167900000Y-79740000D02*
X165360000Y-79740000D01*
X165360000Y-79740000D02*
X157740000Y-79740000D01*
X157740000Y-79740000D02*
X157740000Y-84820000D01*
X157740000Y-84820000D02*
X167900000Y-84820000D01*
X167900000Y-84820000D02*
X167900000Y-82280000D01*
D13*
G04 #@! TO.C,U102*
X160460000Y-98300000D02*
X162110000Y-98300000D01*
X160460000Y-88020000D02*
X160460000Y-98300000D01*
X165760000Y-88020000D02*
X160460000Y-88020000D01*
X165760000Y-98300000D02*
X165760000Y-88020000D01*
X164110000Y-98300000D02*
X165760000Y-98300000D01*
X162110000Y-98300000D02*
G75*
G02X164110000Y-98300000I1000000J0D01*
G01*
D16*
G04 #@! TO.C,U105*
X164520000Y-106110000D02*
X164520000Y-108110000D01*
X164520000Y-108110000D02*
X162520000Y-108110000D01*
X162520000Y-108110000D02*
X162520000Y-106610000D01*
X162520000Y-106610000D02*
X163020000Y-106110000D01*
X163020000Y-106110000D02*
X164520000Y-106110000D01*
X164520000Y-104610000D02*
X162520000Y-104610000D01*
X161020000Y-106610000D02*
X161020000Y-107610000D01*
X164520000Y-109610000D02*
X162520000Y-109610000D01*
X166020000Y-106610000D02*
X166020000Y-107610000D01*
D13*
G04 #@! TO.C,R109*
X155040000Y-84950000D02*
X153320000Y-84950000D01*
X153320000Y-84950000D02*
X153320000Y-88670000D01*
X153320000Y-88670000D02*
X155040000Y-88670000D01*
X155040000Y-88670000D02*
X155040000Y-84950000D01*
X154180000Y-83880000D02*
X154180000Y-84950000D01*
X154180000Y-89740000D02*
X154180000Y-88670000D01*
G04 #@! TO.C,D101*
X145300000Y-103060000D02*
X146800000Y-103060000D01*
X145300000Y-103060000D02*
X145300000Y-99860000D01*
X146800000Y-99860000D02*
X146800000Y-103060000D01*
G04 #@! TO.C,D102*
X145260000Y-89870000D02*
X145260000Y-86670000D01*
X146760000Y-86670000D02*
X146760000Y-89870000D01*
X146760000Y-86670000D02*
X145260000Y-86670000D01*
G04 #@! TO.C,R101*
X172000000Y-77280000D02*
X172000000Y-76080000D01*
X173760000Y-76080000D02*
X173760000Y-77280000D01*
G04 #@! TO.C,R102*
X149597856Y-103938027D02*
G75*
G03X153880000Y-103910000I2132144J1378027D01*
G01*
X153864388Y-101234524D02*
G75*
G03X149580000Y-101260000I-2134388J-1325476D01*
G01*
X153880000Y-101260000D02*
X153880000Y-103910000D01*
X149580000Y-101260000D02*
X149580000Y-103910000D01*
G04 #@! TO.C,R103*
X148370000Y-105160000D02*
X148370000Y-106360000D01*
X146610000Y-106360000D02*
X146610000Y-105160000D01*
G04 #@! TO.C,R104*
X176390000Y-76120000D02*
X176390000Y-77320000D01*
X174630000Y-77320000D02*
X174630000Y-76120000D01*
G04 #@! TO.C,R105*
X147450000Y-94670000D02*
X147450000Y-95870000D01*
X145690000Y-95870000D02*
X145690000Y-94670000D01*
G04 #@! TO.C,R106*
X145110000Y-84000000D02*
X145110000Y-82800000D01*
X146870000Y-82800000D02*
X146870000Y-84000000D01*
G04 #@! TO.C,R107*
X169090000Y-102020000D02*
X169090000Y-100820000D01*
X170850000Y-100820000D02*
X170850000Y-102020000D01*
G04 #@! TO.C,R108*
X156240000Y-105030000D02*
X157440000Y-105030000D01*
X157440000Y-106790000D02*
X156240000Y-106790000D01*
D12*
G04 #@! TO.C,U106*
X164942000Y-113067000D02*
X160878000Y-113067000D01*
X160878000Y-113067000D02*
X160878000Y-109892000D01*
X164942000Y-113067000D02*
X164942000Y-110019000D01*
X164942000Y-110019000D02*
X164561000Y-109511000D01*
D13*
G04 #@! TO.C,R110*
X163820000Y-95650000D02*
X162620000Y-95650000D01*
X162620000Y-93890000D02*
X163820000Y-93890000D01*
D12*
G04 #@! TO.C,U107*
X161163000Y-92962000D02*
X161163000Y-88898000D01*
X161163000Y-88898000D02*
X164338000Y-88898000D01*
X161163000Y-92962000D02*
X164211000Y-92962000D01*
X164211000Y-92962000D02*
X164719000Y-92581000D01*
G04 #@! TO.C,U103*
X156225714Y-69052380D02*
X156225714Y-69861904D01*
X156273333Y-69957142D01*
X156320952Y-70004761D01*
X156416190Y-70052380D01*
X156606666Y-70052380D01*
X156701904Y-70004761D01*
X156749523Y-69957142D01*
X156797142Y-69861904D01*
X156797142Y-69052380D01*
X157797142Y-70052380D02*
X157225714Y-70052380D01*
X157511428Y-70052380D02*
X157511428Y-69052380D01*
X157416190Y-69195238D01*
X157320952Y-69290476D01*
X157225714Y-69338095D01*
X158416190Y-69052380D02*
X158511428Y-69052380D01*
X158606666Y-69100000D01*
X158654285Y-69147619D01*
X158701904Y-69242857D01*
X158749523Y-69433333D01*
X158749523Y-69671428D01*
X158701904Y-69861904D01*
X158654285Y-69957142D01*
X158606666Y-70004761D01*
X158511428Y-70052380D01*
X158416190Y-70052380D01*
X158320952Y-70004761D01*
X158273333Y-69957142D01*
X158225714Y-69861904D01*
X158178095Y-69671428D01*
X158178095Y-69433333D01*
X158225714Y-69242857D01*
X158273333Y-69147619D01*
X158320952Y-69100000D01*
X158416190Y-69052380D01*
X159082857Y-69052380D02*
X159701904Y-69052380D01*
X159368571Y-69433333D01*
X159511428Y-69433333D01*
X159606666Y-69480952D01*
X159654285Y-69528571D01*
X159701904Y-69623809D01*
X159701904Y-69861904D01*
X159654285Y-69957142D01*
X159606666Y-70004761D01*
X159511428Y-70052380D01*
X159225714Y-70052380D01*
X159130476Y-70004761D01*
X159082857Y-69957142D01*
G04 #@! TO.C,U104*
X153865714Y-108612380D02*
X153865714Y-109421904D01*
X153913333Y-109517142D01*
X153960952Y-109564761D01*
X154056190Y-109612380D01*
X154246666Y-109612380D01*
X154341904Y-109564761D01*
X154389523Y-109517142D01*
X154437142Y-109421904D01*
X154437142Y-108612380D01*
X155437142Y-109612380D02*
X154865714Y-109612380D01*
X155151428Y-109612380D02*
X155151428Y-108612380D01*
X155056190Y-108755238D01*
X154960952Y-108850476D01*
X154865714Y-108898095D01*
X156056190Y-108612380D02*
X156151428Y-108612380D01*
X156246666Y-108660000D01*
X156294285Y-108707619D01*
X156341904Y-108802857D01*
X156389523Y-108993333D01*
X156389523Y-109231428D01*
X156341904Y-109421904D01*
X156294285Y-109517142D01*
X156246666Y-109564761D01*
X156151428Y-109612380D01*
X156056190Y-109612380D01*
X155960952Y-109564761D01*
X155913333Y-109517142D01*
X155865714Y-109421904D01*
X155818095Y-109231428D01*
X155818095Y-108993333D01*
X155865714Y-108802857D01*
X155913333Y-108707619D01*
X155960952Y-108660000D01*
X156056190Y-108612380D01*
X157246666Y-108945714D02*
X157246666Y-109612380D01*
X157008571Y-108564761D02*
X156770476Y-109279047D01*
X157389523Y-109279047D01*
G04 #@! TO.C,C101*
X161940952Y-103787142D02*
X161893333Y-103834761D01*
X161750476Y-103882380D01*
X161655238Y-103882380D01*
X161512380Y-103834761D01*
X161417142Y-103739523D01*
X161369523Y-103644285D01*
X161321904Y-103453809D01*
X161321904Y-103310952D01*
X161369523Y-103120476D01*
X161417142Y-103025238D01*
X161512380Y-102930000D01*
X161655238Y-102882380D01*
X161750476Y-102882380D01*
X161893333Y-102930000D01*
X161940952Y-102977619D01*
X162893333Y-103882380D02*
X162321904Y-103882380D01*
X162607619Y-103882380D02*
X162607619Y-102882380D01*
X162512380Y-103025238D01*
X162417142Y-103120476D01*
X162321904Y-103168095D01*
X163512380Y-102882380D02*
X163607619Y-102882380D01*
X163702857Y-102930000D01*
X163750476Y-102977619D01*
X163798095Y-103072857D01*
X163845714Y-103263333D01*
X163845714Y-103501428D01*
X163798095Y-103691904D01*
X163750476Y-103787142D01*
X163702857Y-103834761D01*
X163607619Y-103882380D01*
X163512380Y-103882380D01*
X163417142Y-103834761D01*
X163369523Y-103787142D01*
X163321904Y-103691904D01*
X163274285Y-103501428D01*
X163274285Y-103263333D01*
X163321904Y-103072857D01*
X163369523Y-102977619D01*
X163417142Y-102930000D01*
X163512380Y-102882380D01*
X164798095Y-103882380D02*
X164226666Y-103882380D01*
X164512380Y-103882380D02*
X164512380Y-102882380D01*
X164417142Y-103025238D01*
X164321904Y-103120476D01*
X164226666Y-103168095D01*
G04 #@! TO.C,J101*
X162392380Y-72110714D02*
X163106666Y-72110714D01*
X163249523Y-72158333D01*
X163344761Y-72253571D01*
X163392380Y-72396428D01*
X163392380Y-72491666D01*
X163392380Y-71110714D02*
X163392380Y-71682142D01*
X163392380Y-71396428D02*
X162392380Y-71396428D01*
X162535238Y-71491666D01*
X162630476Y-71586904D01*
X162678095Y-71682142D01*
X162392380Y-70491666D02*
X162392380Y-70396428D01*
X162440000Y-70301190D01*
X162487619Y-70253571D01*
X162582857Y-70205952D01*
X162773333Y-70158333D01*
X163011428Y-70158333D01*
X163201904Y-70205952D01*
X163297142Y-70253571D01*
X163344761Y-70301190D01*
X163392380Y-70396428D01*
X163392380Y-70491666D01*
X163344761Y-70586904D01*
X163297142Y-70634523D01*
X163201904Y-70682142D01*
X163011428Y-70729761D01*
X162773333Y-70729761D01*
X162582857Y-70682142D01*
X162487619Y-70634523D01*
X162440000Y-70586904D01*
X162392380Y-70491666D01*
X163392380Y-69205952D02*
X163392380Y-69777380D01*
X163392380Y-69491666D02*
X162392380Y-69491666D01*
X162535238Y-69586904D01*
X162630476Y-69682142D01*
X162678095Y-69777380D01*
G04 #@! TO.C,J102*
X172124285Y-90792380D02*
X172124285Y-91506666D01*
X172076666Y-91649523D01*
X171981428Y-91744761D01*
X171838571Y-91792380D01*
X171743333Y-91792380D01*
X173124285Y-91792380D02*
X172552857Y-91792380D01*
X172838571Y-91792380D02*
X172838571Y-90792380D01*
X172743333Y-90935238D01*
X172648095Y-91030476D01*
X172552857Y-91078095D01*
X173743333Y-90792380D02*
X173838571Y-90792380D01*
X173933809Y-90840000D01*
X173981428Y-90887619D01*
X174029047Y-90982857D01*
X174076666Y-91173333D01*
X174076666Y-91411428D01*
X174029047Y-91601904D01*
X173981428Y-91697142D01*
X173933809Y-91744761D01*
X173838571Y-91792380D01*
X173743333Y-91792380D01*
X173648095Y-91744761D01*
X173600476Y-91697142D01*
X173552857Y-91601904D01*
X173505238Y-91411428D01*
X173505238Y-91173333D01*
X173552857Y-90982857D01*
X173600476Y-90887619D01*
X173648095Y-90840000D01*
X173743333Y-90792380D01*
X174457619Y-90887619D02*
X174505238Y-90840000D01*
X174600476Y-90792380D01*
X174838571Y-90792380D01*
X174933809Y-90840000D01*
X174981428Y-90887619D01*
X175029047Y-90982857D01*
X175029047Y-91078095D01*
X174981428Y-91220952D01*
X174410000Y-91792380D01*
X175029047Y-91792380D01*
G04 #@! TO.C,J103*
X149394285Y-86752380D02*
X149394285Y-87466666D01*
X149346666Y-87609523D01*
X149251428Y-87704761D01*
X149108571Y-87752380D01*
X149013333Y-87752380D01*
X150394285Y-87752380D02*
X149822857Y-87752380D01*
X150108571Y-87752380D02*
X150108571Y-86752380D01*
X150013333Y-86895238D01*
X149918095Y-86990476D01*
X149822857Y-87038095D01*
X151013333Y-86752380D02*
X151108571Y-86752380D01*
X151203809Y-86800000D01*
X151251428Y-86847619D01*
X151299047Y-86942857D01*
X151346666Y-87133333D01*
X151346666Y-87371428D01*
X151299047Y-87561904D01*
X151251428Y-87657142D01*
X151203809Y-87704761D01*
X151108571Y-87752380D01*
X151013333Y-87752380D01*
X150918095Y-87704761D01*
X150870476Y-87657142D01*
X150822857Y-87561904D01*
X150775238Y-87371428D01*
X150775238Y-87133333D01*
X150822857Y-86942857D01*
X150870476Y-86847619D01*
X150918095Y-86800000D01*
X151013333Y-86752380D01*
X151680000Y-86752380D02*
X152299047Y-86752380D01*
X151965714Y-87133333D01*
X152108571Y-87133333D01*
X152203809Y-87180952D01*
X152251428Y-87228571D01*
X152299047Y-87323809D01*
X152299047Y-87561904D01*
X152251428Y-87657142D01*
X152203809Y-87704761D01*
X152108571Y-87752380D01*
X151822857Y-87752380D01*
X151727619Y-87704761D01*
X151680000Y-87657142D01*
G04 #@! TO.C,JP101*
X175744285Y-88712380D02*
X175744285Y-89426666D01*
X175696666Y-89569523D01*
X175601428Y-89664761D01*
X175458571Y-89712380D01*
X175363333Y-89712380D01*
X176220476Y-89712380D02*
X176220476Y-88712380D01*
X176601428Y-88712380D01*
X176696666Y-88760000D01*
X176744285Y-88807619D01*
X176791904Y-88902857D01*
X176791904Y-89045714D01*
X176744285Y-89140952D01*
X176696666Y-89188571D01*
X176601428Y-89236190D01*
X176220476Y-89236190D01*
X177744285Y-89712380D02*
X177172857Y-89712380D01*
X177458571Y-89712380D02*
X177458571Y-88712380D01*
X177363333Y-88855238D01*
X177268095Y-88950476D01*
X177172857Y-88998095D01*
X178363333Y-88712380D02*
X178458571Y-88712380D01*
X178553809Y-88760000D01*
X178601428Y-88807619D01*
X178649047Y-88902857D01*
X178696666Y-89093333D01*
X178696666Y-89331428D01*
X178649047Y-89521904D01*
X178601428Y-89617142D01*
X178553809Y-89664761D01*
X178458571Y-89712380D01*
X178363333Y-89712380D01*
X178268095Y-89664761D01*
X178220476Y-89617142D01*
X178172857Y-89521904D01*
X178125238Y-89331428D01*
X178125238Y-89093333D01*
X178172857Y-88902857D01*
X178220476Y-88807619D01*
X178268095Y-88760000D01*
X178363333Y-88712380D01*
X179649047Y-89712380D02*
X179077619Y-89712380D01*
X179363333Y-89712380D02*
X179363333Y-88712380D01*
X179268095Y-88855238D01*
X179172857Y-88950476D01*
X179077619Y-88998095D01*
G04 #@! TO.C,Q101*
X149282380Y-79367619D02*
X149187142Y-79320000D01*
X149091904Y-79224761D01*
X148949047Y-79081904D01*
X148853809Y-79034285D01*
X148758571Y-79034285D01*
X148806190Y-79272380D02*
X148710952Y-79224761D01*
X148615714Y-79129523D01*
X148568095Y-78939047D01*
X148568095Y-78605714D01*
X148615714Y-78415238D01*
X148710952Y-78320000D01*
X148806190Y-78272380D01*
X148996666Y-78272380D01*
X149091904Y-78320000D01*
X149187142Y-78415238D01*
X149234761Y-78605714D01*
X149234761Y-78939047D01*
X149187142Y-79129523D01*
X149091904Y-79224761D01*
X148996666Y-79272380D01*
X148806190Y-79272380D01*
X150187142Y-79272380D02*
X149615714Y-79272380D01*
X149901428Y-79272380D02*
X149901428Y-78272380D01*
X149806190Y-78415238D01*
X149710952Y-78510476D01*
X149615714Y-78558095D01*
X150806190Y-78272380D02*
X150901428Y-78272380D01*
X150996666Y-78320000D01*
X151044285Y-78367619D01*
X151091904Y-78462857D01*
X151139523Y-78653333D01*
X151139523Y-78891428D01*
X151091904Y-79081904D01*
X151044285Y-79177142D01*
X150996666Y-79224761D01*
X150901428Y-79272380D01*
X150806190Y-79272380D01*
X150710952Y-79224761D01*
X150663333Y-79177142D01*
X150615714Y-79081904D01*
X150568095Y-78891428D01*
X150568095Y-78653333D01*
X150615714Y-78462857D01*
X150663333Y-78367619D01*
X150710952Y-78320000D01*
X150806190Y-78272380D01*
X152091904Y-79272380D02*
X151520476Y-79272380D01*
X151806190Y-79272380D02*
X151806190Y-78272380D01*
X151710952Y-78415238D01*
X151615714Y-78510476D01*
X151520476Y-78558095D01*
G04 #@! TO.C,SW101*
X171634761Y-109695714D02*
X171682380Y-109552857D01*
X171682380Y-109314761D01*
X171634761Y-109219523D01*
X171587142Y-109171904D01*
X171491904Y-109124285D01*
X171396666Y-109124285D01*
X171301428Y-109171904D01*
X171253809Y-109219523D01*
X171206190Y-109314761D01*
X171158571Y-109505238D01*
X171110952Y-109600476D01*
X171063333Y-109648095D01*
X170968095Y-109695714D01*
X170872857Y-109695714D01*
X170777619Y-109648095D01*
X170730000Y-109600476D01*
X170682380Y-109505238D01*
X170682380Y-109267142D01*
X170730000Y-109124285D01*
X170682380Y-108790952D02*
X171682380Y-108552857D01*
X170968095Y-108362380D01*
X171682380Y-108171904D01*
X170682380Y-107933809D01*
X171682380Y-107029047D02*
X171682380Y-107600476D01*
X171682380Y-107314761D02*
X170682380Y-107314761D01*
X170825238Y-107410000D01*
X170920476Y-107505238D01*
X170968095Y-107600476D01*
X170682380Y-106410000D02*
X170682380Y-106314761D01*
X170730000Y-106219523D01*
X170777619Y-106171904D01*
X170872857Y-106124285D01*
X171063333Y-106076666D01*
X171301428Y-106076666D01*
X171491904Y-106124285D01*
X171587142Y-106171904D01*
X171634761Y-106219523D01*
X171682380Y-106314761D01*
X171682380Y-106410000D01*
X171634761Y-106505238D01*
X171587142Y-106552857D01*
X171491904Y-106600476D01*
X171301428Y-106648095D01*
X171063333Y-106648095D01*
X170872857Y-106600476D01*
X170777619Y-106552857D01*
X170730000Y-106505238D01*
X170682380Y-106410000D01*
X171682380Y-105124285D02*
X171682380Y-105695714D01*
X171682380Y-105410000D02*
X170682380Y-105410000D01*
X170825238Y-105505238D01*
X170920476Y-105600476D01*
X170968095Y-105695714D01*
G04 #@! TO.C,SW102*
X171824761Y-99085714D02*
X171872380Y-98942857D01*
X171872380Y-98704761D01*
X171824761Y-98609523D01*
X171777142Y-98561904D01*
X171681904Y-98514285D01*
X171586666Y-98514285D01*
X171491428Y-98561904D01*
X171443809Y-98609523D01*
X171396190Y-98704761D01*
X171348571Y-98895238D01*
X171300952Y-98990476D01*
X171253333Y-99038095D01*
X171158095Y-99085714D01*
X171062857Y-99085714D01*
X170967619Y-99038095D01*
X170920000Y-98990476D01*
X170872380Y-98895238D01*
X170872380Y-98657142D01*
X170920000Y-98514285D01*
X170872380Y-98180952D02*
X171872380Y-97942857D01*
X171158095Y-97752380D01*
X171872380Y-97561904D01*
X170872380Y-97323809D01*
X171872380Y-96419047D02*
X171872380Y-96990476D01*
X171872380Y-96704761D02*
X170872380Y-96704761D01*
X171015238Y-96800000D01*
X171110476Y-96895238D01*
X171158095Y-96990476D01*
X170872380Y-95800000D02*
X170872380Y-95704761D01*
X170920000Y-95609523D01*
X170967619Y-95561904D01*
X171062857Y-95514285D01*
X171253333Y-95466666D01*
X171491428Y-95466666D01*
X171681904Y-95514285D01*
X171777142Y-95561904D01*
X171824761Y-95609523D01*
X171872380Y-95704761D01*
X171872380Y-95800000D01*
X171824761Y-95895238D01*
X171777142Y-95942857D01*
X171681904Y-95990476D01*
X171491428Y-96038095D01*
X171253333Y-96038095D01*
X171062857Y-95990476D01*
X170967619Y-95942857D01*
X170920000Y-95895238D01*
X170872380Y-95800000D01*
X170967619Y-95085714D02*
X170920000Y-95038095D01*
X170872380Y-94942857D01*
X170872380Y-94704761D01*
X170920000Y-94609523D01*
X170967619Y-94561904D01*
X171062857Y-94514285D01*
X171158095Y-94514285D01*
X171300952Y-94561904D01*
X171872380Y-95133333D01*
X171872380Y-94514285D01*
G04 #@! TO.C,U101*
X156215714Y-77762380D02*
X156215714Y-78571904D01*
X156263333Y-78667142D01*
X156310952Y-78714761D01*
X156406190Y-78762380D01*
X156596666Y-78762380D01*
X156691904Y-78714761D01*
X156739523Y-78667142D01*
X156787142Y-78571904D01*
X156787142Y-77762380D01*
X157787142Y-78762380D02*
X157215714Y-78762380D01*
X157501428Y-78762380D02*
X157501428Y-77762380D01*
X157406190Y-77905238D01*
X157310952Y-78000476D01*
X157215714Y-78048095D01*
X158406190Y-77762380D02*
X158501428Y-77762380D01*
X158596666Y-77810000D01*
X158644285Y-77857619D01*
X158691904Y-77952857D01*
X158739523Y-78143333D01*
X158739523Y-78381428D01*
X158691904Y-78571904D01*
X158644285Y-78667142D01*
X158596666Y-78714761D01*
X158501428Y-78762380D01*
X158406190Y-78762380D01*
X158310952Y-78714761D01*
X158263333Y-78667142D01*
X158215714Y-78571904D01*
X158168095Y-78381428D01*
X158168095Y-78143333D01*
X158215714Y-77952857D01*
X158263333Y-77857619D01*
X158310952Y-77810000D01*
X158406190Y-77762380D01*
X159691904Y-78762380D02*
X159120476Y-78762380D01*
X159406190Y-78762380D02*
X159406190Y-77762380D01*
X159310952Y-77905238D01*
X159215714Y-78000476D01*
X159120476Y-78048095D01*
G04 #@! TO.C,U102*
X161395714Y-98752380D02*
X161395714Y-99561904D01*
X161443333Y-99657142D01*
X161490952Y-99704761D01*
X161586190Y-99752380D01*
X161776666Y-99752380D01*
X161871904Y-99704761D01*
X161919523Y-99657142D01*
X161967142Y-99561904D01*
X161967142Y-98752380D01*
X162967142Y-99752380D02*
X162395714Y-99752380D01*
X162681428Y-99752380D02*
X162681428Y-98752380D01*
X162586190Y-98895238D01*
X162490952Y-98990476D01*
X162395714Y-99038095D01*
X163586190Y-98752380D02*
X163681428Y-98752380D01*
X163776666Y-98800000D01*
X163824285Y-98847619D01*
X163871904Y-98942857D01*
X163919523Y-99133333D01*
X163919523Y-99371428D01*
X163871904Y-99561904D01*
X163824285Y-99657142D01*
X163776666Y-99704761D01*
X163681428Y-99752380D01*
X163586190Y-99752380D01*
X163490952Y-99704761D01*
X163443333Y-99657142D01*
X163395714Y-99561904D01*
X163348095Y-99371428D01*
X163348095Y-99133333D01*
X163395714Y-98942857D01*
X163443333Y-98847619D01*
X163490952Y-98800000D01*
X163586190Y-98752380D01*
X164300476Y-98847619D02*
X164348095Y-98800000D01*
X164443333Y-98752380D01*
X164681428Y-98752380D01*
X164776666Y-98800000D01*
X164824285Y-98847619D01*
X164871904Y-98942857D01*
X164871904Y-99038095D01*
X164824285Y-99180952D01*
X164252857Y-99752380D01*
X164871904Y-99752380D01*
G04 #@! TO.C,U105*
D16*
X167672380Y-108824285D02*
X168481904Y-108824285D01*
X168577142Y-108776666D01*
X168624761Y-108729047D01*
X168672380Y-108633809D01*
X168672380Y-108443333D01*
X168624761Y-108348095D01*
X168577142Y-108300476D01*
X168481904Y-108252857D01*
X167672380Y-108252857D01*
X168672380Y-107252857D02*
X168672380Y-107824285D01*
X168672380Y-107538571D02*
X167672380Y-107538571D01*
X167815238Y-107633809D01*
X167910476Y-107729047D01*
X167958095Y-107824285D01*
X167672380Y-106633809D02*
X167672380Y-106538571D01*
X167720000Y-106443333D01*
X167767619Y-106395714D01*
X167862857Y-106348095D01*
X168053333Y-106300476D01*
X168291428Y-106300476D01*
X168481904Y-106348095D01*
X168577142Y-106395714D01*
X168624761Y-106443333D01*
X168672380Y-106538571D01*
X168672380Y-106633809D01*
X168624761Y-106729047D01*
X168577142Y-106776666D01*
X168481904Y-106824285D01*
X168291428Y-106871904D01*
X168053333Y-106871904D01*
X167862857Y-106824285D01*
X167767619Y-106776666D01*
X167720000Y-106729047D01*
X167672380Y-106633809D01*
X167672380Y-105395714D02*
X167672380Y-105871904D01*
X168148571Y-105919523D01*
X168100952Y-105871904D01*
X168053333Y-105776666D01*
X168053333Y-105538571D01*
X168100952Y-105443333D01*
X168148571Y-105395714D01*
X168243809Y-105348095D01*
X168481904Y-105348095D01*
X168577142Y-105395714D01*
X168624761Y-105443333D01*
X168672380Y-105538571D01*
X168672380Y-105776666D01*
X168624761Y-105871904D01*
X168577142Y-105919523D01*
G04 #@! TO.C,R109*
D12*
X156492380Y-87929047D02*
X156016190Y-88262380D01*
X156492380Y-88500476D02*
X155492380Y-88500476D01*
X155492380Y-88119523D01*
X155540000Y-88024285D01*
X155587619Y-87976666D01*
X155682857Y-87929047D01*
X155825714Y-87929047D01*
X155920952Y-87976666D01*
X155968571Y-88024285D01*
X156016190Y-88119523D01*
X156016190Y-88500476D01*
X156492380Y-86976666D02*
X156492380Y-87548095D01*
X156492380Y-87262380D02*
X155492380Y-87262380D01*
X155635238Y-87357619D01*
X155730476Y-87452857D01*
X155778095Y-87548095D01*
X155492380Y-86357619D02*
X155492380Y-86262380D01*
X155540000Y-86167142D01*
X155587619Y-86119523D01*
X155682857Y-86071904D01*
X155873333Y-86024285D01*
X156111428Y-86024285D01*
X156301904Y-86071904D01*
X156397142Y-86119523D01*
X156444761Y-86167142D01*
X156492380Y-86262380D01*
X156492380Y-86357619D01*
X156444761Y-86452857D01*
X156397142Y-86500476D01*
X156301904Y-86548095D01*
X156111428Y-86595714D01*
X155873333Y-86595714D01*
X155682857Y-86548095D01*
X155587619Y-86500476D01*
X155540000Y-86452857D01*
X155492380Y-86357619D01*
X156492380Y-85548095D02*
X156492380Y-85357619D01*
X156444761Y-85262380D01*
X156397142Y-85214761D01*
X156254285Y-85119523D01*
X156063809Y-85071904D01*
X155682857Y-85071904D01*
X155587619Y-85119523D01*
X155540000Y-85167142D01*
X155492380Y-85262380D01*
X155492380Y-85452857D01*
X155540000Y-85548095D01*
X155587619Y-85595714D01*
X155682857Y-85643333D01*
X155920952Y-85643333D01*
X156016190Y-85595714D01*
X156063809Y-85548095D01*
X156111428Y-85452857D01*
X156111428Y-85262380D01*
X156063809Y-85167142D01*
X156016190Y-85119523D01*
X155920952Y-85071904D01*
G04 #@! TO.C,D101*
X148012380Y-102470476D02*
X147012380Y-102470476D01*
X147012380Y-102232380D01*
X147060000Y-102089523D01*
X147155238Y-101994285D01*
X147250476Y-101946666D01*
X147440952Y-101899047D01*
X147583809Y-101899047D01*
X147774285Y-101946666D01*
X147869523Y-101994285D01*
X147964761Y-102089523D01*
X148012380Y-102232380D01*
X148012380Y-102470476D01*
X148012380Y-100946666D02*
X148012380Y-101518095D01*
X148012380Y-101232380D02*
X147012380Y-101232380D01*
X147155238Y-101327619D01*
X147250476Y-101422857D01*
X147298095Y-101518095D01*
X147012380Y-100327619D02*
X147012380Y-100232380D01*
X147060000Y-100137142D01*
X147107619Y-100089523D01*
X147202857Y-100041904D01*
X147393333Y-99994285D01*
X147631428Y-99994285D01*
X147821904Y-100041904D01*
X147917142Y-100089523D01*
X147964761Y-100137142D01*
X148012380Y-100232380D01*
X148012380Y-100327619D01*
X147964761Y-100422857D01*
X147917142Y-100470476D01*
X147821904Y-100518095D01*
X147631428Y-100565714D01*
X147393333Y-100565714D01*
X147202857Y-100518095D01*
X147107619Y-100470476D01*
X147060000Y-100422857D01*
X147012380Y-100327619D01*
X148012380Y-99041904D02*
X148012380Y-99613333D01*
X148012380Y-99327619D02*
X147012380Y-99327619D01*
X147155238Y-99422857D01*
X147250476Y-99518095D01*
X147298095Y-99613333D01*
G04 #@! TO.C,D102*
X148162380Y-90560476D02*
X147162380Y-90560476D01*
X147162380Y-90322380D01*
X147210000Y-90179523D01*
X147305238Y-90084285D01*
X147400476Y-90036666D01*
X147590952Y-89989047D01*
X147733809Y-89989047D01*
X147924285Y-90036666D01*
X148019523Y-90084285D01*
X148114761Y-90179523D01*
X148162380Y-90322380D01*
X148162380Y-90560476D01*
X148162380Y-89036666D02*
X148162380Y-89608095D01*
X148162380Y-89322380D02*
X147162380Y-89322380D01*
X147305238Y-89417619D01*
X147400476Y-89512857D01*
X147448095Y-89608095D01*
X147162380Y-88417619D02*
X147162380Y-88322380D01*
X147210000Y-88227142D01*
X147257619Y-88179523D01*
X147352857Y-88131904D01*
X147543333Y-88084285D01*
X147781428Y-88084285D01*
X147971904Y-88131904D01*
X148067142Y-88179523D01*
X148114761Y-88227142D01*
X148162380Y-88322380D01*
X148162380Y-88417619D01*
X148114761Y-88512857D01*
X148067142Y-88560476D01*
X147971904Y-88608095D01*
X147781428Y-88655714D01*
X147543333Y-88655714D01*
X147352857Y-88608095D01*
X147257619Y-88560476D01*
X147210000Y-88512857D01*
X147162380Y-88417619D01*
X147257619Y-87703333D02*
X147210000Y-87655714D01*
X147162380Y-87560476D01*
X147162380Y-87322380D01*
X147210000Y-87227142D01*
X147257619Y-87179523D01*
X147352857Y-87131904D01*
X147448095Y-87131904D01*
X147590952Y-87179523D01*
X148162380Y-87750952D01*
X148162380Y-87131904D01*
G04 #@! TO.C,R101*
X171632380Y-77799047D02*
X171156190Y-78132380D01*
X171632380Y-78370476D02*
X170632380Y-78370476D01*
X170632380Y-77989523D01*
X170680000Y-77894285D01*
X170727619Y-77846666D01*
X170822857Y-77799047D01*
X170965714Y-77799047D01*
X171060952Y-77846666D01*
X171108571Y-77894285D01*
X171156190Y-77989523D01*
X171156190Y-78370476D01*
X171632380Y-76846666D02*
X171632380Y-77418095D01*
X171632380Y-77132380D02*
X170632380Y-77132380D01*
X170775238Y-77227619D01*
X170870476Y-77322857D01*
X170918095Y-77418095D01*
X170632380Y-76227619D02*
X170632380Y-76132380D01*
X170680000Y-76037142D01*
X170727619Y-75989523D01*
X170822857Y-75941904D01*
X171013333Y-75894285D01*
X171251428Y-75894285D01*
X171441904Y-75941904D01*
X171537142Y-75989523D01*
X171584761Y-76037142D01*
X171632380Y-76132380D01*
X171632380Y-76227619D01*
X171584761Y-76322857D01*
X171537142Y-76370476D01*
X171441904Y-76418095D01*
X171251428Y-76465714D01*
X171013333Y-76465714D01*
X170822857Y-76418095D01*
X170727619Y-76370476D01*
X170680000Y-76322857D01*
X170632380Y-76227619D01*
X171632380Y-74941904D02*
X171632380Y-75513333D01*
X171632380Y-75227619D02*
X170632380Y-75227619D01*
X170775238Y-75322857D01*
X170870476Y-75418095D01*
X170918095Y-75513333D01*
G04 #@! TO.C,R102*
X155082380Y-103699047D02*
X154606190Y-104032380D01*
X155082380Y-104270476D02*
X154082380Y-104270476D01*
X154082380Y-103889523D01*
X154130000Y-103794285D01*
X154177619Y-103746666D01*
X154272857Y-103699047D01*
X154415714Y-103699047D01*
X154510952Y-103746666D01*
X154558571Y-103794285D01*
X154606190Y-103889523D01*
X154606190Y-104270476D01*
X155082380Y-102746666D02*
X155082380Y-103318095D01*
X155082380Y-103032380D02*
X154082380Y-103032380D01*
X154225238Y-103127619D01*
X154320476Y-103222857D01*
X154368095Y-103318095D01*
X154082380Y-102127619D02*
X154082380Y-102032380D01*
X154130000Y-101937142D01*
X154177619Y-101889523D01*
X154272857Y-101841904D01*
X154463333Y-101794285D01*
X154701428Y-101794285D01*
X154891904Y-101841904D01*
X154987142Y-101889523D01*
X155034761Y-101937142D01*
X155082380Y-102032380D01*
X155082380Y-102127619D01*
X155034761Y-102222857D01*
X154987142Y-102270476D01*
X154891904Y-102318095D01*
X154701428Y-102365714D01*
X154463333Y-102365714D01*
X154272857Y-102318095D01*
X154177619Y-102270476D01*
X154130000Y-102222857D01*
X154082380Y-102127619D01*
X154177619Y-101413333D02*
X154130000Y-101365714D01*
X154082380Y-101270476D01*
X154082380Y-101032380D01*
X154130000Y-100937142D01*
X154177619Y-100889523D01*
X154272857Y-100841904D01*
X154368095Y-100841904D01*
X154510952Y-100889523D01*
X155082380Y-101460952D01*
X155082380Y-100841904D01*
G04 #@! TO.C,R103*
X149642380Y-106879047D02*
X149166190Y-107212380D01*
X149642380Y-107450476D02*
X148642380Y-107450476D01*
X148642380Y-107069523D01*
X148690000Y-106974285D01*
X148737619Y-106926666D01*
X148832857Y-106879047D01*
X148975714Y-106879047D01*
X149070952Y-106926666D01*
X149118571Y-106974285D01*
X149166190Y-107069523D01*
X149166190Y-107450476D01*
X149642380Y-105926666D02*
X149642380Y-106498095D01*
X149642380Y-106212380D02*
X148642380Y-106212380D01*
X148785238Y-106307619D01*
X148880476Y-106402857D01*
X148928095Y-106498095D01*
X148642380Y-105307619D02*
X148642380Y-105212380D01*
X148690000Y-105117142D01*
X148737619Y-105069523D01*
X148832857Y-105021904D01*
X149023333Y-104974285D01*
X149261428Y-104974285D01*
X149451904Y-105021904D01*
X149547142Y-105069523D01*
X149594761Y-105117142D01*
X149642380Y-105212380D01*
X149642380Y-105307619D01*
X149594761Y-105402857D01*
X149547142Y-105450476D01*
X149451904Y-105498095D01*
X149261428Y-105545714D01*
X149023333Y-105545714D01*
X148832857Y-105498095D01*
X148737619Y-105450476D01*
X148690000Y-105402857D01*
X148642380Y-105307619D01*
X148642380Y-104640952D02*
X148642380Y-104021904D01*
X149023333Y-104355238D01*
X149023333Y-104212380D01*
X149070952Y-104117142D01*
X149118571Y-104069523D01*
X149213809Y-104021904D01*
X149451904Y-104021904D01*
X149547142Y-104069523D01*
X149594761Y-104117142D01*
X149642380Y-104212380D01*
X149642380Y-104498095D01*
X149594761Y-104593333D01*
X149547142Y-104640952D01*
G04 #@! TO.C,R104*
X177632380Y-77939047D02*
X177156190Y-78272380D01*
X177632380Y-78510476D02*
X176632380Y-78510476D01*
X176632380Y-78129523D01*
X176680000Y-78034285D01*
X176727619Y-77986666D01*
X176822857Y-77939047D01*
X176965714Y-77939047D01*
X177060952Y-77986666D01*
X177108571Y-78034285D01*
X177156190Y-78129523D01*
X177156190Y-78510476D01*
X177632380Y-76986666D02*
X177632380Y-77558095D01*
X177632380Y-77272380D02*
X176632380Y-77272380D01*
X176775238Y-77367619D01*
X176870476Y-77462857D01*
X176918095Y-77558095D01*
X176632380Y-76367619D02*
X176632380Y-76272380D01*
X176680000Y-76177142D01*
X176727619Y-76129523D01*
X176822857Y-76081904D01*
X177013333Y-76034285D01*
X177251428Y-76034285D01*
X177441904Y-76081904D01*
X177537142Y-76129523D01*
X177584761Y-76177142D01*
X177632380Y-76272380D01*
X177632380Y-76367619D01*
X177584761Y-76462857D01*
X177537142Y-76510476D01*
X177441904Y-76558095D01*
X177251428Y-76605714D01*
X177013333Y-76605714D01*
X176822857Y-76558095D01*
X176727619Y-76510476D01*
X176680000Y-76462857D01*
X176632380Y-76367619D01*
X176965714Y-75177142D02*
X177632380Y-75177142D01*
X176584761Y-75415238D02*
X177299047Y-75653333D01*
X177299047Y-75034285D01*
G04 #@! TO.C,R105*
X148632380Y-96259047D02*
X148156190Y-96592380D01*
X148632380Y-96830476D02*
X147632380Y-96830476D01*
X147632380Y-96449523D01*
X147680000Y-96354285D01*
X147727619Y-96306666D01*
X147822857Y-96259047D01*
X147965714Y-96259047D01*
X148060952Y-96306666D01*
X148108571Y-96354285D01*
X148156190Y-96449523D01*
X148156190Y-96830476D01*
X148632380Y-95306666D02*
X148632380Y-95878095D01*
X148632380Y-95592380D02*
X147632380Y-95592380D01*
X147775238Y-95687619D01*
X147870476Y-95782857D01*
X147918095Y-95878095D01*
X147632380Y-94687619D02*
X147632380Y-94592380D01*
X147680000Y-94497142D01*
X147727619Y-94449523D01*
X147822857Y-94401904D01*
X148013333Y-94354285D01*
X148251428Y-94354285D01*
X148441904Y-94401904D01*
X148537142Y-94449523D01*
X148584761Y-94497142D01*
X148632380Y-94592380D01*
X148632380Y-94687619D01*
X148584761Y-94782857D01*
X148537142Y-94830476D01*
X148441904Y-94878095D01*
X148251428Y-94925714D01*
X148013333Y-94925714D01*
X147822857Y-94878095D01*
X147727619Y-94830476D01*
X147680000Y-94782857D01*
X147632380Y-94687619D01*
X147632380Y-93449523D02*
X147632380Y-93925714D01*
X148108571Y-93973333D01*
X148060952Y-93925714D01*
X148013333Y-93830476D01*
X148013333Y-93592380D01*
X148060952Y-93497142D01*
X148108571Y-93449523D01*
X148203809Y-93401904D01*
X148441904Y-93401904D01*
X148537142Y-93449523D01*
X148584761Y-93497142D01*
X148632380Y-93592380D01*
X148632380Y-93830476D01*
X148584761Y-93925714D01*
X148537142Y-93973333D01*
G04 #@! TO.C,R106*
X146502380Y-80179047D02*
X146026190Y-80512380D01*
X146502380Y-80750476D02*
X145502380Y-80750476D01*
X145502380Y-80369523D01*
X145550000Y-80274285D01*
X145597619Y-80226666D01*
X145692857Y-80179047D01*
X145835714Y-80179047D01*
X145930952Y-80226666D01*
X145978571Y-80274285D01*
X146026190Y-80369523D01*
X146026190Y-80750476D01*
X146502380Y-79226666D02*
X146502380Y-79798095D01*
X146502380Y-79512380D02*
X145502380Y-79512380D01*
X145645238Y-79607619D01*
X145740476Y-79702857D01*
X145788095Y-79798095D01*
X145502380Y-78607619D02*
X145502380Y-78512380D01*
X145550000Y-78417142D01*
X145597619Y-78369523D01*
X145692857Y-78321904D01*
X145883333Y-78274285D01*
X146121428Y-78274285D01*
X146311904Y-78321904D01*
X146407142Y-78369523D01*
X146454761Y-78417142D01*
X146502380Y-78512380D01*
X146502380Y-78607619D01*
X146454761Y-78702857D01*
X146407142Y-78750476D01*
X146311904Y-78798095D01*
X146121428Y-78845714D01*
X145883333Y-78845714D01*
X145692857Y-78798095D01*
X145597619Y-78750476D01*
X145550000Y-78702857D01*
X145502380Y-78607619D01*
X145502380Y-77417142D02*
X145502380Y-77607619D01*
X145550000Y-77702857D01*
X145597619Y-77750476D01*
X145740476Y-77845714D01*
X145930952Y-77893333D01*
X146311904Y-77893333D01*
X146407142Y-77845714D01*
X146454761Y-77798095D01*
X146502380Y-77702857D01*
X146502380Y-77512380D01*
X146454761Y-77417142D01*
X146407142Y-77369523D01*
X146311904Y-77321904D01*
X146073809Y-77321904D01*
X145978571Y-77369523D01*
X145930952Y-77417142D01*
X145883333Y-77512380D01*
X145883333Y-77702857D01*
X145930952Y-77798095D01*
X145978571Y-77845714D01*
X146073809Y-77893333D01*
G04 #@! TO.C,R107*
X168722380Y-102539047D02*
X168246190Y-102872380D01*
X168722380Y-103110476D02*
X167722380Y-103110476D01*
X167722380Y-102729523D01*
X167770000Y-102634285D01*
X167817619Y-102586666D01*
X167912857Y-102539047D01*
X168055714Y-102539047D01*
X168150952Y-102586666D01*
X168198571Y-102634285D01*
X168246190Y-102729523D01*
X168246190Y-103110476D01*
X168722380Y-101586666D02*
X168722380Y-102158095D01*
X168722380Y-101872380D02*
X167722380Y-101872380D01*
X167865238Y-101967619D01*
X167960476Y-102062857D01*
X168008095Y-102158095D01*
X167722380Y-100967619D02*
X167722380Y-100872380D01*
X167770000Y-100777142D01*
X167817619Y-100729523D01*
X167912857Y-100681904D01*
X168103333Y-100634285D01*
X168341428Y-100634285D01*
X168531904Y-100681904D01*
X168627142Y-100729523D01*
X168674761Y-100777142D01*
X168722380Y-100872380D01*
X168722380Y-100967619D01*
X168674761Y-101062857D01*
X168627142Y-101110476D01*
X168531904Y-101158095D01*
X168341428Y-101205714D01*
X168103333Y-101205714D01*
X167912857Y-101158095D01*
X167817619Y-101110476D01*
X167770000Y-101062857D01*
X167722380Y-100967619D01*
X167722380Y-100300952D02*
X167722380Y-99634285D01*
X168722380Y-100062857D01*
G04 #@! TO.C,R108*
X155720952Y-108062380D02*
X155387619Y-107586190D01*
X155149523Y-108062380D02*
X155149523Y-107062380D01*
X155530476Y-107062380D01*
X155625714Y-107110000D01*
X155673333Y-107157619D01*
X155720952Y-107252857D01*
X155720952Y-107395714D01*
X155673333Y-107490952D01*
X155625714Y-107538571D01*
X155530476Y-107586190D01*
X155149523Y-107586190D01*
X156673333Y-108062380D02*
X156101904Y-108062380D01*
X156387619Y-108062380D02*
X156387619Y-107062380D01*
X156292380Y-107205238D01*
X156197142Y-107300476D01*
X156101904Y-107348095D01*
X157292380Y-107062380D02*
X157387619Y-107062380D01*
X157482857Y-107110000D01*
X157530476Y-107157619D01*
X157578095Y-107252857D01*
X157625714Y-107443333D01*
X157625714Y-107681428D01*
X157578095Y-107871904D01*
X157530476Y-107967142D01*
X157482857Y-108014761D01*
X157387619Y-108062380D01*
X157292380Y-108062380D01*
X157197142Y-108014761D01*
X157149523Y-107967142D01*
X157101904Y-107871904D01*
X157054285Y-107681428D01*
X157054285Y-107443333D01*
X157101904Y-107252857D01*
X157149523Y-107157619D01*
X157197142Y-107110000D01*
X157292380Y-107062380D01*
X158197142Y-107490952D02*
X158101904Y-107443333D01*
X158054285Y-107395714D01*
X158006666Y-107300476D01*
X158006666Y-107252857D01*
X158054285Y-107157619D01*
X158101904Y-107110000D01*
X158197142Y-107062380D01*
X158387619Y-107062380D01*
X158482857Y-107110000D01*
X158530476Y-107157619D01*
X158578095Y-107252857D01*
X158578095Y-107300476D01*
X158530476Y-107395714D01*
X158482857Y-107443333D01*
X158387619Y-107490952D01*
X158197142Y-107490952D01*
X158101904Y-107538571D01*
X158054285Y-107586190D01*
X158006666Y-107681428D01*
X158006666Y-107871904D01*
X158054285Y-107967142D01*
X158101904Y-108014761D01*
X158197142Y-108062380D01*
X158387619Y-108062380D01*
X158482857Y-108014761D01*
X158530476Y-107967142D01*
X158578095Y-107871904D01*
X158578095Y-107681428D01*
X158530476Y-107586190D01*
X158482857Y-107538571D01*
X158387619Y-107490952D01*
G04 #@! TO.C,U106*
X158972380Y-111694285D02*
X159781904Y-111694285D01*
X159877142Y-111646666D01*
X159924761Y-111599047D01*
X159972380Y-111503809D01*
X159972380Y-111313333D01*
X159924761Y-111218095D01*
X159877142Y-111170476D01*
X159781904Y-111122857D01*
X158972380Y-111122857D01*
X159972380Y-110122857D02*
X159972380Y-110694285D01*
X159972380Y-110408571D02*
X158972380Y-110408571D01*
X159115238Y-110503809D01*
X159210476Y-110599047D01*
X159258095Y-110694285D01*
X158972380Y-109503809D02*
X158972380Y-109408571D01*
X159020000Y-109313333D01*
X159067619Y-109265714D01*
X159162857Y-109218095D01*
X159353333Y-109170476D01*
X159591428Y-109170476D01*
X159781904Y-109218095D01*
X159877142Y-109265714D01*
X159924761Y-109313333D01*
X159972380Y-109408571D01*
X159972380Y-109503809D01*
X159924761Y-109599047D01*
X159877142Y-109646666D01*
X159781904Y-109694285D01*
X159591428Y-109741904D01*
X159353333Y-109741904D01*
X159162857Y-109694285D01*
X159067619Y-109646666D01*
X159020000Y-109599047D01*
X158972380Y-109503809D01*
X158972380Y-108313333D02*
X158972380Y-108503809D01*
X159020000Y-108599047D01*
X159067619Y-108646666D01*
X159210476Y-108741904D01*
X159400952Y-108789523D01*
X159781904Y-108789523D01*
X159877142Y-108741904D01*
X159924761Y-108694285D01*
X159972380Y-108599047D01*
X159972380Y-108408571D01*
X159924761Y-108313333D01*
X159877142Y-108265714D01*
X159781904Y-108218095D01*
X159543809Y-108218095D01*
X159448571Y-108265714D01*
X159400952Y-108313333D01*
X159353333Y-108408571D01*
X159353333Y-108599047D01*
X159400952Y-108694285D01*
X159448571Y-108741904D01*
X159543809Y-108789523D01*
G04 #@! TO.C,R110*
X162100952Y-96922380D02*
X161767619Y-96446190D01*
X161529523Y-96922380D02*
X161529523Y-95922380D01*
X161910476Y-95922380D01*
X162005714Y-95970000D01*
X162053333Y-96017619D01*
X162100952Y-96112857D01*
X162100952Y-96255714D01*
X162053333Y-96350952D01*
X162005714Y-96398571D01*
X161910476Y-96446190D01*
X161529523Y-96446190D01*
X163053333Y-96922380D02*
X162481904Y-96922380D01*
X162767619Y-96922380D02*
X162767619Y-95922380D01*
X162672380Y-96065238D01*
X162577142Y-96160476D01*
X162481904Y-96208095D01*
X164005714Y-96922380D02*
X163434285Y-96922380D01*
X163720000Y-96922380D02*
X163720000Y-95922380D01*
X163624761Y-96065238D01*
X163529523Y-96160476D01*
X163434285Y-96208095D01*
X164624761Y-95922380D02*
X164720000Y-95922380D01*
X164815238Y-95970000D01*
X164862857Y-96017619D01*
X164910476Y-96112857D01*
X164958095Y-96303333D01*
X164958095Y-96541428D01*
X164910476Y-96731904D01*
X164862857Y-96827142D01*
X164815238Y-96874761D01*
X164720000Y-96922380D01*
X164624761Y-96922380D01*
X164529523Y-96874761D01*
X164481904Y-96827142D01*
X164434285Y-96731904D01*
X164386666Y-96541428D01*
X164386666Y-96303333D01*
X164434285Y-96112857D01*
X164481904Y-96017619D01*
X164529523Y-95970000D01*
X164624761Y-95922380D01*
G04 #@! TO.C,U107*
X161242380Y-92644285D02*
X162051904Y-92644285D01*
X162147142Y-92596666D01*
X162194761Y-92549047D01*
X162242380Y-92453809D01*
X162242380Y-92263333D01*
X162194761Y-92168095D01*
X162147142Y-92120476D01*
X162051904Y-92072857D01*
X161242380Y-92072857D01*
X162242380Y-91072857D02*
X162242380Y-91644285D01*
X162242380Y-91358571D02*
X161242380Y-91358571D01*
X161385238Y-91453809D01*
X161480476Y-91549047D01*
X161528095Y-91644285D01*
X161242380Y-90453809D02*
X161242380Y-90358571D01*
X161290000Y-90263333D01*
X161337619Y-90215714D01*
X161432857Y-90168095D01*
X161623333Y-90120476D01*
X161861428Y-90120476D01*
X162051904Y-90168095D01*
X162147142Y-90215714D01*
X162194761Y-90263333D01*
X162242380Y-90358571D01*
X162242380Y-90453809D01*
X162194761Y-90549047D01*
X162147142Y-90596666D01*
X162051904Y-90644285D01*
X161861428Y-90691904D01*
X161623333Y-90691904D01*
X161432857Y-90644285D01*
X161337619Y-90596666D01*
X161290000Y-90549047D01*
X161242380Y-90453809D01*
X161242380Y-89787142D02*
X161242380Y-89120476D01*
X162242380Y-89549047D01*
G04 #@! TD*
M02*
